<?xml version="1.0" standalone="no"?>
<!DOCTYPE svg PUBLIC "-//W3C//DTD SVG 20010904//EN"
 "http://www.w3.org/TR/2001/REC-SVG-20010904/DTD/svg10.dtd">
<svg version="1.0" xmlns="http://www.w3.org/2000/svg"
 width="1000.000000pt" height="1000.000000pt" viewBox="0 0 1000.000000 1000.000000"
 preserveAspectRatio="xMidYMid meet">
<metadata>
Created by potrace 1.14, written by Peter Selinger 2001-2017
</metadata>
<g transform="translate(0.000000,1000.000000) scale(0.100000,-0.100000)"
fill="#000000" stroke="none">
<path d="M610 4990 l0 -4390 4390 0 4390 0 0 4390 0 4390 -4390 0 -4390 0 0
-4390z m8100 0 l0 -3710 -3710 0 -3710 0 0 3710 0 3710 3710 0 3710 0 0 -3710z"/>
<path d="M4463 7359 c-156 -23 -249 -105 -287 -255 -11 -42 -16 -107 -16 -198
l0 -136 -105 0 -105 0 0 -100 0 -100 105 0 105 0 0 -630 0 -630 120 0 120 0 0
630 0 630 150 0 150 0 0 100 0 100 -151 0 -151 0 4 133 c4 158 18 197 88 234
36 19 59 23 132 23 l88 0 0 99 0 98 -61 7 c-74 7 -104 6 -186 -5z"/>
<path d="M3025 7328 c-2 -7 -169 -456 -371 -998 -202 -542 -369 -993 -372
-1003 -4 -16 5 -17 128 -15 l133 3 101 287 101 288 410 0 410 0 101 -288 100
-287 132 -3 c73 -1 132 1 132 5 0 4 -169 460 -374 1013 l-374 1005 -126 3
c-96 2 -128 -1 -131 -10z m299 -758 c86 -245 156 -448 156 -452 0 -5 -147 -8
-326 -8 -306 0 -326 1 -322 18 5 16 299 848 314 885 3 10 10 15 14 10 4 -4 77
-208 164 -453z"/>
<path d="M7018 6935 l-3 -406 -40 56 c-152 212 -456 276 -707 149 -85 -43
-197 -163 -247 -264 -71 -145 -85 -216 -85 -430 0 -214 14 -285 85 -429 192
-391 730 -444 965 -96 l34 50 0 -128 0 -127 120 0 120 0 0 1015 0 1015 -120 0
-120 0 -2 -405z m-255 -390 c109 -54 192 -167 233 -315 25 -90 25 -290 0 -380
-59 -212 -194 -337 -375 -348 -172 -10 -301 67 -376 223 -44 92 -65 192 -65
315 0 270 109 467 289 525 31 10 77 14 141 12 81 -3 103 -7 153 -32z"/>
<path d="M5645 7315 c-127 -45 -132 -229 -9 -281 46 -19 80 -17 130 7 46 22
84 82 84 132 0 103 -107 177 -205 142z"/>
<path d="M7545 7315 c-127 -45 -132 -229 -9 -281 46 -19 80 -17 130 7 46 22
84 82 84 132 0 103 -107 177 -205 142z"/>
<path d="M5293 6781 c-101 -35 -160 -90 -211 -199 l-27 -57 -3 123 -3 122
-119 0 -120 0 0 -730 0 -730 119 0 120 0 3 498 c3 480 4 499 25 555 56 149
181 219 357 201 l66 -7 0 115 c0 111 -1 116 -22 122 -44 11 -133 5 -185 -13z"/>
<path d="M5570 6040 l0 -730 125 0 125 0 0 730 0 730 -125 0 -125 0 0 -730z"/>
<path d="M7470 6040 l0 -730 125 0 125 0 0 730 0 730 -125 0 -125 0 0 -730z"/>
<path d="M2680 3575 l0 -1015 483 0 c265 0 514 5 552 10 183 26 355 95 470
188 224 180 337 459 337 832 0 441 -156 738 -467 890 -201 99 -293 110 -902
110 l-473 0 0 -1015z m835 536 c112 -13 184 -43 248 -101 92 -84 139 -198 152
-370 17 -225 -52 -436 -172 -525 -75 -55 -155 -75 -320 -82 l-143 -6 0 546 0
547 78 0 c42 0 113 -4 157 -9z"/>
<path d="M4620 3575 l0 -1015 715 0 715 0 0 235 0 235 -415 0 -415 0 0 160 0
160 390 0 390 0 0 220 0 220 -390 0 -390 0 0 165 0 165 415 0 415 0 0 235 0
235 -715 0 -715 0 0 -1015z"/>
<path d="M6090 4563 c7 -21 569 -1891 596 -1985 5 -17 33 -18 400 -18 217 0
394 2 394 4 0 2 137 459 304 1015 l303 1011 -338 0 c-187 0 -339 -3 -339 -6 0
-17 -311 -1422 -319 -1439 -7 -16 -10 -17 -14 -5 -6 17 -317 1432 -317 1443 0
4 -153 7 -339 7 l-340 0 9 -27z"/>
<path d="M2245 2971 c-172 -78 -179 -322 -12 -406 120 -60 268 -8 313 110 25
68 16 163 -22 217 -59 86 -186 122 -279 79z"/>
</g>
</svg>
