<svg xmlns="http://www.w3.org/2000/svg" viewBox="0 0 500 500"><g id="freepik--Floor--inject-3"><path id="freepik--floor--inject-3" d="M80.1,454.76c-93.84-54.18-93.84-142,0-196.19s246-54.18,339.8,0,93.84,142,0,196.19S173.93,508.93,80.1,454.76Z" style="fill:#f5f5f5"></path></g><g id="freepik--Shadows--inject-3"><path id="freepik--Shadow--inject-3" d="M102.2,436.4l19.45-11.18c1.26-.72,1.26-1.9,0-2.63L49.28,380.81a5.08,5.08,0,0,0-4.56,0L25.27,392c-1.26.73-1.26,1.9,0,2.63L97.64,436.4A5,5,0,0,0,102.2,436.4Z" style="fill:#e0e0e0"></path><path id="freepik--shadow--inject-3" d="M65.35,360.06,18.74,333.19a1.2,1.2,0,0,1,0-2.27l115.21-66.75a4.33,4.33,0,0,1,3.92,0L184.48,291a1.2,1.2,0,0,1,0,2.27L69.27,360.05A4.33,4.33,0,0,1,65.35,360.06Z" style="fill:#e0e0e0"></path><path id="freepik--shadow--inject-3" d="M318.15,227c10.7,6.25,10.7,16.38,0,22.62s-28,6.25-38.74,0-10.7-16.37,0-22.62S307.45,220.73,318.15,227Z" style="fill:#e0e0e0"></path><polygon id="freepik--shadow--inject-3" points="474.14 348.3 415.3 382.28 319.09 326.74 377.94 292.76 474.14 348.3" style="fill:#e0e0e0"></polygon><path id="freepik--shadow--inject-3" d="M396.18,396.53,235.63,489.35a2.37,2.37,0,0,1-2.11,0L114.89,420.8a.65.65,0,0,1,0-1.23l160.55-92.81a2.33,2.33,0,0,1,2.12,0l118.62,68.55A.65.65,0,0,1,396.18,396.53Z" style="fill:#e0e0e0"></path></g><g id="freepik--Window--inject-3"><g id="freepik--window--inject-3"><g id="freepik--window--inject-3"><g id="freepik--Frame--inject-3"><polygon points="464.91 206.34 462.62 207.71 384.56 162.64 386.85 161.27 464.91 206.34" style="fill:#fafafa"></polygon><polygon points="386.85 161.27 462.62 205.01 462.62 72.32 386.85 28.6 386.85 161.27" style="fill:#fff"></polygon><path d="M380.22,165.14,467,215.21V69.82L380.22,19.75Zm4.34-137.89,78.06,45.07V207.71l-78.06-45.07Z" style="fill:#f0f0f0"></path><polygon points="384.56 162.64 386.85 161.27 386.85 28.6 384.56 27.25 384.56 162.64" style="fill:#e0e0e0"></polygon><polygon points="462.62 160.31 462.62 163.01 384.56 117.94 386.85 116.57 462.62 160.31" style="fill:#fafafa"></polygon><polygon points="462.62 109.34 462.62 112.03 384.56 66.97 386.85 65.6 462.62 109.34" style="fill:#fafafa"></polygon><polygon points="380.22 19.75 382.56 18.42 469.28 68.48 466.95 69.82 380.22 19.75" style="fill:#fafafa"></polygon><polygon points="469.28 68.48 466.95 69.82 466.95 215.21 469.28 213.87 469.28 68.48" style="fill:#e0e0e0"></polygon><polygon points="429.23 53.04 426.9 51.7 426.9 187.09 429.23 185.76 429.23 53.04" style="fill:#e0e0e0"></polygon></g><polygon points="422.57 49.21 426.9 51.7 426.9 187.09 422.57 184.59 422.57 49.21" style="fill:#f0f0f0"></polygon><polygon points="380.22 64.47 380.22 69.46 466.95 119.53 466.95 114.53 380.22 64.47" style="fill:#f0f0f0"></polygon><polygon points="380.22 115.43 380.22 120.42 466.95 170.49 466.95 165.5 380.22 115.43" style="fill:#f0f0f0"></polygon><polygon points="426.9 91.41 429.23 90.06 462.62 109.34 462.62 112.03 426.9 91.41" style="fill:#fafafa"></polygon><polygon points="426.9 142.36 429.23 141.01 462.62 160.29 462.62 162.98 426.9 142.36" style="fill:#fafafa"></polygon></g></g></g><g id="freepik--Shelves--inject-3"><g id="freepik--shelves--inject-3"><g id="freepik--Shelf--inject-3"><polygon points="119.04 126.15 90.81 109.85 16.47 152.73 16.47 155.83 44.7 172.13 119.04 129.25 119.04 126.15" style="fill:#ebebeb"></polygon><polygon points="44.7 169.03 119.04 126.15 90.81 109.85 16.47 152.73 44.7 169.03" style="fill:#fafafa"></polygon><polygon points="44.7 169.03 44.7 172.13 16.47 155.83 16.47 152.73 44.7 169.03" style="fill:#e6e6e6"></polygon><polygon points="99.3 82.98 115.87 92.55 115.87 124.06 99.3 114.5 99.3 82.98" style="fill:#ebebeb"></polygon><path d="M115.33,93.08l-16-9.2a6.73,6.73,0,0,1-3.66,2L111.53,95A16,16,0,0,0,115.33,93.08Z" style="fill:#fff"></path><path d="M110,95a3.47,3.47,0,0,0,3.08,0l2.7-1.55a.93.93,0,0,0,0-1.77L100,82.6,99.3,83l15.54,9a.56.56,0,0,1,0,1.06l-2.51,1.42a2.08,2.08,0,0,1-1.85,0L95,85.48l-.76.44Z" style="fill:#fafafa"></path><path d="M94.19,85.92v31.51l15.8,9.06a3.41,3.41,0,0,0,3.08,0l2.7-1.54a1.11,1.11,0,0,0,.64-.89V92.55a1.11,1.11,0,0,1-.64.89L113.07,95A3.41,3.41,0,0,1,110,95Z" style="fill:#e0e0e0"></path><path d="M111.53,95.35a3.18,3.18,0,0,0,1.54-.36l2.7-1.55a1.11,1.11,0,0,0,.64-.89v31.51a1.11,1.11,0,0,1-.64.89l-2.7,1.54a3.08,3.08,0,0,1-1.54.37Z" style="fill:#f0f0f0"></path><polygon points="92.36 87.76 108.92 97.32 103.78 129.79 87.21 120.22 92.36 87.76" style="fill:#ebebeb"></polygon><path d="M108.27,97.78l-16-9.21A8.73,8.73,0,0,1,88,90.23l15.9,9.16A21.29,21.29,0,0,0,108.27,97.78Z" style="fill:#fff"></path><path d="M102.2,99.27a4.37,4.37,0,0,0,3.34.15l3.15-1.29c1-.41,1.11-1.13.26-1.62L93.14,87.44l-.78.32,15.54,9c.51.29.44.73-.16,1l-2.93,1.18a2.61,2.61,0,0,1-2-.09l-15.53-9-.89.37Z" style="fill:#fafafa"></path><path d="M86.39,90.19l-5.14,32.47,15.8,9.07a4.33,4.33,0,0,0,3.34.15l3.15-1.29c.5-.2.78-.48.82-.78l5.15-32.46c-.05.29-.33.57-.82.78l-3.15,1.29a4.32,4.32,0,0,1-3.34-.15Z" style="fill:#e0e0e0"></path><path d="M103.81,99.68a4.23,4.23,0,0,0,1.73-.26l3.15-1.29c.49-.21.77-.49.82-.78l-5.15,32.46c0,.3-.32.58-.82.78l-3.15,1.29a4.35,4.35,0,0,1-1.72.26Z" style="fill:#f0f0f0"></path><g id="freepik--Pot--inject-3"><path id="freepik--shadow--inject-3" d="M86.31,129.26c3.9,2.25,3.9,5.89,0,8.14a15.59,15.59,0,0,1-14.11,0c-3.9-2.25-3.9-5.89,0-8.14A15.59,15.59,0,0,1,86.31,129.26Z" style="opacity:0.05"></path><path d="M72.91,134.93c-3.39-3.46-5.38-12.11-2.07-14.86H87.68c3.31,2.75,1.32,11.39-2.07,14.86l-.1.09-.11.12-.31.27-.08.06-.26.2a4.08,4.08,0,0,1-.44.28,11.18,11.18,0,0,1-10.11,0h0c-.15-.09-.29-.18-.44-.29a1.88,1.88,0,0,1-.24-.18l-.1-.07-.29-.27L73,135A.6.6,0,0,0,72.91,134.93Z" style="fill:#f5f5f5"></path><path d="M86.22,118.76c3.84,2.22,3.84,5.81,0,8a15.38,15.38,0,0,1-13.92,0c-3.84-2.22-3.84-5.81,0-8A15.38,15.38,0,0,1,86.22,118.76Z" style="fill:#fff"></path><path d="M83.49,120.33c2.34,1.35,2.34,3.54,0,4.89a9.36,9.36,0,0,1-8.47,0c-2.33-1.35-2.33-3.54,0-4.89A9.36,9.36,0,0,1,83.49,120.33Z" style="fill:#ebebeb"></path><path d="M75,122.65a9.36,9.36,0,0,1,8.47,0,3.91,3.91,0,0,1,1.4,1.28,3.93,3.93,0,0,1-1.4,1.29,9.36,9.36,0,0,1-8.47,0,3.93,3.93,0,0,1-1.4-1.29A3.91,3.91,0,0,1,75,122.65Z" style="fill:#e0e0e0"></path><path d="M83,123.93A19.47,19.47,0,0,0,86,119.86c1.41-2.5,1.67-5.85.94-6.26s-3.7,2.93-3.7,2.93a18.53,18.53,0,0,0,.31-4.27c-.13-2.23-.67-4.25-1.31-4.66S80.22,110,79.61,112s-1,3.71-1,3.71a31.49,31.49,0,0,0-1.1-4.69c-.74-2.11-1.41-2.59-1.94-2.38s-.86,1.19-1,4a28.76,28.76,0,0,0,.13,4s-1-1.16-2.21-2.28-1.83-1.39-2.2-1.16-.46,2.15,1.52,5.73a20.05,20.05,0,0,0,3.74,4.92S78.29,125.7,83,123.93Z" style="fill:#ebebeb"></path></g><polygon points="52.98 106.89 69.54 116.46 69.54 147.97 52.98 138.4 52.98 106.89" style="fill:#e0e0e0"></polygon><path d="M69,117l-16-9.2a6.76,6.76,0,0,1-3.67,2l15.9,9.16A16.23,16.23,0,0,0,69,117Z" style="fill:#fff"></path><path d="M63.67,118.89a3.41,3.41,0,0,0,3.08,0l2.7-1.55a.93.93,0,0,0,0-1.77l-15.8-9.06-.67.38,15.54,9a.56.56,0,0,1,0,1.06L66,118.34a2,2,0,0,1-1.85,0l-15.53-9-.76.43Z" style="fill:#fafafa"></path><path d="M47.87,109.82v31.51l15.8,9.07a3.47,3.47,0,0,0,3.08,0l2.7-1.55a1.08,1.08,0,0,0,.63-.89V116.45a1.08,1.08,0,0,1-.63.89l-2.7,1.55a3.41,3.41,0,0,1-3.08,0Z" style="fill:#e0e0e0"></path><path d="M65.21,119.26a3.25,3.25,0,0,0,1.54-.37l2.7-1.55a1.08,1.08,0,0,0,.63-.89V148a1.08,1.08,0,0,1-.63.89l-2.7,1.55a3.24,3.24,0,0,1-1.54.36Z" style="fill:#f0f0f0"></path><polygon points="46.2 110.78 62.77 120.34 62.77 151.85 46.2 142.29 46.2 110.78" style="fill:#ebebeb"></polygon><path d="M62.24,120.87l-16-9.2a6.69,6.69,0,0,1-3.66,2l15.89,9.16A16.11,16.11,0,0,0,62.24,120.87Z" style="fill:#fff"></path><path d="M56.89,122.78a3.41,3.41,0,0,0,3.08,0l2.7-1.55a.93.93,0,0,0,0-1.77l-15.8-9.07-.67.39,15.54,9a.56.56,0,0,1,0,1.06l-2.51,1.42a2.05,2.05,0,0,1-1.84,0l-15.54-9-.75.43Z" style="fill:#fafafa"></path><path d="M41.1,113.71v31.51l15.79,9.06a3.41,3.41,0,0,0,3.08,0l2.7-1.54a1.08,1.08,0,0,0,.64-.89V120.34a1.08,1.08,0,0,1-.64.89L60,122.78a3.41,3.41,0,0,1-3.08,0Z" style="fill:#e0e0e0"></path><path d="M58.43,123.14a3.18,3.18,0,0,0,1.54-.36l2.7-1.55a1.08,1.08,0,0,0,.64-.89v31.51a1.08,1.08,0,0,1-.64.89L60,154.28a3.08,3.08,0,0,1-1.54.37Z" style="fill:#f0f0f0"></path><polygon points="39.52 117.46 56.08 127.03 50.93 159.49 34.37 149.92 39.52 117.46" style="fill:#ebebeb"></polygon><path d="M55.42,127.48l-16-9.2a8.82,8.82,0,0,1-4.27,1.65L51,129.1A21.21,21.21,0,0,0,55.42,127.48Z" style="fill:#fff"></path><path d="M49.35,129a4.29,4.29,0,0,0,3.34.15l3.16-1.29c1-.4,1.11-1.13.25-1.62l-15.8-9.07-.78.32,15.53,9c.51.3.44.73-.15,1L52,128.59a2.56,2.56,0,0,1-2-.1l-15.54-9-.88.36Z" style="fill:#fafafa"></path><path d="M33.55,119.9l-5.14,32.46,15.8,9.07a4.28,4.28,0,0,0,3.34.15l3.15-1.29c.5-.2.78-.48.82-.77l5.15-32.47c-.05.3-.33.58-.82.78l-3.16,1.29a4.28,4.28,0,0,1-3.34-.15Z" style="fill:#e0e0e0"></path><path d="M51,129.38a4.15,4.15,0,0,0,1.72-.26l3.16-1.29c.49-.2.77-.48.82-.78l-5.15,32.47c0,.29-.32.57-.82.77l-3.15,1.29a4.2,4.2,0,0,1-1.72.26Z" style="fill:#f0f0f0"></path></g><g id="freepik--shelf--inject-3"><polygon points="119.04 65 90.81 48.7 16.47 91.58 16.47 94.68 44.7 110.97 119.04 68.1 119.04 65" style="fill:#ebebeb"></polygon><polygon points="44.7 107.88 119.04 65 90.81 48.7 16.47 91.58 44.7 107.88" style="fill:#fafafa"></polygon><polygon points="44.7 107.88 44.7 110.97 16.47 94.68 16.47 91.58 44.7 107.88" style="fill:#e6e6e6"></polygon><polygon points="95.15 18.84 113.45 29.41 113.45 64.24 95.15 53.67 95.15 18.84" style="fill:#ebebeb"></polygon><path d="M112.87,30,95.15,19.82A7.41,7.41,0,0,1,91.1,22l17.56,10.12A17.42,17.42,0,0,0,112.87,30Z" style="fill:#fff"></path><path d="M107,32.1a3.79,3.79,0,0,0,3.41,0l3-1.71a1,1,0,0,0,0-1.95l-17.46-10-.74.42,17.17,9.92c.57.32.57.84,0,1.17l-2.77,1.57a2.29,2.29,0,0,1-2,0L90.34,21.6l-.84.48Z" style="fill:#fafafa"></path><path d="M89.5,22.08V56.91l17.46,10a3.79,3.79,0,0,0,3.41,0l3-1.71a1.18,1.18,0,0,0,.7-1V29.41a1.18,1.18,0,0,1-.7,1l-3,1.71a3.79,3.79,0,0,1-3.41,0Z" style="fill:#e0e0e0"></path><path d="M108.66,32.51a3.52,3.52,0,0,0,1.71-.41l3-1.71a1.18,1.18,0,0,0,.7-1V64.24a1.18,1.18,0,0,1-.7,1l-3,1.71a3.51,3.51,0,0,1-1.71.4Z" style="fill:#f0f0f0"></path><polygon points="88.04 24.89 106.34 35.46 100.66 71.34 82.35 60.77 88.04 24.89" style="fill:#ebebeb"></polygon><path d="M105.62,36,87.9,25.79a9.75,9.75,0,0,1-4.72,1.83l17.57,10.13A23.48,23.48,0,0,0,105.62,36Z" style="fill:#fff"></path><path d="M98.91,37.61a4.8,4.8,0,0,0,3.69.17l3.49-1.43c1.1-.45,1.22-1.25.28-1.79l-17.47-10-.86.35,17.17,9.92c.57.32.49.8-.17,1.07l-3.23,1.3a2.84,2.84,0,0,1-2.22-.1l-17.17-9.9-1,.4Z" style="fill:#fafafa"></path><path d="M81.44,27.58,75.76,63.46l17.47,10a4.75,4.75,0,0,0,3.69.16l3.48-1.42c.55-.22.86-.53.91-.86L107,35.49c0,.33-.35.64-.9.86l-3.49,1.43a4.75,4.75,0,0,1-3.69-.17Z" style="fill:#e0e0e0"></path><path d="M100.7,38.06a4.66,4.66,0,0,0,1.9-.28l3.49-1.43c.55-.22.85-.53.9-.86l-5.68,35.88c0,.33-.36.64-.91.86l-3.48,1.42a4.57,4.57,0,0,1-1.91.29Z" style="fill:#f0f0f0"></path><g id="freepik--Picture--inject-3"><g id="freepik--frame--inject-3"><polygon points="57.62 90.06 58.92 90.69 82.94 76.82 81.64 76.2 57.62 90.06" style="fill:#fafafa"></polygon><polygon points="81.64 76.2 58.79 89.39 55.47 55.21 78.32 42.03 81.64 76.2" style="fill:#fff"></polygon><path d="M81.46,37.65,53,54.07l3.92,40.31L85.38,78Zm1.48,39.17-24,13.87L55.47,55.21l24-13.87Z" style="fill:#f0f0f0"></path><polygon points="82.94 76.82 81.64 76.2 78.32 42.03 79.48 41.34 82.94 76.82" style="fill:#e0e0e0"></polygon><polygon points="81.46 37.65 80.14 37.05 51.71 53.46 53.02 54.07 81.46 37.65" style="fill:#fafafa"></polygon><polygon points="51.71 53.46 53.02 54.07 56.94 94.38 55.63 93.77 51.71 53.46" style="fill:#e0e0e0"></polygon></g><g id="freepik--Land--inject-3"><polygon points="80.63 75.55 59.57 87.71 59.01 81.95 62.93 65.04 66.66 70.81 65.89 75.67 72.12 57.73 80.07 69.79 80.63 75.55" style="fill:#f0f0f0"></polygon><path d="M62.6,57.92a3,3,0,0,0-1.39,2.6c.09.94.86,1.3,1.72.8a2.94,2.94,0,0,0,1.4-2.6C64.24,57.78,63.46,57.42,62.6,57.92Z" style="fill:#f0f0f0"></path></g></g><g id="freepik--pot--inject-3"><path id="freepik--shadow--inject-3" d="M45.79,87.69c3.89,2.25,3.89,5.9,0,8.15a15.61,15.61,0,0,1-14.12,0c-3.89-2.25-3.89-5.9,0-8.15A15.59,15.59,0,0,1,45.79,87.69Z" style="opacity:0.05"></path><path d="M32.39,93.37C29,89.9,27,81.26,30.31,78.51H47.15c3.31,2.75,1.32,11.39-2.07,14.85l-.09.1-.12.11-.31.28-.08.06a1.74,1.74,0,0,1-.26.19,3.49,3.49,0,0,1-.43.28,11.12,11.12,0,0,1-10.11,0h0a3.68,3.68,0,0,1-.45-.28L33,93.92a.39.39,0,0,1-.1-.08,2.55,2.55,0,0,1-.3-.26l-.14-.13Z" style="fill:#f5f5f5"></path><path d="M45.69,77.19c3.84,2.22,3.84,5.82,0,8a15.38,15.38,0,0,1-13.92,0c-3.84-2.22-3.84-5.82,0-8A15.44,15.44,0,0,1,45.69,77.19Z" style="fill:#fff"></path><path d="M43,78.77c2.34,1.35,2.34,3.54,0,4.89a9.34,9.34,0,0,1-8.46,0c-2.34-1.35-2.34-3.54,0-4.89A9.34,9.34,0,0,1,43,78.77Z" style="fill:#ebebeb"></path><path d="M34.5,81.09a9.34,9.34,0,0,1,8.46,0,3.86,3.86,0,0,1,1.41,1.28A4,4,0,0,1,43,83.66a9.34,9.34,0,0,1-8.46,0,3.93,3.93,0,0,1-1.4-1.29A3.82,3.82,0,0,1,34.5,81.09Z" style="fill:#e0e0e0"></path><path d="M42.45,82.37a19.08,19.08,0,0,0,3.06-4.07c1.42-2.5,1.68-5.85,1-6.26S42.75,75,42.75,75a17.85,17.85,0,0,0,.31-4.26c-.12-2.23-.67-4.26-1.3-4.66s-2.07,2.4-2.68,4.43-1,3.71-1,3.71A31.49,31.49,0,0,0,37,69.5c-.74-2.12-1.41-2.59-1.93-2.39s-.87,1.2-1,4a27.88,27.88,0,0,0,.12,4S33.12,74,32,72.88s-1.83-1.4-2.19-1.16-.47,2.14,1.51,5.73A20.05,20.05,0,0,0,35,82.37S37.76,84.14,42.45,82.37Z" style="fill:#ebebeb"></path></g></g></g></g><g id="freepik--Pictures--inject-3"><g id="freepik--picture--inject-3"><g id="freepik--frame--inject-3"><polygon points="361.7 136.96 360.1 137.92 327.22 118.94 328.82 117.98 361.7 136.96" style="fill:#fafafa"></polygon><polygon points="328.82 117.98 360.1 136.03 360.1 103.28 328.82 85.24 328.82 117.98" style="fill:#fff"></polygon><path d="M324.2,120.68l38.92,22.47V101.54L324.2,79.06Zm3-36.38,32.88,19v34.64l-32.88-19Z" style="fill:#f0f0f0"></path><polygon points="327.22 118.94 328.82 117.98 328.82 85.24 327.22 84.3 327.22 118.94" style="fill:#e0e0e0"></polygon><polygon points="324.2 79.06 325.82 78.13 364.75 100.61 363.12 101.54 324.2 79.06" style="fill:#fafafa"></polygon><polygon points="364.75 100.61 363.12 101.54 363.12 143.15 364.75 142.22 364.75 100.61" style="fill:#e0e0e0"></polygon></g><g id="freepik--land--inject-3"><polygon points="330.04 117 358.88 133.65 358.88 125.32 351.67 108.68 347.18 112.84 348.79 119.82 338.84 98.53 330.04 108.68 330.04 117" style="fill:#f0f0f0"></polygon><path d="M347.45,100.64a4.7,4.7,0,0,1,2.13,3.69c0,1.36-.95,1.91-2.13,1.23a4.7,4.7,0,0,1-2.13-3.69C345.32,100.51,346.27,100,347.45,100.64Z" style="fill:#f0f0f0"></path></g></g><g id="freepik--picture--inject-3"><g id="freepik--frame--inject-3"><polygon points="361.7 82.1 360.1 83.05 327.22 64.07 328.82 63.12 361.7 82.1" style="fill:#fafafa"></polygon><polygon points="328.82 63.12 360.1 81.17 360.1 48.42 328.82 30.38 328.82 63.12" style="fill:#fff"></polygon><path d="M324.2,65.82l38.92,22.47V46.67L324.2,24.2Zm3-36.38,32.88,19V83.05l-32.88-19Z" style="fill:#f0f0f0"></path><polygon points="327.22 64.07 328.82 63.12 328.82 30.38 327.22 29.44 327.22 64.07" style="fill:#e0e0e0"></polygon><polygon points="324.2 24.2 325.82 23.27 364.75 45.74 363.12 46.67 324.2 24.2" style="fill:#fafafa"></polygon><polygon points="364.75 45.74 363.12 46.67 363.12 88.29 364.75 87.36 364.75 45.74" style="fill:#e0e0e0"></polygon></g><g id="freepik--land--inject-3"><polygon points="330.04 62.14 358.88 78.78 358.88 70.46 351.67 53.81 347.18 57.98 348.79 64.95 338.84 43.66 330.04 53.81 330.04 62.14" style="fill:#f0f0f0"></polygon><path d="M347.45,45.78a4.7,4.7,0,0,1,2.13,3.69c0,1.36-.95,1.91-2.13,1.23A4.7,4.7,0,0,1,345.32,47C345.32,45.65,346.27,45.1,347.45,45.78Z" style="fill:#f0f0f0"></path></g></g></g><g id="freepik--Plant--inject-3"><g id="freepik--plant--inject-3"><g id="freepik--pot--inject-3"><path d="M282.34,242c-8.79-9.07-14-32-5.38-39.19H320.6C329.17,210,324,232.9,315.22,242l-.24.25-.3.29c-.25.25-.51.49-.79.72l-.21.17c-.22.17-.43.34-.67.5a12.86,12.86,0,0,1-1.13.74c-7.24,4.22-19,4.22-26.2,0h0a13,13,0,0,1-1.14-.74l-.62-.47-.26-.21c-.27-.23-.53-.46-.77-.69l-.35-.35C282.48,242.12,282.4,242.06,282.34,242Z" style="fill:#ebebeb"></path><path d="M316.81,199.89c9.95,5.81,9.95,15.24,0,21.05s-26.1,5.81-36.06,0-10-15.24,0-21.05S306.85,194.08,316.81,199.89Z" style="fill:#fafafa"></path><path d="M312,202.68c7.31,4.27,7.31,11.2,0,15.46s-19.17,4.27-26.48,0-7.31-11.19,0-15.46S304.71,198.42,312,202.68Z" style="fill:#ebebeb"></path><path d="M285.54,210c7.31-4.27,19.17-4.27,26.48,0a12.23,12.23,0,0,1,4.38,4.06,12.14,12.14,0,0,1-4.38,4.06c-7.31,4.27-19.17,4.27-26.48,0a12.14,12.14,0,0,1-4.38-4.06A12.23,12.23,0,0,1,285.54,210Z" style="fill:#fff"></path></g><path d="M292.81,155.82c-2.95,3.72-11.8,5.36-16.21-3.76-4.14-8.55-8.51-16.62-9.83-19.77a3.34,3.34,0,0,1,1.81-4.47s-.12-4.86,8.34-2.2,14.63,7.19,18.82,15S298.22,154.32,292.81,155.82Z" style="fill:#f0f0f0"></path><path d="M297.31,168a44.18,44.18,0,0,0-1.09-4.85,68.92,68.92,0,0,0-3.44-9.25,70.09,70.09,0,0,0-10.85-16.83,60.7,60.7,0,0,0-8.12-7.91c-.09-.07-.15.12-.08.18a75.1,75.1,0,0,1,12.94,15.28,75.86,75.86,0,0,1,8.17,17.82c.54,1.76,1.06,3.52,1.52,5.3s.81,3.64,1.26,5.45c0,.18.33.27.33,0A35.14,35.14,0,0,0,297.31,168Z" style="fill:#e0e0e0"></path><path d="M297.31,168a44.18,44.18,0,0,0-1.09-4.85,68.92,68.92,0,0,0-3.44-9.25,70.09,70.09,0,0,0-10.85-16.83,60.7,60.7,0,0,0-8.12-7.91c-.09-.07-.15.12-.08.18a75.1,75.1,0,0,1,12.94,15.28,75.86,75.86,0,0,1,8.17,17.82c.54,1.76,1.06,3.52,1.52,5.3s.81,3.64,1.26,5.45c0,.18.33.27.33,0A35.14,35.14,0,0,0,297.31,168Z" style="opacity:0.1"></path><path d="M302.4,149.29c-7.68,2.37-13.38-3.62-11.41-13s11.85-19.83,15.58-17c2.33-2.33,7.46-1.49,9.87,6.14S316.66,152.62,302.4,149.29Z" style="fill:#e0e0e0"></path><path d="M306.91,125a103.28,103.28,0,0,0-5.11,16.88,165.25,165.25,0,0,0-3,17.69,274.62,274.62,0,0,0-1.54,34.65q0,4.8.12,9.6c.07,3.29,0,6.62.3,9.89.11,1.26,1.89.93,1.92-.23.11-5.75-.21-11.53-.27-17.29s0-11.39.11-17.08a240.24,240.24,0,0,1,3.11-34.61c.55-3.19,1.15-6.37,1.9-9.52.78-3.31,1.74-6.57,2.61-9.86C307.13,125,307,124.78,306.91,125Z" style="fill:#e0e0e0"></path><path d="M306.91,125a103.28,103.28,0,0,0-5.11,16.88,165.25,165.25,0,0,0-3,17.69,274.62,274.62,0,0,0-1.54,34.65q0,4.8.12,9.6c.07,3.29,0,6.62.3,9.89.11,1.26,1.89.93,1.92-.23.11-5.75-.21-11.53-.27-17.29s0-11.39.11-17.08a240.24,240.24,0,0,1,3.11-34.61c.55-3.19,1.15-6.37,1.9-9.52.78-3.31,1.74-6.57,2.61-9.86C307.13,125,307,124.78,306.91,125Z" style="opacity:0.1"></path><path d="M288.12,175c-2.22,4.56-9.72,6.3-16.5,1.14S255,147.28,262.46,146.9c.57-3.69,22.08-1.18,29,14.15C296.51,172.2,288.12,175,288.12,175Z" style="fill:#e0e0e0"></path><path d="M297.12,185a35.84,35.84,0,0,0-2.2-4.21,94.16,94.16,0,0,0-5.34-8.09,96.73,96.73,0,0,0-13.34-14.54,86.31,86.31,0,0,0-8.53-7c-.08-.05-.09.13,0,.18,2.42,2,4.86,4,7.14,6.23a97.34,97.34,0,0,1,6.72,7.21,121.15,121.15,0,0,1,11.13,15.32c.93,1.53,1.79,3.11,2.74,4.63s2.1,3.09,3,4.71c.13.24.48.24.35-.09C298.21,188,297.74,186.45,297.12,185Z" style="fill:#e0e0e0"></path><path d="M297.12,185a35.84,35.84,0,0,0-2.2-4.21,94.16,94.16,0,0,0-5.34-8.09,96.73,96.73,0,0,0-13.34-14.54,86.31,86.31,0,0,0-8.53-7c-.08-.05-.09.13,0,.18,2.42,2,4.86,4,7.14,6.23a97.34,97.34,0,0,1,6.72,7.21,121.15,121.15,0,0,1,11.13,15.32c.93,1.53,1.79,3.11,2.74,4.63s2.1,3.09,3,4.71c.13.24.48.24.35-.09C298.21,188,297.74,186.45,297.12,185Z" style="opacity:0.1"></path><path d="M302.18,173.09c-4.39-1-4.61-6.28.88-12.74s19.31-9.29,20-6.57c3.07,0,3.07,9.62-3.73,18.46S302.59,179,302.18,173.09Z" style="fill:#e0e0e0"></path><path d="M310.78,163.68a34.53,34.53,0,0,0-12.7,16.4c-.15.37.5.92.66.51a40.22,40.22,0,0,1,12.07-16.82S310.84,163.64,310.78,163.68Z" style="fill:#e0e0e0"></path><path d="M310.78,163.68a34.53,34.53,0,0,0-12.7,16.4c-.15.37.5.92.66.51a40.22,40.22,0,0,1,12.07-16.82S310.84,163.64,310.78,163.68Z" style="opacity:0.1"></path><path d="M307.2,205.2c-6.08,2.46-3.48,9.7,2.46,15.2s14.42,6.94,18.5,6.65,5.12-.84,5.12-.84.65-6.26,0-10.07a19.44,19.44,0,0,0-14.33-15.43C309.47,198.15,307.2,201.58,307.2,205.2Z" style="fill:#f0f0f0"></path><path d="M324,215.89a49.42,49.42,0,0,0-9.31-8.62c-3.46-2.27-8.08-4.22-12.23-2.8-1.61.55-4.11,2.15-3.81,4.15,0,.19.38.69.62.41a16.66,16.66,0,0,1,2.19-2.55,6.52,6.52,0,0,1,3.26-1.24,15.11,15.11,0,0,1,8.53,1.94c4.11,2.18,7.43,5.56,10.7,8.8C324,216,324.05,215.92,324,215.89Z" style="fill:#e0e0e0"></path><path d="M324,215.89a49.42,49.42,0,0,0-9.31-8.62c-3.46-2.27-8.08-4.22-12.23-2.8-1.61.55-4.11,2.15-3.81,4.15,0,.19.38.69.62.41a16.66,16.66,0,0,1,2.19-2.55,6.52,6.52,0,0,1,3.26-1.24,15.11,15.11,0,0,1,8.53,1.94c4.11,2.18,7.43,5.56,10.7,8.8C324,216,324.05,215.92,324,215.89Z" style="opacity:0.1"></path><path d="M284.09,181.43c.06-2.58-4.61-7.87-16-7-5.2.42-10,1.82-13.79,5.5a7.88,7.88,0,0,0-2.52,4.58,3.45,3.45,0,0,0,.27,2,3.54,3.54,0,0,0,1,1.12c2.72,2.2,6.27,1.62,9.48,2.44,5,1.27,15.44,5.8,21.47,2.78S287.7,183.32,284.09,181.43Z" style="fill:#f0f0f0"></path><path d="M294.18,188.53c-6.51-8.88-19.21-9.63-29.14-7.75a39.85,39.85,0,0,0-9.46,3s0,.13,0,.11a52.48,52.48,0,0,1,16.16-3.13,34.08,34.08,0,0,1,15.84,3,20.42,20.42,0,0,1,6.37,5C294.17,189,294.31,188.71,294.18,188.53Z" style="fill:#e0e0e0"></path><path d="M294.18,188.53c-6.51-8.88-19.21-9.63-29.14-7.75a39.85,39.85,0,0,0-9.46,3s0,.13,0,.11a52.48,52.48,0,0,1,16.16-3.13,34.08,34.08,0,0,1,15.84,3,20.42,20.42,0,0,1,6.37,5C294.17,189,294.31,188.71,294.18,188.53Z" style="opacity:0.1"></path><path d="M313.09,159.52c-.16,4.36,6,6.89,11.91,3.12s12.16-7.44,17.66-8.86,8.11-5.91,6.37-8.08-4.5-7.65-19-5.86-19.59,8.31-21.57,12.91S310.91,160.78,313.09,159.52Z" style="fill:#f0f0f0"></path><path d="M336.63,145.68a15.76,15.76,0,0,0-6.21.65,30.59,30.59,0,0,0-5.31,1.91,29.23,29.23,0,0,0-9,6.55,23.87,23.87,0,0,0-2,2.45,10.49,10.49,0,0,0-1.55,2.53c-.09.29.32.76.58.46.71-.82,1.25-1.83,1.92-2.7a29.56,29.56,0,0,1,2.33-2.66,29.12,29.12,0,0,1,5.57-4.39,34.61,34.61,0,0,1,6.18-3,37.27,37.27,0,0,1,3.6-1.08,12.79,12.79,0,0,1,3.93-.55C336.66,145.85,336.69,145.69,336.63,145.68Z" style="fill:#e0e0e0"></path><path d="M336.63,145.68a15.76,15.76,0,0,0-6.21.65,30.59,30.59,0,0,0-5.31,1.91,29.23,29.23,0,0,0-9,6.55,23.87,23.87,0,0,0-2,2.45,10.49,10.49,0,0,0-1.55,2.53c-.09.29.32.76.58.46.71-.82,1.25-1.83,1.92-2.7a29.56,29.56,0,0,1,2.33-2.66,29.12,29.12,0,0,1,5.57-4.39,34.61,34.61,0,0,1,6.18-3,37.27,37.27,0,0,1,3.6-1.08,12.79,12.79,0,0,1,3.93-.55C336.66,145.85,336.69,145.69,336.63,145.68Z" style="opacity:0.1"></path><path d="M302.71,183.05c-2-2-7.53-1.56-10.13,4.43s2.86,12.54,3.47,14.39c2.51-1.45,4.47-.59,8.89-1.45a11,11,0,0,0,8.48-11C313.13,183.92,310.82,180.3,302.71,183.05Z" style="fill:#f0f0f0"></path><path d="M302.63,182.45a8.26,8.26,0,0,0-2.68,2.77,14.89,14.89,0,0,0-1.74,3.36,14.31,14.31,0,0,0-.77,7.63c0,.1.1,0,.1-.05a15.58,15.58,0,0,1,1.28-7.54,15.23,15.23,0,0,1,1.82-3,15,15,0,0,1,1.23-1.41A8,8,0,0,0,303,183C303.17,182.79,302.94,182.3,302.63,182.45Z" style="fill:#e0e0e0"></path><path d="M302.63,182.45a8.26,8.26,0,0,0-2.68,2.77,14.89,14.89,0,0,0-1.74,3.36,14.31,14.31,0,0,0-.77,7.63c0,.1.1,0,.1-.05a15.58,15.58,0,0,1,1.28-7.54,15.23,15.23,0,0,1,1.82-3,15,15,0,0,1,1.23-1.41A8,8,0,0,0,303,183C303.17,182.79,302.94,182.3,302.63,182.45Z" style="opacity:0.1"></path><path d="M294.35,199.14c-1.13-4.32-6.6-6.74-13.75-7.27A18.68,18.68,0,0,0,262.81,201c-3.74,6.39-5.29,11.48-3,12.32s11.88,2.17,18.08,2.72,13.95-.57,19-5.28S300.27,200.13,294.35,199.14Z" style="fill:#e0e0e0"></path><path d="M294.62,198.57a19,19,0,0,0-7.73-.36,34.43,34.43,0,0,0-7.29,1.68,47.19,47.19,0,0,0-7.22,3.25c-1.21.66-2.4,1.36-3.56,2.11a25.26,25.26,0,0,0-3.2,2.21s0,.18,0,.15c1.17-.53,2.27-1.27,3.39-1.9s2.43-1.35,3.67-2a51.62,51.62,0,0,1,7.15-3,34.6,34.6,0,0,1,7.59-1.63,46.1,46.1,0,0,1,7.24.19C295.2,199.29,294.91,198.67,294.62,198.57Z" style="fill:#e0e0e0"></path><path d="M294.62,198.57a19,19,0,0,0-7.73-.36,34.43,34.43,0,0,0-7.29,1.68,47.19,47.19,0,0,0-7.22,3.25c-1.21.66-2.4,1.36-3.56,2.11a25.26,25.26,0,0,0-3.2,2.21s0,.18,0,.15c1.17-.53,2.27-1.27,3.39-1.9s2.43-1.35,3.67-2a51.62,51.62,0,0,1,7.15-3,34.6,34.6,0,0,1,7.59-1.63,46.1,46.1,0,0,1,7.24.19C295.2,199.29,294.91,198.67,294.62,198.57Z" style="opacity:0.1"></path><path d="M307.35,188.55c-4.91-3.91-3.27-13.27,13.93-13.77s29.47,4,28.93,9.52c2.76,2.76,1.36,10.52-12.56,12.94S303.81,198.45,307.35,188.55Z" style="fill:#e0e0e0"></path><path d="M342.12,184.36a73.84,73.84,0,0,0-15.36-.9,59.43,59.43,0,0,0-14.19,1.63,20.48,20.48,0,0,0-3.45,1.29,15.48,15.48,0,0,0-1.51.8c-.39.24-.83.45-1,.9a.47.47,0,0,0,.51.55,18.3,18.3,0,0,0,3-1.49,23.5,23.5,0,0,1,3-1.08,36.87,36.87,0,0,1,6-1.18,105.15,105.15,0,0,1,14.52-.8c2.82,0,5.64.25,8.45.48C342.17,184.56,342.2,184.37,342.12,184.36Z" style="fill:#e0e0e0"></path><path d="M342.12,184.36a73.84,73.84,0,0,0-15.36-.9,59.43,59.43,0,0,0-14.19,1.63,20.48,20.48,0,0,0-3.45,1.29,15.48,15.48,0,0,0-1.51.8c-.39.24-.83.45-1,.9a.47.47,0,0,0,.51.55,18.3,18.3,0,0,0,3-1.49,23.5,23.5,0,0,1,3-1.08,36.87,36.87,0,0,1,6-1.18,105.15,105.15,0,0,1,14.52-.8c2.82,0,5.64.25,8.45.48C342.17,184.56,342.2,184.37,342.12,184.36Z" style="opacity:0.1"></path></g></g><g id="freepik--Furniture--inject-3"><g id="freepik--Drawer--inject-3"><polygon points="75.21 334.07 71.21 353.93 67.32 356.18 63.46 353.95 59.42 334.07 67.32 329.51 75.21 334.07" style="fill:#e0e0e0"></polygon><polygon points="75.21 334.07 71.21 353.93 67.32 356.18 63.46 353.95 59.42 334.07 67.32 329.51 75.21 334.07" style="opacity:0.05"></polygon><polygon points="67.32 356.18 67.32 338.63 75.21 334.07 71.21 353.93 67.32 356.18" style="fill:#ebebeb"></polygon><polygon points="75.21 334.07 72.63 346.9 67.32 349.96 62.03 346.91 59.42 334.07 67.32 329.51 75.21 334.07" style="opacity:0.05"></polygon><polygon points="40.5 314.03 36.49 333.89 32.6 336.14 28.74 333.91 24.71 314.03 32.6 309.47 40.5 314.03" style="fill:#e0e0e0"></polygon><polygon points="40.5 314.03 36.49 333.89 32.6 336.14 28.74 333.91 24.71 314.03 32.6 309.47 40.5 314.03" style="opacity:0.05"></polygon><polygon points="32.6 336.14 32.6 318.59 40.5 314.03 36.49 333.89 32.6 336.14" style="fill:#ebebeb"></polygon><polygon points="40.5 314.03 37.91 326.86 32.6 329.92 27.31 326.87 24.71 314.03 32.6 309.47 40.5 314.03" style="opacity:0.05"></polygon><polygon points="177.9 274.78 173.9 294.64 170.01 296.89 166.15 294.66 162.11 274.78 170.01 270.22 177.9 274.78" style="opacity:0.05"></polygon><polygon points="170.01 296.89 170.01 279.34 177.9 274.78 173.9 294.64 170.01 296.89" style="fill:#ebebeb"></polygon><polygon points="177.9 274.78 175.32 287.61 170.01 290.67 164.72 287.62 162.11 274.78 170.01 270.22 177.9 274.78" style="opacity:0.05"></polygon><g id="freepik--Cabinet--inject-3"><g id="freepik--cabinet--inject-3"><polygon points="67.32 346.76 24.29 321.92 24.29 228.81 67.31 253.65 67.32 346.76" style="fill:#e0e0e0"></polygon><polygon points="67.31 253.65 180.14 188.5 180.14 281.62 67.32 346.76 67.31 253.65" style="fill:#ebebeb"></polygon><polygon points="180.14 188.5 67.31 253.65 24.29 228.81 137.12 163.67 180.14 188.5" style="fill:#f5f5f5"></polygon><polygon points="73.46 299.77 173.99 241.73 173.99 275.9 175.12 276.56 74.59 334.6 73.46 333.94 73.46 299.77" style="fill:#e0e0e0"></polygon><polygon points="74.59 300.43 175.12 242.38 175.12 276.56 74.59 334.6 74.59 300.43" style="fill:#f5f5f5"></polygon><path d="M122.92,279l8.36-4.83c1.09-.63,2-.34,2,.64a3.94,3.94,0,0,1-2,2.91l-8.36,4.83c-1.08.62-2,.34-2-.64A3.93,3.93,0,0,1,122.92,279Z" style="fill:#e0e0e0"></path><polygon points="73.46 258.51 173.99 200.47 173.99 234.64 175.12 235.29 74.59 293.33 73.46 292.68 73.46 258.51" style="fill:#e0e0e0"></polygon><polygon points="74.59 259.16 175.12 201.12 175.12 235.29 74.59 293.33 74.59 259.16" style="fill:#f5f5f5"></polygon><path d="M122.92,237.72l8.36-4.83c1.09-.63,2-.34,2,.64a3.94,3.94,0,0,1-2,2.91l-8.36,4.82c-1.08.63-2,.34-2-.63A3.93,3.93,0,0,1,122.92,237.72Z" style="fill:#e0e0e0"></path></g></g><g id="freepik--pot--inject-3"><path d="M133.89,191.3c5.22,3,5.22,7.89,0,10.9s-13.67,3-18.89,0-5.21-7.89,0-10.9S128.67,188.29,133.89,191.3Z" style="fill:#e0e0e0"></path><path d="M116.14,197.42c-4.54-4.63-7.21-16.2-2.78-19.88H135.9c4.43,3.68,1.77,15.24-2.77,19.88a1.59,1.59,0,0,0-.13.13l-.15.15c-.13.12-.27.25-.41.36l-.11.09-.35.26a6.24,6.24,0,0,1-.58.37,14.94,14.94,0,0,1-13.53,0h0c-.2-.11-.4-.24-.59-.37s-.22-.16-.32-.24l-.14-.11c-.14-.12-.27-.23-.39-.35l-.18-.18A.57.57,0,0,1,116.14,197.42Z" style="fill:#ebebeb"></path><path d="M133.94,176.06c5.15,3,5.15,7.78,0,10.75s-13.48,3-18.62,0-5.14-7.78,0-10.75S128.8,173.09,133.94,176.06Z" style="fill:#fafafa"></path><path d="M130.3,178.17c3.13,1.8,3.13,4.73,0,6.54a12.5,12.5,0,0,1-11.33,0c-3.13-1.81-3.13-4.74,0-6.54A12.5,12.5,0,0,1,130.3,178.17Z" style="fill:#f5f5f5"></path><path d="M119,181.27a12.56,12.56,0,0,1,11.33,0,5.08,5.08,0,0,1,1.87,1.72,5.08,5.08,0,0,1-1.87,1.72,12.5,12.5,0,0,1-11.33,0,5.2,5.2,0,0,1-1.88-1.72A5.2,5.2,0,0,1,119,181.27Z" style="fill:#ebebeb"></path><path d="M129.61,183a25.9,25.9,0,0,0,4.1-5.45c1.89-3.34,2.24-7.83,1.26-8.38s-5,3.92-5,3.92a24.69,24.69,0,0,0,.42-5.72c-.17-3-.9-5.68-1.75-6.23s-2.76,3.21-3.58,5.94-1.31,5-1.31,5a42.23,42.23,0,0,0-1.47-6.27c-1-2.83-1.89-3.47-2.59-3.19s-1.16,1.6-1.37,5.37a37.66,37.66,0,0,0,.17,5.39s-1.4-1.54-3-3-2.45-1.87-2.94-1.56-.62,2.88,2,7.67a26.8,26.8,0,0,0,5,6.59S123.34,185.36,129.61,183Z" style="fill:#e0e0e0"></path></g><g id="freepik--picture--inject-3"><g id="freepik--frame--inject-3"><polygon points="64.25 234.83 65.93 235.63 96.96 217.72 95.28 216.91 64.25 234.83" style="fill:#fafafa"></polygon><polygon points="95.28 216.91 65.77 233.95 61.47 189.8 90.99 172.77 95.28 216.91" style="fill:#fff"></polygon><path d="M95.05,167.12,58.32,188.33l5.06,52.07,36.74-21.21ZM97,217.72l-31,17.91L61.47,189.8l31-17.91Z" style="fill:#f0f0f0"></path><polygon points="96.96 217.72 95.28 216.91 90.99 172.77 92.5 171.89 96.96 217.72" style="fill:#e0e0e0"></polygon><polygon points="95.05 167.12 93.35 166.34 56.62 187.54 58.32 188.33 95.05 167.12" style="fill:#fafafa"></polygon><polygon points="56.62 187.54 58.32 188.33 63.38 240.4 61.68 239.62 56.62 187.54" style="fill:#e0e0e0"></polygon></g><g id="freepik--land--inject-3"><polygon points="93.98 216.07 66.77 231.78 66.05 224.35 71.11 202.5 75.94 209.95 74.94 216.23 82.98 193.05 93.26 208.64 93.98 216.07" style="fill:#f0f0f0"></polygon><path d="M70.69,193.3a3.84,3.84,0,0,0-1.8,3.36c.12,1.22,1.12,1.68,2.23,1a3.83,3.83,0,0,0,1.8-3.36C72.8,193.12,71.8,192.66,70.69,193.3Z" style="fill:#f0f0f0"></path></g></g></g></g><g id="freepik--Rack--inject-3"><g id="freepik--rack--inject-3"><polygon points="469.11 325.32 415.16 356.46 325.24 304.55 379.19 273.4 469.11 325.32" style="fill:#f5f5f5"></polygon><polygon points="415.16 356.46 415.16 360.62 325.24 308.7 325.24 304.55 415.16 356.46" style="fill:#ebebeb"></polygon><polygon points="469.11 325.32 415.16 356.46 415.16 360.62 469.11 329.47 469.11 325.32" style="fill:#e0e0e0"></polygon><polygon points="410.68 308.04 415.16 310.62 415.16 360.62 410.68 358.03 410.68 308.04" style="fill:#ebebeb"></polygon><polygon points="419.63 308.04 415.16 310.62 415.16 360.62 419.63 358.03 419.63 308.04" style="fill:#e0e0e0"></polygon><polygon points="374.75 226.02 379.23 228.6 379.23 278.6 374.75 276.02 374.75 226.02" style="fill:#f0f0f0"></polygon><polygon points="383.7 226.02 379.23 228.6 379.23 278.6 383.7 276.02 383.7 226.02" style="fill:#e0e0e0"></polygon><polygon points="469.11 279.48 464.63 282.07 464.63 332.06 469.11 329.48 469.11 279.48" style="fill:#e0e0e0"></polygon><polygon points="460.16 284.64 464.63 282.07 464.63 327.9 460.16 325.32 460.16 284.64" style="fill:#f0f0f0"></polygon><polygon points="325.25 258.71 329.72 261.3 329.72 311.3 325.25 308.71 325.25 258.71" style="fill:#ebebeb"></polygon><polygon points="334.2 263.87 329.72 261.3 329.72 307.13 334.2 304.55 334.2 263.87" style="fill:#e0e0e0"></polygon><polygon points="469.11 275.33 415.16 306.47 325.24 254.56 379.19 223.41 469.11 275.33" style="fill:#f5f5f5"></polygon><polygon points="415.16 306.47 415.16 310.63 325.24 258.71 325.24 254.56 415.16 306.47" style="fill:#ebebeb"></polygon><polygon points="469.11 275.33 415.16 306.47 415.16 310.63 469.11 279.48 469.11 275.33" style="fill:#e0e0e0"></polygon><polygon points="469.11 234 415.16 265.14 325.25 213.23 379.19 182.08 469.11 234" style="fill:#fafafa"></polygon><path d="M379.2,183.36,466.91,234l-51.75,29.87-87.71-50.64,51.75-29.87m0-1.28-53.95,31.15,89.91,51.91L469.11,234,379.2,182.08Z" style="fill:#e0e0e0"></path><polygon points="415.16 265.14 415.16 269.3 325.25 217.38 325.25 213.23 415.16 265.14" style="fill:#ebebeb"></polygon><polygon points="469.11 234 415.16 265.14 415.16 269.3 469.11 238.15 469.11 234" style="fill:#e0e0e0"></polygon><polygon points="410.68 266.7 415.16 269.29 415.16 310.63 410.68 308.04 410.68 266.7" style="fill:#ebebeb"></polygon><polygon points="419.63 266.7 415.16 269.29 415.16 310.63 419.63 308.04 419.63 266.7" style="fill:#e0e0e0"></polygon><polygon points="469.11 238.15 464.63 240.74 464.63 282.07 469.11 279.49 469.11 238.15" style="fill:#e0e0e0"></polygon><polygon points="460.16 243.31 464.63 240.74 464.63 277.91 460.16 275.33 460.16 243.31" style="fill:#f0f0f0"></polygon><polygon points="325.25 217.38 329.72 219.97 329.72 261.31 325.25 258.72 325.25 217.38" style="fill:#ebebeb"></polygon><polygon points="334.2 222.54 329.72 219.97 329.72 257.14 334.2 254.56 334.2 222.54" style="fill:#e0e0e0"></polygon><polygon points="410.68 358.03 415.16 360.61 415.16 378 410.68 375.42 410.68 358.03" style="fill:#ebebeb"></polygon><polygon points="419.63 358.03 415.16 360.61 415.16 378 419.63 375.42 419.63 358.03" style="fill:#e0e0e0"></polygon><polygon points="469.11 329.48 464.63 332.06 464.63 349.45 469.11 346.87 469.11 329.48" style="fill:#e0e0e0"></polygon><polygon points="460.16 334.63 464.63 332.06 464.63 349.45 460.16 346.87 460.16 334.63" style="fill:#f0f0f0"></polygon><polygon points="325.25 308.71 329.72 311.29 329.72 328.69 325.25 326.11 325.25 308.71" style="fill:#ebebeb"></polygon><polygon points="334.2 313.87 329.72 311.29 329.72 328.69 334.2 326.1 334.2 313.87" style="fill:#e0e0e0"></polygon></g></g><g id="freepik--Folders--inject-3"><g id="freepik--Files--inject-3"><path d="M451.78,230.63l-43.33,24.75a.84.84,0,0,1-.49.13,1,1,0,0,1-.51-.11l-53.76-31a.33.33,0,0,1,0-.61L397,199Z" style="fill:#e0e0e0"></path><path d="M356.89,223.67a1,1,0,0,0,.49.75l50.19,29a1,1,0,0,0,.9,0L447.64,231l-.05-1-51.1-29.5L357.3,222.91A1,1,0,0,0,356.89,223.67Z" style="fill:#455a64"></path><path d="M447.59,230l-39.17,22.37a.75.75,0,0,1-.44.12.87.87,0,0,1-.46-.1l-50.19-29a.3.3,0,0,1,0-.55l39.19-22.37Z" style="fill:#37474f"></path><path d="M447.59,230l.05,1-39.17,22.37a.93.93,0,0,1-.44.12l0-.95a.75.75,0,0,0,.44-.12Z" style="fill:#263238"></path><polygon points="447 230.43 395.88 200.94 395.24 188.43 446.36 218.07 447 230.43" style="fill:#455a64"></polygon><path d="M357.1,216.93a1.31,1.31,0,0,0-.5,1l.13,2.53a1.37,1.37,0,0,0,.61,1l50,28.83a1.17,1.17,0,0,0,1.12,0l33.14-20.23-.2-3.91-51.1-29.5Z" style="fill:#ebebeb"></path><path d="M390.26,196.69,357.1,216.93a.38.38,0,0,0,0,.69l50,28.83a1.2,1.2,0,0,0,1.12,0l33.14-20.24Z" style="fill:#fafafa"></path><path d="M437,226.59a1.22,1.22,0,0,0,.38.13,1.14,1.14,0,0,0,.61,0,.49.49,0,0,0,.18-.08c.3-.18.25-.51-.12-.72a1.35,1.35,0,0,0-.54-.15,1.05,1.05,0,0,0-.63.12.1.1,0,0,0-.06,0C436.62,226.12,436.68,226.39,437,226.59Z" style="fill:#263238"></path><path d="M407.67,246.57l.2,3.91a1.2,1.2,0,0,1-.57-.13l-50-28.82a1.43,1.43,0,0,1-.6-1L356.6,218A1.29,1.29,0,0,1,357,217c-.16.19-.11.42.16.58l50,28.82A1,1,0,0,0,407.67,246.57Z" style="fill:#e6e6e6"></path><path d="M442.73,221.07a2.12,2.12,0,0,0-2.31.18,8.17,8.17,0,0,0-2.91,5l.77.11a7.4,7.4,0,0,1,2.56-4.45,1.92,1.92,0,0,1,.94-.33,1.13,1.13,0,0,1,.6.16,3.25,3.25,0,0,1,1.05,2.75c.06,2.59-1.19,5.55-2.78,6.59a1.7,1.7,0,0,1-1.14.32l-.8.52.05,0a1.81,1.81,0,0,0,1,.27,2.52,2.52,0,0,0,1.32-.45c1.82-1.19,3.2-4.38,3.13-7.27C444.15,222.86,443.62,221.6,442.73,221.07Z" style="fill:#263238"></path><path d="M356.49,215.73a1,1,0,0,0,.48.74l50.2,29a.94.94,0,0,0,.89,0L447,218.54l-.05-.95-51.1-29.5L356.9,215A1,1,0,0,0,356.49,215.73Z" style="fill:#37474f"></path><path d="M447,217.59,408,244.47a1,1,0,0,1-.45.12.83.83,0,0,1-.45-.1l-50.19-29c-.26-.15-.27-.4,0-.55l39-26.88Z" style="fill:#455a64"></path><path d="M447,217.59l.05.95-38.93,26.88a.86.86,0,0,1-.45.11l-.05-.94a1,1,0,0,0,.45-.12Z" style="fill:#263238"></path><polygon points="447.59 230.04 446.96 217.61 446.36 218.07 447 230.43 447.59 230.04" style="fill:#263238"></polygon><path d="M445.49,217.43a.71.71,0,0,0,.39-.64c0-.23,0-1,0-1l-49.39-27.93a2.15,2.15,0,0,0-2.06,0L355.92,213,407,242.49Z" style="fill:#90CAF9"></path><path d="M445.49,217.43a.71.71,0,0,0,.39-.64c0-.23,0-1,0-1l-49.39-27.93a2.15,2.15,0,0,0-2.06,0L355.92,213,407,242.49Z" style="opacity:0.2"></path><path d="M445.44,216.48a.68.68,0,0,0-.06-1.26l-49-28.28a2.18,2.18,0,0,0-2.06,0l-38.47,25.07L407,241.55Z" style="fill:#90CAF9"></path><path d="M445.44,216.48a.68.68,0,0,0-.06-1.26l-49-28.28a2.18,2.18,0,0,0-2.06,0l-38.47,25.07L407,241.55Z" style="opacity:0.5"></path><path d="M364.69,205.52,393.17,187a2.18,2.18,0,0,1,2.06,0l45.47,26.26,3.71-2.44.24,4.81-.07.05a.65.65,0,0,1-.31.86l-32.61,21.25-51.12-29.49-.27-5.26Z" style="fill:#ebebeb"></path><path d="M444,211.22a.68.68,0,0,0-.06-1.26l-49-28.28a2.18,2.18,0,0,0-2.06,0L360.27,203l51.12,29.5Z" style="fill:#fafafa"></path><polygon points="411.39 232.47 411.65 237.72 360.54 208.23 360.27 202.97 411.39 232.47" style="fill:#e6e6e6"></polygon><path d="M410.74,230.42a1.21,1.21,0,0,0,.39.14,1.1,1.1,0,0,0,.6,0,.46.46,0,0,0,.19-.08c.3-.18.24-.51-.12-.71a1.3,1.3,0,0,0-.55-.16,1,1,0,0,0-.63.13s-.05,0-.06,0C410.33,230,410.4,230.23,410.74,230.42Z" style="fill:#263238"></path><path d="M405.76,234.63a3.13,3.13,0,0,0,.61,1.81,1.84,1.84,0,0,0,1.51.71h0a2.51,2.51,0,0,0,1.4-.48l.25-.16-.6-.35c-1.36.86-2.51.17-2.6-1.54a5.88,5.88,0,0,1,2.31-4.73,1.59,1.59,0,0,1,1.9-.13,1.5,1.5,0,0,1,.57.8,1.1,1.1,0,0,0,.6,0,2.37,2.37,0,0,0-.48-.95,1.86,1.86,0,0,0-1.51-.7,2.62,2.62,0,0,0-1.41.48A6.41,6.41,0,0,0,405.76,234.63Z" style="fill:#263238"></path><path d="M407,229.64l38.48-21.24,0,.69a1.19,1.19,0,0,1-.46,1l-38,20.54Z" style="fill:#90CAF9"></path><path d="M407,229.64l38.48-21.24,0,.69a1.19,1.19,0,0,1-.46,1l-38,20.54Z" style="opacity:0.2"></path><path d="M445.06,209a.68.68,0,0,0-.06-1.26L396,179.5a2.15,2.15,0,0,0-2.06,0l-38.67,21L406.4,230Z" style="fill:#90CAF9"></path><polygon points="407.04 242.49 355.92 213 355.29 200.49 406.4 230 407.04 242.49" style="fill:#90CAF9"></polygon><polygon points="407.04 242.49 355.92 213 355.29 200.49 406.4 230 407.04 242.49" style="opacity:0.1"></polygon><path d="M397.59,234.63a1.73,1.73,0,0,0,1.44-.77,2.9,2.9,0,0,0,.43-1.83,7,7,0,0,0-3.11-5.17,2.74,2.74,0,0,0-1.46-.43c-1.19,0-1.95,1.06-1.87,2.6a6.94,6.94,0,0,0,3.11,5.17,2.77,2.77,0,0,0,1.46.43Z" style="fill:#455a64"></path><path d="M398.87,232.05c.09,1.72-1,2.44-2.47,1.6a6.26,6.26,0,0,1-2.78-4.63c-.09-1.73,1-2.45,2.46-1.61A6.32,6.32,0,0,1,398.87,232.05Z" style="fill:#f5f5f5"></path><path d="M389.31,225.93l.05.95c.09,1.89-1.12,2.68-2.71,1.76l-24.34-14a7,7,0,0,1-3.06-5.09l0-.95c-.1-1.89,1.11-2.68,2.7-1.76l24.34,14.05A7,7,0,0,1,389.31,225.93Z" style="fill:#f5f5f5"></path><polygon points="407.63 242.11 407 229.68 406.4 230 407.04 242.49 407.63 242.11" style="fill:#90CAF9"></polygon><polygon points="407.63 242.11 407 229.68 406.4 230 407.04 242.49 407.63 242.11" style="opacity:0.2"></polygon></g></g><g id="freepik--Briefcase--inject-3"><g id="freepik--briefcase--inject-3"><path d="M87.07,354.8h3.25v-10a12,12,0,0,0-5.51-9.54L67.35,325.21a4.38,4.38,0,0,0-7,4.15l.31,10.21,3.25-.07-.3-10.21c0-.8.17-1.41.5-1.6s1-.07,1.64.33L83.19,338.1a8.75,8.75,0,0,1,3.88,6.73Z" style="fill:#37474f"></path><path d="M32.36,391.47l3.49-64.32A5.67,5.67,0,0,1,38.39,323l2-1.16a1.7,1.7,0,0,1,1.77-.14h0l67.21,38.81-9.25,71.25L33,393h0A1.59,1.59,0,0,1,32.36,391.47Z" style="fill:#37474f"></path><path d="M111.87,425.74l-10.14,5.86c-1.32.76-2.32.15-2.23-1.37L103,365.91a5.66,5.66,0,0,1,2.53-4.12l2-1.16a1.54,1.54,0,0,1,2.52,1.37l4.07,59.62A4.91,4.91,0,0,1,111.87,425.74Z" style="fill:#263238"></path><path d="M76.5,412.24a.93.93,0,0,0,.92-.86l1.78-30.14a.92.92,0,0,0-1.84-.11l-1.78,30.14a.92.92,0,0,0,.87,1Z" style="fill:#90CAF9"></path><path d="M50.76,397.45a.93.93,0,0,0,.92-.86l1.77-30.14a.92.92,0,0,0-.86-1,.94.94,0,0,0-1,.87l-1.78,30.13a.92.92,0,0,0,.87,1Z" style="fill:#90CAF9"></path><path d="M94.3,395.6a4.88,4.88,0,0,0,7.3-4L103,365.9a5.68,5.68,0,0,1,2.55-4.11l2-1.15a1.78,1.78,0,0,1,1.64-.23l-67-38.69v0a1.65,1.65,0,0,0-1.76.13l-2,1.16a5.7,5.7,0,0,0-2.53,4.13l-1.36,25.41A13.44,13.44,0,0,0,41.19,365Z" style="fill:#455a64"></path><polygon points="70.78 379.09 61.04 373.48 60.63 378.87 70.39 384.5 70.78 379.09" style="fill:#90CAF9"></polygon></g></g><g id="freepik--Character--inject-3"><g id="freepik--Chair--inject-3"><path d="M259.58,357.16l-13.42-77.41-8.49-.43,17.64,77.83h0a1.13,1.13,0,0,0,.56.76,3.37,3.37,0,0,0,3,.15,1,1,0,0,0,.66-.9Z" style="fill:#263238"></path><path d="M133.34,267h-8.5l-20,80.41h0a1,1,0,0,0,.62.93,3.31,3.31,0,0,0,3,0,1.12,1.12,0,0,0,.6-.73h0Z" style="fill:#37474f"></path><path d="M192.14,394.05l-.38-86.7-8.49-.43L187.86,394h0a1.16,1.16,0,0,0,.57.77,3.35,3.35,0,0,0,3,.15,1,1,0,0,0,.67-.9Z" style="fill:#37474f"></path><path d="M179.74,240.06h-8.5l-13.61,85.43h0a1,1,0,0,0,.62.93,3.31,3.31,0,0,0,3,0,1.12,1.12,0,0,0,.6-.73h0Z" style="fill:#263238"></path><g id="freepik--chair--inject-3"><path d="M108.87,173.13a48.14,48.14,0,0,0-3.4,14.93c-1,11.44,2.91,48.49,5.23,65.05h0c3.37,27.68,7.49,27.73,13.49,32.37,10.32,8,40,23.59,49.79,27.45,17.76,7,32.28-3.79,43.1-9.14a249,249,0,0,0,28.67-17c2.71-2,4.11-4,4.08-6.05,0-.83,0-4.23,0-5.11,0-2.67-2.36-5.54-7.33-8.76-9.17-5.95-42.32-25.29-55.17-32.4a.13.13,0,0,0-.1-.11c-9.89-6-15.84-46.79-22.68-68.49-.15-.46-.29-.91-.44-1.34s-.24-.69-.36-1a34.66,34.66,0,0,0-1.35-3.25" style="fill:#90CAF9"></path><path d="M249.83,275.64c0-2.67-2.36-5.54-7.33-8.76-9.17-5.95-42.32-25.29-55.17-32.4a.13.13,0,0,0-.1-.11c-9.89-6-15.84-46.79-22.68-68.49-.07-.2-.55-1.87-1.44-4l-.12-.29c-.12-.29-.25-.58-.39-.88-.07-.15-.13-.3-.2-.44h0a21,21,0,0,0-4.57-6.6,10.35,10.35,0,0,0-2.24-1.57c-1.11-.63-3.45-1.93-4-2.27-6.72-4-15.52.8-26.5,6.81-6.82,3.75-12.65,8.19-16.19,16.48h0a48.14,48.14,0,0,0-3.4,14.93c-1,11.44,2.91,48.49,5.23,65.05h0c3.37,27.68,7.49,27.73,13.49,32.37,10.32,8,40,23.59,49.79,27.45,17.76,7,32.28-3.79,43.1-9.14a249,249,0,0,0,28.67-17c2.71-2,4.11-4,4.08-6.05C249.81,279.92,249.83,276.52,249.83,275.64Z" style="fill:#90CAF9"></path><path d="M249.83,275.64c0-2.67-2.36-5.54-7.33-8.76-9.17-5.95-42.32-25.29-55.17-32.4a.13.13,0,0,0-.1-.11c-9.89-6-15.84-46.79-22.68-68.49-.07-.2-.55-1.87-1.44-4l-.12-.29c-.12-.29-.25-.58-.39-.88-.07-.15-.13-.3-.2-.44h0a21,21,0,0,0-4.57-6.6,10.35,10.35,0,0,0-2.24-1.57c-1.11-.63-3.45-1.93-4-2.27-6.72-4-15.52.8-26.5,6.81-6.82,3.75-12.65,8.19-16.19,16.48h0a48.14,48.14,0,0,0-3.4,14.93c-1,11.44,2.91,48.49,5.23,65.05h0c3.37,27.68,7.49,27.73,13.49,32.37,10.32,8,40,23.59,49.79,27.45,17.76,7,32.28-3.79,43.1-9.14a249,249,0,0,0,28.67-17c2.71-2,4.11-4,4.08-6.05C249.81,279.92,249.83,276.52,249.83,275.64Z" style="fill:#fff;opacity:0.25"></path><path d="M217.07,298.64a251.71,251.71,0,0,0,28.67-17c6.16-4.47,5.59-9-3.23-14.77-12.26-7.95-62.23-36.3-62.23-36.3s-63.17,37.28-60.45,44.16,41.82,28.18,54.14,33C191.73,314.76,206.25,304,217.07,298.64Z" style="fill:#90CAF9"></path><path d="M217.07,298.64a251.71,251.71,0,0,0,28.67-17c6.16-4.47,5.59-9-3.23-14.77-12.26-7.95-62.23-36.3-62.23-36.3s-63.17,37.28-60.45,44.16,41.82,28.18,54.14,33C191.73,314.76,206.25,304,217.07,298.64Z" style="fill:#fff;opacity:0.6000000000000001"></path><path d="M155.59,152.11c-6.65-3.49-15.29,1.25-26,7.11-6.85,3.75-12.68,8.2-16.23,16.52l-4.51-2.61c3.54-8.29,9.37-12.73,16.19-16.48,11-6,19.78-10.83,26.5-6.81C152.14,150.18,154.48,151.48,155.59,152.11Z" style="fill:#90CAF9"></path><path d="M155.59,152.11c-6.65-3.49-15.29,1.25-26,7.11-6.85,3.75-12.68,8.2-16.23,16.52l-4.51-2.61c3.54-8.29,9.37-12.73,16.19-16.48,11-6,19.78-10.83,26.5-6.81C152.14,150.18,154.48,151.48,155.59,152.11Z" style="fill:#fff;opacity:0.5"></path><path d="M164.55,165.88c-.15-.46-2.43-8.42-6.72-12.2a10.84,10.84,0,0,0-7.27-2.77c-5.81,0-12.78,3.84-20.95,8.31-.69.38-1.36.76-2,1.15l-.76.46c-.31.18-.61.37-.91.56s-.44.28-.66.44a38,38,0,0,0-4.11,3.12,8.37,8.37,0,0,0-.62.57,28.22,28.22,0,0,0-2.34,2.42l-.39.46c-.15.2-.32.39-.46.58s-.3.39-.45.6-.29.39-.44.6a30.6,30.6,0,0,0-1.63,2.62c-.07.11-.13.23-.19.34s-.26.49-.39.74l-.53,1.1a47.36,47.36,0,0,0-3.7,15.64c-1.58,18.8,4.86,80.91,11.32,86.27,0,0-1-6.08,12-14.26,8.83-5.56,15-10.23,24.47-14.85,23-11.29,29.42-13.41,29.42-13.41C177.34,228.37,171.39,187.58,164.55,165.88Z" style="fill:#90CAF9"></path><path d="M164.55,165.88c-.15-.46-2.43-8.42-6.72-12.2a10.84,10.84,0,0,0-7.27-2.77c-5.81,0-12.78,3.84-20.95,8.31-.69.38-1.36.76-2,1.15l-.76.46c-.31.18-.61.37-.91.56s-.44.28-.66.44a38,38,0,0,0-4.11,3.12,8.37,8.37,0,0,0-.62.57,28.22,28.22,0,0,0-2.34,2.42l-.39.46c-.15.2-.32.39-.46.58s-.3.39-.45.6-.29.39-.44.6a30.6,30.6,0,0,0-1.63,2.62c-.07.11-.13.23-.19.34s-.26.49-.39.74l-.53,1.1a47.36,47.36,0,0,0-3.7,15.64c-1.58,18.8,4.86,80.91,11.32,86.27,0,0-1-6.08,12-14.26,8.83-5.56,15-10.23,24.47-14.85,23-11.29,29.42-13.41,29.42-13.41C177.34,228.37,171.39,187.58,164.55,165.88Z" style="fill:#fff;opacity:0.4"></path></g></g><g id="freepik--character--inject-3"><g id="freepik--Bottom--inject-3"><path d="M203.81,331c-2.43,5.56-5.11,11.64-5.11,11.64a6.36,6.36,0,0,0,2.18,5.45l7.5-11Z" style="fill:#263238"></path><polygon points="200.88 348.05 216.33 352.88 221.04 345.23 208.38 337.04 200.88 348.05"></polygon><path d="M213.46,316.81a1.33,1.33,0,0,1,1.92-.72l-.56,1.28a16.43,16.43,0,0,0,6.77,6.89c7.31,4.24,9.58,2.46,10.08,2.05,0,0,.43-.85.67-1.43.74.26,1.2.6.42,2.27-.19.4-1.55,4.69-1.71,5.52a41.81,41.81,0,0,0-2,10.19,45.46,45.46,0,0,0,.58,12.29c2,11.43,3.72,14.22,4.08,17.94.54,5.64-6.49,7-16.69.65-6.73-4.21-12-11.36-12.34-15.63s2.92-12.91,2.48-16.14-3.41-6-3.38-11c3-6.74,5-7.15,7.26-10.08A14.11,14.11,0,0,0,213.46,316.81Z" style="fill:#37474f"></path><path d="M232.34,324.88l5.51-14-19.06-9.79-3.41,15-.56,1.28s-.89,4.73,5.11,8.66,11.14,1.32,11.74.28Z" style="fill:#c8856a"></path><path d="M199.84,211.36c5,3.47,10.3,6.6,22.81,14.76,12.23,8,29.65,18.21,34.06,26,4,7,3.22,14-.92,25.73s-21.55,46.76-21.55,46.76c-8.23-3-14.65-7.24-18.48-13.12,0,0,2.84-21.66,5.6-28.89,2.16-5.67,4.32-7.53,4.32-7.53L181.79,260l-10.72-22.83C173,224.36,187.53,215.23,199.84,211.36Z" style="fill:#37474f"></path><path d="M234.24,324.64c-8.12-2.91-14.47-7.14-18.48-13.12,0,0,2.84-21.66,5.6-28.89a28.1,28.1,0,0,1,2.65-5.4c4,4.39,6.37,6.82,9.38,18.38,1.36,5.23,3.16,13.57,4.71,21.12C234.25,324.67,234.24,324.64,234.24,324.64Z" style="fill:#263238"></path><path d="M198.6,227.64c2.7,12-1.06,20.82-1.06,20.82l24.07,25.24L181.79,260Z" style="fill:#263238"></path><path d="M217.32,234.66c5.56,2.78,18.54,12.35,21.46,14.64a65.38,65.38,0,0,1,8.64,7.7,17,17,0,0,1,2.57,3.56,5.88,5.88,0,0,1,.64,1.89,12.79,12.79,0,0,1,0,2.15,47,47,0,0,1-1.71,8.93c-.79,3-1.73,5.91-2.69,8.85q-3,8.81-6.19,17.56a162.59,162.59,0,0,0,7.65-17q1.68-4.36,3-8.87a45,45,0,0,0,1.85-9.33,14,14,0,0,0-.07-2.5,7.78,7.78,0,0,0-.85-2.5,17,17,0,0,0-2.93-3.93,63.94,63.94,0,0,0-8.88-7.64C234.68,244.24,223.17,236.78,217.32,234.66Z" style="fill:#263238"></path><path d="M272.7,403.23c-.94-1-8-7.22-9.11-8.42-5.26-5.51-11.75-18.59-14-25.15-1.18-3.44-2.75-9-5.46-18.66h0s-15-58.23-18.39-66.9-35.53-33.75-35.53-33.75,8.34-12.15,6.83-36.25c-22.17,8.35-43.49,11.88-64.12,10.67a71,71,0,0,0,4.39,31.14c3.92,10.23,15.43,18.19,30.13,25.84,12.17,6.34,28.57,15.14,32,17,3,1.6,4.91,3.67,5.63,10.18.74,6.74,1.1,18,13.8,38.65,4.47,8.17,9.19,21.87,10.75,26.47l.34,2.4a6.57,6.57,0,0,0,1.82,4.12c1.11,1.24,2.28,2.4,3.52,3.54,3.29,3,9.6,9.93,13.94,14.88,6.25,7.13,13.64,8.42,20.31,7.94S273.53,404.1,272.7,403.23Z" style="fill:#c8856a"></path><path d="M230.26,394.18c1.8,6.23,3.76,13.08,3.76,13.08a6.81,6.81,0,0,0,5.52,3l-1.36-14.2Z" style="fill:#263238"></path><polygon points="239.54 410.26 255.57 403.67 254.21 394.14 238.18 396.06 239.54 410.26"></polygon><path d="M228.53,375.93c-.51-1.38.77-1.77,1.09-1.91l.42,1.44a17.62,17.62,0,0,0,10.28,1c8.91-1.51,9.57-4.53,9.7-5.21,0,0-.23-1-.42-1.63.78-.29,1.39-.33,1.89,1.58.12.45,1.93,4.92,2.37,5.71a44.76,44.76,0,0,0,5.35,9.75,48.9,48.9,0,0,0,8.88,9.72c9.46,8.05,12.8,9.16,15.63,12,4.31,4.28-.53,10.23-13.29,12-8.43,1.13-17.64-1.16-20.86-4.43s-6.43-12.63-9-15-6.93-2.64-10.31-6.75c-2.14-7.61-.78-9.3-.92-13.27A14.93,14.93,0,0,0,228.53,375.93Z" style="fill:#37474f"></path><path d="M130.9,223.35c-1.33,4.31-3.41,14.33-2.36,22.74s2.13,18,19.56,29.47c14.49,9.53,47.67,29.09,49.39,32.06s5.7,20.82,9.48,27.73c7,12.83,19.64,31.14,19.64,31.14,8.53,1.15,16.13-1,20.6-5.45,0,0-8.45-32.62-11.88-46.41-5.88-23.59-7.08-31-12.3-36.51s-7-7.21-7-7.21l-23.86-21.73s4.08-6.75,6-18.19a60.71,60.71,0,0,0,.12-17.79S157.14,228.35,130.9,223.35Z" style="fill:#37474f"></path><path d="M146.26,251.83l-.21-.41c-5.38-6.67-4.77-13.67-4-22.81.14-1.54.27-3.15.38-4.8l1,.08c-.11,1.66-.24,3.26-.38,4.81-.76,8.74-1.33,15.46,3.53,21.78,6.22-4.13,3.75-14.72,2.23-21.15-.25-1.07-.48-2-.64-2.83l1-.18c.16.79.38,1.73.63,2.78,1.57,6.68,4.16,17.66-2.56,22.17a26.17,26.17,0,0,0,3,3c5.84,5,20.35,15.39,33.15,24.55,10.11,7.23,18.84,13.47,20.82,15.32,2.49,2.33,4.55,9.92,7.15,19.53,2.13,7.88,4.55,16.81,7.72,24.63a132.54,132.54,0,0,0,16,27.91c-.38,0-.77.05-1.16.06a132.31,132.31,0,0,1-15.76-27.61c-3.2-7.87-5.62-16.83-7.76-24.74-2.46-9.08-4.58-16.93-6.88-19.07-1.93-1.8-10.64-8-20.72-15.24-12.82-9.17-27.34-19.56-33.22-24.6a28.31,28.31,0,0,1-3.19-3.21Z" style="fill:#263238"></path><path d="M160,228.14a32.51,32.51,0,0,0,1.37,9.27,46.72,46.72,0,0,0,3.51,8.73A49.91,49.91,0,0,0,170,254a41.88,41.88,0,0,0,6.58,6.66c-1.86-2.51-3.66-5-5.35-7.55s-3.24-5.18-4.64-7.88a80.9,80.9,0,0,1-3.8-8.31A78.22,78.22,0,0,1,160,228.14Z" style="fill:#263238"></path><path d="M157.88,228.43a30.86,30.86,0,0,0-1.07,7.88,51.54,51.54,0,0,0,.51,7.95A55.7,55.7,0,0,0,159,252a31.43,31.43,0,0,0,3.09,7.32c-.63-2.57-1.14-5.12-1.61-7.68s-.92-5.11-1.27-7.68-.68-5.14-.92-7.72S157.94,231.09,157.88,228.43Z" style="fill:#263238"></path><path d="M201.73,267.79c3.65,3.91,7.44,7.69,11.05,11.57a78.48,78.48,0,0,1,5.13,6,26.74,26.74,0,0,1,3.83,6.68c.85,2.45,1.7,5,2.5,7.54l2.48,7.6q2.46,7.62,5.2,15.16-1.57-7.87-3.69-15.61c-1.42-5.16-2.88-10.26-4.69-15.37a26.22,26.22,0,0,0-4.22-7.09,62.11,62.11,0,0,0-5.49-6C210,274.6,205.86,271.18,201.73,267.79Z" style="fill:#263238"></path><path d="M246.36,357.76c-2.7,3.5-16.64,7.94-21.91,6.3l3.29,6.25s3.6,1.23,11.74-.63,8.65-5.24,8.65-5.24Z" style="fill:#263238"></path></g><g id="freepik--Top--inject-3"><g id="freepik--Arm--inject-3"><path d="M246.35,120.19c1.27-1.66,1.9-3.07,1.52-4.44a15.52,15.52,0,0,1-3-1.74s-.56.12-2.62.37-2.93-.18-3.7-1-.27-1.76,1.1-2.27,4.22-1.67,4.93-1.85,7.44,3.19,8.17,4.22.54,8-1.14,11.25-15.05,11.1-15.05,11.1-4.64,7-3.71,4.65c1.28-3.21-.31-8.5.39-15.29.31-3,1.42-8.6,1.55-10.79.15-2.48.67-2.93,1.89-2.44s2.33,1,2.25,6.31c-.08,4.78,1,4.75,2.05,4.64C242.46,122.78,246.35,120.19,246.35,120.19Z" style="fill:#c8856a"></path><path d="M251.66,112.63c-.07,1.34-.61,5.94-1.47,7.88a36.41,36.41,0,0,0,.48-8.47Z" style="fill:#af6152"></path><path d="M250,121c.54-1.43,1.34-4,1.35-9.15,0-6.49-.26-8.35.61-11.27,1-3.26,3.3-3.45,3.86-2.6s1.12,8.83,1.12,8.83,1.18,8.16-1,12.06A4.54,4.54,0,0,1,250,121Z" style="fill:#c8856a"></path><path d="M256.9,105.89s-.19-2.37-.35-3.8c-1.49,1.11-2.14,4-2.41,8-.25,3.71,0,8-2.45,12.18,0,0,1,1.18,2.54-4.4C255.43,113.59,255.91,108.58,256.9,105.89Z" style="fill:#af6152"></path><path d="M259.67,110.41a38.87,38.87,0,0,1,.8-6.84c.16-1.29-2.27-1.15-4,1.6s-1.79,5.73-2,9a14.23,14.23,0,0,1-5,10.25s4.14,2.07,6.62-1.86A20,20,0,0,0,259.67,110.41Z" style="fill:#c8856a"></path><path d="M259.67,110.51v-.1a14.59,14.59,0,0,1,.1-2.35c-1.84.55-3.07,3.26-3.38,6s-.21,4-.7,5.19-4,5.22-4,5.22a9.68,9.68,0,0,0,3.76-2c1.25-1.3,3.35-9.46,3.35-9.46Z" style="fill:#af6152"></path><path d="M220.12,189.51c13,6.94,16.38,2.73,20.66-14.31,3.24-12.85,5.55-29,7-32.88a22.29,22.29,0,0,1,4-7.22c2.19-2.8,5.76-8.24,7.59-10.69a10.51,10.51,0,0,0,2.14-7.13c-.06-1.12.13-7.72-.45-7.77-1.17-.1-2.92-.08-3.84,3.74-.47,1.93-.41,4.81-.9,6.22a17.81,17.81,0,0,1-5.41,5.19c-3.07,2-6.16-1.62-10.29,2.14a18.42,18.42,0,0,0-5.1,7.17c-1.45,4.38-13.26,28.52-13.26,28.52s-1.34-1.47-11.86-11.69c-7.95-7.73-10.77-10.63-16-14.63S181,132.25,181,132.25l.83,31.51s6.25,4.33,13.53,9.17C205.78,179.81,211.19,184.74,220.12,189.51Z" style="fill:#c8856a"></path><path d="M222.21,162.49a44.59,44.59,0,0,0-3,18.84s-4-8.84,1-20.93Z" style="fill:#af6152"></path><path d="M248.08,123.72l-1.9.34a19.3,19.3,0,0,0-2.34.64,12.45,12.45,0,0,0-3.47,1.75,7,7,0,0,0-2.26,2.92,15.74,15.74,0,0,0-.75,4.15c0,.06.06.12.09,0a33.05,33.05,0,0,1,1.69-3.68,7.43,7.43,0,0,1,2.31-2.87,18.13,18.13,0,0,1,3.48-1.78,20.39,20.39,0,0,0,3.37-1.34c.08-.06.18-.16.13-.25Z" style="fill:#af6152"></path></g><g id="freepik--Chest--inject-3"><g id="freepik--chest--inject-3"><path d="M129.58,178.1c-2.84-13.87-1.12-29,5.23-39.61,5.75-1.73,13.2-4,13.2-4s12.27-1.88,22.37-2.29l10.66.09c6.31,5.44,20.83,18.62,24.19,28.86a20.26,20.26,0,0,1-8.13,22.66,78.94,78.94,0,0,0,.74,15.51s5.51,6.88,6.12,14.36c-2.25,11.5-13,21.79-40.62,23.75-23,1.64-33.7-8.78-33.7-8.78-3.4-4,3.46-19.89,3-28.22A142.55,142.55,0,0,0,129.58,178.1Z" style="fill:#f0f0f0"></path><path d="M174.62,186.89s-6.32,7-18,5c-12.05-2-13.85-12.21-13.85-12.21s-1.25,13.14,13.15,15.57C169.19,197.49,174.62,186.89,174.62,186.89Z" style="fill:#e0e0e0"></path></g></g><g id="freepik--Head--inject-3"><path d="M138.83,77.1a12.3,12.3,0,0,1,6.47-4c2.42-.59,3.91-.55,6.22-1.48s4.09-2.41,6.28-3.33c4.82-2,10.62-.72,14.74,2.48,1.83,1.42,3.53,3.25,5.81,3.6a23,23,0,0,0,3.42,0c3.6,0,6.93,2.36,8.82,5.43a18.55,18.55,0,0,1,2.49,8c.28,2.79-.7,5.39-.54,8.16.12,2,1.38,3.84,2.62,5.38,1.66,2.07,3,3.66,3.84,6.29a12.74,12.74,0,0,1,.59,6.26,6.33,6.33,0,0,1-3.76,4.77c.75-2-.36-4.72-1.61-6.42.46,1.86.73,6.48-4,10.47-3.32,2.8-8.12,3.85-12.52,3.84-4.61,0-9.27-1.6-13.85-.42a38,38,0,0,0-3.7,1.33,33.13,33.13,0,0,1-6.5,1.72c-2.12.34-4.28.17-6.38.46a13.79,13.79,0,0,1-9.87-2.37,15.49,15.49,0,0,1-5.92-12.14,7.14,7.14,0,0,0-1.43,3.45,10.08,10.08,0,0,1-2-8.91c.65-2.41,2.2-4.57,2.39-7,.17-2.15-.71-4.24-.93-6.38a11,11,0,0,1,7.86-11.38A10.16,10.16,0,0,1,138.83,77.1Z" style="fill:#263238"></path><path d="M139.47,103.5c2.94-1.22,5.5-.19,7.18,2.89,1.47,2.68,4.36,1.63,3.54-2.57,6.51-6.57-1.39-10.41,3.95-16.73,3.32-3.94,10.7-3.13,13.71-.81a7.2,7.2,0,0,1,8.23-3.58c3.12,1,5.14,2.78,6.74,7,1.68,4.42.11,5.31,1,8.43.33,1.22,1.62,3.58,1.77,6.69.68,14.75-2.28,18.57-5.46,21.09-2.19,1.73-5,2.7-9.88,2.89l.35,6.91A46.68,46.68,0,0,1,179.27,159a142.68,142.68,0,0,1-18.14-11.41,68.88,68.88,0,0,1-13-12.17l-1-19h0c-.63,1.7-4,3.65-7.54.93C135.08,113.92,134.27,105.66,139.47,103.5Z" style="fill:#c8856a"></path><path d="M181.18,95.94l-4.79-1.79a2.44,2.44,0,0,1,3.2-1.55A2.69,2.69,0,0,1,181.18,95.94Z" style="fill:#263238"></path><path d="M163.83,95.2l-4.5,2.41a2.45,2.45,0,0,1,.95-3.43A2.68,2.68,0,0,1,163.83,95.2Z" style="fill:#263238"></path><polygon points="169.14 98.29 172.51 112.14 179.52 108.05 169.14 98.29" style="fill:#af6152"></polygon><path d="M172.26,115.66c-.44-.25-1-.1-1.53-.13a8.42,8.42,0,0,1-1.2-.22,5.77,5.77,0,0,1-2-1,.61.61,0,0,0-.67-.09.37.37,0,0,0-.18.21v.11a.29.29,0,0,0,0,.1s0,0,0,.09a.46.46,0,0,0,.11.22,1.87,1.87,0,0,0,.32.31,4.32,4.32,0,0,0,.58.36,7.37,7.37,0,0,0,1.34.54,5.61,5.61,0,0,0,3.22,0,.3.3,0,0,0,.16-.22V116A.32.32,0,0,0,172.26,115.66Z" style="fill:#874c4c"></path><path d="M169.31,117.62l-.16,0-.2,0-.23,0a2.09,2.09,0,0,1-.43-.11c-.14,0-.27-.12-.4-.18a.88.88,0,0,0-.26-.12c-.2,0-.2.2-.13.33a1,1,0,0,0,.31.27l.2.12a4.22,4.22,0,0,0,.45.18,3.2,3.2,0,0,0,.42.1.88.88,0,0,0,.28,0,.5.5,0,0,0,.27,0C169.6,118,169.45,117.67,169.31,117.62Z" style="fill:#af6152"></path><path d="M165.34,102.34c.07,1.17-1.07-.25-2.41-.17s-2.37,1.64-2.44.46a2.45,2.45,0,0,1,4.85-.29Z" style="fill:#263238"></path><path d="M181,100.9c.07,1.18-1.07-.25-2.41-.16s-2.37,1.64-2.44.46a2.45,2.45,0,0,1,4.85-.3Z" style="fill:#263238"></path><path d="M170.2,128.81c-4.74-.15-15.1-1.89-19.15-7.09,0,0,.53,3.84,7.81,7.18,4.81,2.21,11.47,2.44,11.47,2.44Z" style="fill:#af6152"></path></g><g id="freepik--arm--inject-3"><path d="M85.87,144.47c-1.25-1.68-1.86-3.09-1.45-4.46a15.4,15.4,0,0,0,3-1.68s.56.13,2.62.42,2.93-.14,3.72-.92.3-1.76-1.06-2.3-4.19-1.73-4.9-1.92-7.5,3.06-8.25,4.07-.67,8,1,11.27S95.4,160.31,95.4,160.31,99.92,167.37,99,165c-1.22-3.23.46-8.49-.12-15.3-.26-3-1.27-8.62-1.37-10.81-.11-2.49-.62-2.95-1.85-2.47s-2.35,1-2.35,6.27c0,4.78-1,4.73-2.14,4.6C89.71,147.14,85.87,144.47,85.87,144.47Z" style="fill:#c8856a"></path><path d="M80.68,136.83c0,1.34.51,5.95,1.33,7.91a36.46,36.46,0,0,1-.33-8.48Z" style="fill:#af6152"></path><path d="M82.17,145.19c-.52-1.43-1.27-4-1.19-9.16.09-6.49.4-8.35-.43-11.29-.91-3.27-3.24-3.5-3.81-2.66s-1.26,8.81-1.26,8.81S74.15,139,76.26,143A4.53,4.53,0,0,0,82.17,145.19Z" style="fill:#c8856a"></path><path d="M75.56,130s.23-2.36.41-3.8c1.48,1.15,2.07,4,2.27,8.1.19,3.72-.17,8,2.25,12.22,0,0-1,1.16-2.47-4.45C76.9,137.72,76.5,132.71,75.56,130Z" style="fill:#af6152"></path><path d="M72.71,134.47a38.76,38.76,0,0,0-.68-6.85c-.14-1.3,2.29-1.11,3.92,1.66s1.69,5.77,1.84,9a14.24,14.24,0,0,0,4.78,10.34s-4.18,2-6.59-2A20,20,0,0,1,72.71,134.47Z" style="fill:#c8856a"></path><path d="M72.71,134.57v-.1a15.63,15.63,0,0,0-.06-2.35c1.83.58,3,3.31,3.28,6.06s.14,3.95.61,5.2,3.87,5.28,3.87,5.28a9.67,9.67,0,0,1-3.72-2c-1.23-1.32-3.19-9.51-3.19-9.51Z" style="fill:#af6152"></path><path d="M139.19,160.51c0-13.39-4.38-22-4.38-22-7.39,2.56-11.77,3.41-15.48,12.42-2.5,6.06-12.58,27.22-13.4,29.6-3.33-7.17-8.41-18.82-9.43-22.06a18.38,18.38,0,0,0-5-7.26c-4.07-3.84-7.22-.26-10.26-2.32A17.94,17.94,0,0,1,76,143.59c-.46-1.42-.35-4.3-.78-6.24-.86-3.83-2.61-3.88-3.78-3.8-.58,0-.51,6.64-.59,7.76a10.51,10.51,0,0,0,2,7.17c1.79,2.48,4.56,7.43,6.7,11.11a44.09,44.09,0,0,1,3.56,8.07c1.35,3.9,3.21,17.44,6.65,30.23,3.66,13.67,7.85,18.26,11,19.78,6.43,3.16,13.15-3.56,17.16-9.6,5.35-8.06,9.64-14.24,14.44-22.29A52.16,52.16,0,0,0,139.19,160.51Z" style="fill:#c8856a"></path><path d="M105.93,180.51c3.95,8.21,6,14.4,5.24,22.54,3.51-7.71-.29-19.7-4.11-25.17Z" style="fill:#af6152"></path><path d="M84.07,148l1.89.38a19,19,0,0,1,2.34.68,12.25,12.25,0,0,1,3.43,1.81,7.14,7.14,0,0,1,2.22,3,15.8,15.8,0,0,1,.68,4.16c0,.06-.06.12-.09,0a37.22,37.22,0,0,0-1.63-3.71,7.34,7.34,0,0,0-2.27-2.9,17.35,17.35,0,0,0-3.45-1.85,20.34,20.34,0,0,1-3.34-1.4c-.08-.05-.18-.16-.12-.24Z" style="fill:#af6152"></path></g></g></g></g><g id="freepik--thought-bubble--inject-3"><g id="freepik--thought-bubble--inject-3"><path d="M200.88,96.84a2.08,2.08,0,0,1-.93-.22,2.08,2.08,0,0,1-.92-2.8,2.08,2.08,0,0,1,2.8-.92,2.17,2.17,0,0,1,1,1.21,2.09,2.09,0,0,1-2,2.73Zm0-3.48a1.31,1.31,0,0,0-.44.07,1.35,1.35,0,0,0-.82.7,1.37,1.37,0,0,0-.08,1.07,1.4,1.4,0,0,0,2.59.2,1.4,1.4,0,0,0,.08-1.08,1.36,1.36,0,0,0-.7-.81h0A1.39,1.39,0,0,0,200.89,93.36Z" style="fill:#455a64"></path><path d="M210.44,98a4,4,0,0,1-4-3.48,3.93,3.93,0,0,1,.78-3,4,4,0,0,1,5.62-.76h0a4,4,0,0,1-2.43,7.2Zm0-7.35a3.4,3.4,0,0,0-.45,0,3.34,3.34,0,0,0-2.86,3.75,3.26,3.26,0,0,0,1.28,2.21,3.33,3.33,0,0,0,4-5.3h0A3.28,3.28,0,0,0,210.45,90.68Z" style="fill:#455a64"></path><path d="M221.73,93a5.52,5.52,0,1,1,5.47-6.25A5.51,5.51,0,0,1,221.73,93Zm0-10.36a4.85,4.85,0,1,0,3.85,7.78,4.84,4.84,0,0,0-3.85-7.78Z" style="fill:#455a64"></path><path d="M251.73,89.42A32.4,32.4,0,1,1,284.13,57,32.43,32.43,0,0,1,251.73,89.42Zm0-64.11A31.72,31.72,0,1,0,283.45,57,31.76,31.76,0,0,0,251.73,25.31Z" style="fill:#455a64"></path><path d="M251.73,65.68l-.25-.15c-.29-.17-7.21-4.25-7.82-12.31-.47-6.25,2.3-11.84,7.78-15.73l.29-.21.29.21c5.49,3.89,8.25,9.48,7.78,15.73-.6,8.06-7.52,12.14-7.82,12.31Zm0-27.17c-5,3.68-7.5,8.86-7.07,14.63.5,6.71,5.84,10.57,7.07,11.37,1.23-.8,6.58-4.67,7.08-11.37C259.24,47.37,256.73,42.19,251.73,38.51Z" style="fill:#90CAF9"></path><path d="M246.67,66.39a14.43,14.43,0,0,1-8.53-2.65c-4.84-3.48-7.22-8.91-6.7-15.29l0-.35.34-.09C238,46.39,243.76,47.79,248,52c5.51,5.38,4.25,12.92,4.19,13.24l-.05.28-.27.1A16.47,16.47,0,0,1,246.67,66.39Zm-14.26-17.5c-.37,5.86,1.86,10.83,6.32,14,5.14,3.7,11.19,2.2,12.55,1.79.16-1.41.59-7.62-3.95-12C243.4,48.84,238.12,47.5,232.41,48.89Z" style="fill:#90CAF9"></path><path d="M239.33,74.15a15.14,15.14,0,0,1-10.72-4.68l-.25-.25.15-.32c2.46-5.19,6.75-8.34,12.08-8.88,6.88-.69,11.34,4.54,11.52,4.76l.19.22-.1.27c-.1.27-2.5,6.71-9.2,8.41A14.55,14.55,0,0,1,239.33,74.15ZM229.57,69a13.72,13.72,0,0,0,13.18,3.7c5.42-1.38,7.87-6.29,8.4-7.51-.92-1-4.88-4.75-10.46-4.18A13.74,13.74,0,0,0,229.57,69Z" style="fill:#90CAF9"></path><path d="M264.13,74.15a14.47,14.47,0,0,1-3.66-.47c-6.7-1.7-9.11-8.14-9.21-8.41l-.1-.27.19-.22c.19-.22,4.66-5.44,11.53-4.76,5.32.54,9.61,3.69,12.08,8.88l.15.32-.26.25A15.12,15.12,0,0,1,264.13,74.15Zm-11.82-9c.53,1.22,3,6.13,8.4,7.51A13.73,13.73,0,0,0,273.9,69a13.75,13.75,0,0,0-11.12-8C257.19,60.45,253.23,64.24,252.31,65.2Z" style="fill:#90CAF9"></path><path d="M256.79,66.39a16.47,16.47,0,0,1-5.23-.82l-.27-.1,0-.28c-.06-.32-1.32-7.86,4.19-13.24,4.27-4.16,10-5.56,16.22-3.94l.35.09,0,.35c.51,6.38-1.87,11.81-6.71,15.29A14.43,14.43,0,0,1,256.79,66.39Zm-4.61-1.67c1.37.41,7.41,1.91,12.56-1.79a15.43,15.43,0,0,0,6.32-14c-5.71-1.39-11,0-14.93,3.78C251.59,57.1,252,63.31,252.18,64.72Z" style="fill:#90CAF9"></path></g></g><g id="freepik--Desk--inject-3"><g id="freepik--desk--inject-3"><polygon points="240.65 361.65 236.12 359.04 228.62 478.58 233.15 481.19 240.65 361.65" style="fill:#455a64"></polygon><polygon points="240.65 361.65 247.42 357.74 237.67 478.58 233.15 481.19 240.65 361.65" style="fill:#37474f"></polygon><polygon points="369.61 287.23 365.08 284.62 374.83 394.2 379.36 396.81 369.61 287.23" style="fill:#455a64"></polygon><polygon points="369.61 287.23 376.38 283.32 383.88 394.2 379.35 396.81 369.61 287.23" style="fill:#37474f"></polygon><polygon points="140.96 304.09 136.44 301.48 128.94 421.02 133.46 423.63 140.96 304.09" style="fill:#455a64"></polygon><polygon points="140.96 304.09 147.73 300.18 137.98 421.02 133.46 423.63 140.96 304.09" style="fill:#37474f"></polygon><polygon points="269.92 229.67 265.39 227.06 275.14 336.64 279.67 339.25 269.92 229.67" style="fill:#455a64"></polygon><polygon points="269.92 229.67 276.69 225.76 284.19 336.64 279.67 339.25 269.92 229.67" style="fill:#37474f"></polygon><g id="freepik--desk--inject-3"><path d="M114.27,315.43v-6.19a2.45,2.45,0,0,1,1.11-1.92l169-97.62a2.46,2.46,0,0,1,2.21,0L394,271.84a2.45,2.45,0,0,1,1.11,1.92v6.18a2.45,2.45,0,0,1-1.11,1.92L225,379.48a2.46,2.46,0,0,1-2.21,0L115.38,317.34A2.44,2.44,0,0,1,114.27,315.43Z" style="fill:#90CAF9"></path><path d="M114.27,315.43v-6.19a2.45,2.45,0,0,1,1.11-1.92l169-97.62a2.46,2.46,0,0,1,2.21,0L394,271.84a2.45,2.45,0,0,1,1.11,1.92v6.18a2.45,2.45,0,0,1-1.11,1.92L225,379.48a2.46,2.46,0,0,1-2.21,0L115.38,317.34A2.44,2.44,0,0,1,114.27,315.43Z" style="opacity:0.2"></path><path d="M223.88,371v8.74a2.36,2.36,0,0,1-1.11-.26L115.38,317.34a2.44,2.44,0,0,1-1.11-1.91v-6.19a2.44,2.44,0,0,1,.9-1.77c-.4.34-.33.81.21,1.13l107.39,62.14A2.36,2.36,0,0,0,223.88,371Z" style="fill:#90CAF9"></path><path d="M223.88,371v8.74a2.36,2.36,0,0,1-1.11-.26L115.38,317.34a2.44,2.44,0,0,1-1.11-1.91v-6.19a2.44,2.44,0,0,1,.9-1.77c-.4.34-.33.81.21,1.13l107.39,62.14A2.36,2.36,0,0,0,223.88,371Z" style="opacity:0.4"></path><path d="M115.38,308.6l107.39,62.13a2.4,2.4,0,0,0,2.21,0l169-97.61a.68.68,0,0,0,0-1.28L286.62,209.7a2.46,2.46,0,0,0-2.21,0l-169,97.62A.68.68,0,0,0,115.38,308.6Z" style="fill:#90CAF9"></path></g></g></g><g id="freepik--Mug--inject-3"><g id="freepik--Coffee--inject-3"><ellipse id="freepik--shadow--inject-3" cx="200.12" cy="318.75" rx="24.1" ry="13.91" style="opacity:0.2"></ellipse><g id="freepik--mug--inject-3"><g id="freepik--Plate--inject-3"><path d="M216.49,307.05c-9-5.22-23.71-5.22-32.75,0-4.52,2.62-6.78,6-6.78,9.46v1c0,3.42,2.26,6.84,6.78,9.45,9,5.22,23.71,5.22,32.75,0,4.52-2.61,6.78-6,6.78-9.45v-1C223.28,313.09,221,309.67,216.49,307.05Z" style="fill:#f0f0f0"></path><path d="M192.43,329.12V303.89a29.25,29.25,0,0,0-8.69,3.16c-4.52,2.62-6.78,6-6.78,9.46v1c0,3.42,2.26,6.84,6.78,9.45a30.15,30.15,0,0,0,10.62,3.5C192.53,330.11,192.43,329.12,192.43,329.12Z" style="opacity:0.1"></path><path d="M216.49,307.05c-9-5.22-23.71-5.22-32.75,0s-9,13.69,0,18.91,23.71,5.22,32.75,0S225.54,312.28,216.49,307.05Z" style="fill:#fff"></path><path d="M212.11,310.07c-6.62-3.83-17.36-3.83-24,0s-6.62,10,0,13.85,17.37,3.82,24,0S218.73,313.89,212.11,310.07Z" style="fill:#f0f0f0"></path><path d="M210.62,311.59c-5.8-3.36-15.21-3.36-21,0s-5.81,8.78,0,12.13,15.21,3.35,21,0S216.43,314.94,210.62,311.59Z" style="fill:#fff"></path><path d="M183.6,325.19a26.79,26.79,0,0,0,6.08,2.3,37.57,37.57,0,0,0,6.41,1,43.8,43.8,0,0,0,6.48,0,39.23,39.23,0,0,0,6.39-1,28.18,28.18,0,0,0,6-2.24,16.34,16.34,0,0,0,5.08-3.86,9.84,9.84,0,0,0,1.63-2.73,7.24,7.24,0,0,0,.47-3.13,8,8,0,0,0-.86-3.08,9.26,9.26,0,0,0-.86-1.37,10.38,10.38,0,0,0-1-1.26,11.53,11.53,0,0,1,1.12,1.2,9.83,9.83,0,0,1,.92,1.36,8,8,0,0,1,1,3.13,7.69,7.69,0,0,1-.39,3.29,10,10,0,0,1-1.64,2.89,13.69,13.69,0,0,1-2.39,2.3,20,20,0,0,1-2.79,1.78,28.48,28.48,0,0,1-6.17,2.3,39.08,39.08,0,0,1-13.06.94,34.36,34.36,0,0,1-6.44-1.22,28.38,28.38,0,0,1-3.09-1.1A22.85,22.85,0,0,1,183.6,325.19Z" style="fill:#fff"></path><path d="M208.45,311.85c-4.6-2.66-12.07-2.66-16.67,0s-4.61,7,0,9.63,12.07,2.66,16.68,0S213.06,314.51,208.45,311.85Z" style="fill:#f0f0f0"></path><path d="M208.43,319.82l-15.18-8.41L177,316.54c0,3.41,2.27,6.82,6.78,9.42a28.7,28.7,0,0,0,8.69,3.16Z" style="opacity:0.1"></path></g><g id="freepik--coffee--inject-3"><path d="M214.45,315.35a8.23,8.23,0,0,0,3.23-.45c1.43-.53,2.68-2.07,3.81-4.71,1-2.23,2.49-7.12,1.41-9.64-1.37-3.2-5.25-3.31-7.82-3.39l-.89,0-.14,3.06c.31,0,.79.11,1.12.12,1.45,0,4.64.54,5,1.36,1.2,2-1.86,9.61-3.2,10.43a11.7,11.7,0,0,1-5,0l-1,2.56A11.69,11.69,0,0,0,214.45,315.35Z" style="fill:#e0e0e0"></path><path d="M187.44,293.47c.29-1.31,1.57-2.59,3.86-3.61,5.28-2.36,13.87-2.45,19.2-.2,2.3,1,3.62,2.22,3.94,3.52h.07c1,8.56-.43,18.52-3.42,24.05l-.06.11a.36.36,0,0,0,0,.09h0a6.65,6.65,0,0,1-2.48,2.39,16.1,16.1,0,0,1-14.56.15,6.44,6.44,0,0,1-2.53-2.34h0a.25.25,0,0,0,0-.07l-.07-.13c-3.11-5.46-4.74-15.38-3.93-24Z" style="fill:#ebebeb"></path><path d="M194.36,318.3c-3.76-3.08-4.13-13.32-4-19.36l1.63-9.35-.67.27c-2.29,1-3.57,2.3-3.86,3.61h-.08c-.81,8.58.82,18.5,3.93,24l.07.13a.25.25,0,0,1,0,.07h0a6.44,6.44,0,0,0,2.53,2.34c3.78,2.13,9.71,2.21,13.74.28A14,14,0,0,1,194.36,318.3Z" style="fill:#e0e0e0"></path><path d="M191.28,288.44c-5.27,3.15-5.21,8.15.12,11.18s13.93,2.94,19.2-.2,5.22-8.15-.12-11.18S196.55,285.3,191.28,288.44Z" style="fill:#fafafa"></path><path d="M192.44,289.63c-4.64,2.48-4.6,6.4.1,8.78s12.26,2.29,16.9-.18,4.61-6.4-.09-8.78S197.09,287.16,192.44,289.63Z" style="fill:#e0e0e0"></path><path d="M192.5,294.93a8.23,8.23,0,0,0-2.33,1.77,8.46,8.46,0,0,0,2.36,1.71c4.7,2.37,12.27,2.29,16.91-.18a8.4,8.4,0,0,0,2.33-1.76,8.27,8.27,0,0,0-2.36-1.71C204.71,292.38,197.14,292.46,192.5,294.93Z" style="fill:#90CAF9"></path><path d="M192.5,294.93a8.23,8.23,0,0,0-2.33,1.77,8.46,8.46,0,0,0,2.36,1.71c4.7,2.37,12.27,2.29,16.91-.18a8.4,8.4,0,0,0,2.33-1.76,8.27,8.27,0,0,0-2.36-1.71C204.71,292.38,197.14,292.46,192.5,294.93Z" style="opacity:0.5"></path></g></g><g id="freepik--tea-spoon--inject-3"><path id="freepik--shadow--inject-3" d="M202.43,331.25a.08.08,0,0,0,0,0v0l0,0v0l0,0h0l-.06,0h0L181,319.26a3.06,3.06,0,0,0,.55-1.54s0-.09,0-.13v0h0c0-.69-.53-1.44-1.65-2.21-2.34-1.61-7.72-3-10-1.7a1.62,1.62,0,0,0-.85,1.89h0a6.28,6.28,0,0,0,1.77,3h0l.22.22,0,0,.27.26a8.53,8.53,0,0,0,2.05,1.44,6.91,6.91,0,0,0,.68.28,7.52,7.52,0,0,0,1.11.3,9.4,9.4,0,0,0,1.74.15,5.32,5.32,0,0,0,2.79-.78L200,332.69c.64.37,2.45-.57,2.45-1.11v-.32Z" style="opacity:0.1"></path><g id="freepik--tea-spoon--inject-3"><path d="M176.9,320.44c2.54,0,4.63-1.76,4.63-3.66l-12.51-2a7,7,0,0,0,2.3,3.51A7.56,7.56,0,0,0,176.9,320.44Z" style="fill:#ebebeb"></path><path d="M176.9,320.44c2.54,0,4.63-1.76,4.63-3.66l-12.51-2a7,7,0,0,0,2.3,3.51A7.56,7.56,0,0,0,176.9,320.44Z" style="opacity:0.15"></path><path d="M180.89,317.06c0,1.37-1.6,3.06-4.14,3.05a8.92,8.92,0,0,1-6.39-2.85,11,11,0,0,0,1,1,7.56,7.56,0,0,0,5.58,2.17c2.54,0,4.63-1.76,4.63-3.66l-.65-.11C180.89,316.81,180.89,317,180.89,317.06Z" style="opacity:0.15"></path><path d="M179.88,314.57c-2.34-1.61-7.72-3-10-1.7s.16,4.43,2.95,5.78a7.62,7.62,0,0,0,7.21.09C181.91,317.65,182.19,316.16,179.88,314.57Z" style="fill:#e6e6e6"></path><path d="M172.36,312.48a15.1,15.1,0,0,1,7.44,2.2q1.63,1.13,1.59,2.19c0,.62-.52,1.23-1.43,1.75a6.42,6.42,0,0,1-3.26.85,8.85,8.85,0,0,1-3.83-.94c-2.06-1-3.72-2.83-3.77-4.16a1.47,1.47,0,0,1,.84-1.38,4.81,4.81,0,0,1,2.42-.51m0-.13a5.16,5.16,0,0,0-2.49.52c-2.29,1.32.16,4.43,2.95,5.78a8.84,8.84,0,0,0,3.88,1,6.62,6.62,0,0,0,3.33-.86c1.88-1.09,2.16-2.58-.15-4.17a15.33,15.33,0,0,0-7.52-2.22Z" style="fill:#e0e0e0"></path><path d="M178.56,314.91c-2.28-1.52-7.05-3-8.68-1.84s1,4,3.64,5.28,4.68,1.22,6,.3S180.81,316.41,178.56,314.91Z" style="fill:#f0f0f0"></path><path d="M176,314.35c-1.61-1.07-5-2.09-6.16-1.3s.75,2.83,2.59,3.75,3.32.86,4.27.21S177.6,315.42,176,314.35Z" style="fill:#fafafa"></path><path d="M202.29,330.25,180.67,318.3a6.33,6.33,0,0,1-1.38.8v.32L200,331.9c.64.37,2.45-.57,2.45-1.11v-.32A.24.24,0,0,0,202.29,330.25Z" style="fill:#e0e0e0"></path><path d="M202.29,330.25,180.67,318.3a6.1,6.1,0,0,1-1.38.8v.32L200,331.9c.64.37,2.45-.57,2.45-1.11v-.32A.24.24,0,0,0,202.29,330.25Z" style="opacity:0.25"></path><path d="M200,331.58c.74.43,3.05-.9,2.31-1.33L180.67,318.3a6.68,6.68,0,0,1-1.38.8Z" style="fill:#f0f0f0"></path><path d="M180.8,318.64l19.39,10.66c1.48.81,2.37,1.18,1.44,1.72-1.1.63-1.37.35-1.37.35a2.37,2.37,0,0,0,1-.35c.55-.35.07-.83-1-1.35S180.8,318.64,180.8,318.64Z" style="fill:#fafafa"></path></g></g><path d="M205.84,272.65c-1.53-5-7.26-8.26-7.26-8.26s3.52,4.56,3.37,8.5-3.3,6.71-4.53,10.77A12.05,12.05,0,0,0,201,296.58s-2.39-6.24.21-10.88C202.71,283,207.36,277.71,205.84,272.65Zm2.34,1.37a9.43,9.43,0,0,1-.84,5.88,36.23,36.23,0,0,1-4.5,6.67c-2,2.58-1.73,7.26.24,10a16.13,16.13,0,0,1,2.52-7.91c1.16-1.75,4.45-4.91,5-8.44A6.06,6.06,0,0,0,208.18,274Zm-8.94,2.8a14.54,14.54,0,0,0-4.94,4.09c-1.81,2.6-1.06,5.62,1.22,8.89C194.32,284.91,196.26,280.51,199.24,276.82Z" style="fill:#fff;opacity:0.5"></path></g></g><g id="freepik--Device--inject-3"><g id="freepik--Laptop--inject-3"><g id="freepik--laptop--inject-3"><g id="freepik--laptop--inject-3"><path d="M336,257l-41.85-24.16a2.41,2.41,0,0,0-2.41,0l-72.59,41.92a.54.54,0,0,0,0,.93l42.24,24.39Z" style="opacity:0.2"></path><path d="M332.89,251.89v.94a3.86,3.86,0,0,1-1.93,3.35l-67.62,39a3.93,3.93,0,0,1-3.87,0L222.61,274a3.88,3.88,0,0,1-1.93-3.35v-1.3h0a.46.46,0,0,0,.24.42l40.48,23.38Z" style="fill:#37474f"></path><path d="M332.9,251.89l-40.1-23.15a2.3,2.3,0,0,0-2.3,0l-69.57,40.17a.52.52,0,0,0,0,.89l40.48,23.37Z" style="fill:#455a64"></path><polygon points="261.04 289.76 239.41 277.29 302.65 240.78 324.39 253.19 261.04 289.76" style="fill:#37474f"></polygon><polygon points="324.38 253.19 323.56 253.66 302.64 241.73 240.24 277.77 239.41 277.29 302.64 240.78 324.38 253.19" style="fill:#263238"></polygon><polygon points="250.41 255.06 250.81 255.29 261.41 261.41 280.26 250.53 280.65 250.31 269.65 243.96 250.41 255.06" style="fill:#263238"></polygon><polygon points="250.81 255.29 261.41 261.41 280.26 250.53 269.65 244.41 250.81 255.29" style="fill:#37474f"></polygon><path d="M261.41,293.16v2.58a3.83,3.83,0,0,0,1.93-.52l67.62-39a3.87,3.87,0,0,0,1.94-3.35v-.94Z" style="fill:#263238"></path></g></g><path d="M262.5,293.73a4.56,4.56,0,0,0,3.94-.3l67.33-38.87a4.6,4.6,0,0,0,2.23-3.2l7.37-44a4.74,4.74,0,0,0,.06-.75,4.57,4.57,0,0,0-1.36-3.25l-70,40.4a3.39,3.39,0,0,0-1.65,2.37Z" style="fill:#37474f"></path><path d="M261.41,293.17l.46.26a3.64,3.64,0,0,0,.63.3l8-47.56a3.39,3.39,0,0,1,1.65-2.37l70-40.4a4.32,4.32,0,0,0-.93-.71L271,243.16a3.4,3.4,0,0,0-1.64,2.37Z" style="fill:#455a64"></path><path d="M271.11,244.69l-1.08-.62a3.32,3.32,0,0,0-.64,1.46l-8,47.64.46.26a3.64,3.64,0,0,0,.63.3l8-47.56A3.53,3.53,0,0,1,271.11,244.69Z" style="fill:#263238"></path><path d="M300.42,253.16c.49-2.94,3.53-6.85,6.78-8.73s5.49-1,5,1.92-3.53,6.86-6.79,8.74S299.92,256.1,300.42,253.16Z" style="fill:#90CAF9"></path></g></g></svg>
