<svg xmlns="http://www.w3.org/2000/svg" viewBox="0 0 500 500"><g id="freepik--background-complete--inject-30"><rect x="392.07" y="376.37" width="35.16" height="11.19" transform="translate(819.3 763.94) rotate(180)" style="fill:#ebebeb"></rect><rect x="125.02" y="231.17" width="35.16" height="11.19" transform="translate(285.19 473.53) rotate(180)" style="fill:#ebebeb"></rect><path d="M411.68,401.67c5.84-.09,20.81-.34,26.45-.41l8.71,0-.46.45,0-11.19.5.5c-5.84,0-20.73-.07-26.37-.15l-8.79-.11.24-.24-.24,11.19Zm0,0-.23-11.19v-.23h.24c4.39-.06,13.2-.16,17.58-.2l17.58-.07h.5v.5l0,11.19v.46h-.45l-8.87,0c-5.6-.06-20.5-.32-26.29-.42Z" style="fill:#ebebeb"></path><path d="M289.63,150.16c5.84-.09,20.81-.34,26.45-.41l8.71,0-.46.45,0-11.19.5.5c-5.84,0-20.73-.07-26.37-.15l-8.79-.11.24-.24-.24,11.19Zm0,0L289.39,139v-.23h.24c4.39-.06,13.2-.16,17.58-.2l17.58-.07h.5v.5l-.05,11.19v.46h-.45l-8.87,0c-5.6-.06-20.5-.32-26.29-.42Z" style="fill:#ebebeb"></path><path d="M309.24,164.27c5.84-.09,20.81-.34,26.45-.41l8.71,0-.45.45-.05-11.19.5.5c-5.84,0-20.73-.07-26.37-.15l-8.79-.11.24-.24-.24,11.19Zm0,0L309,153.08v-.23h.24c4.39-.06,13.2-.16,17.58-.2l17.58-.07h.5v.5l0,11.19v.46h-.45l-8.87,0c-5.6-.06-20.5-.32-26.29-.42Z" style="fill:#ebebeb"></path><rect x="328.78" y="138.97" width="35.16" height="11.19" transform="translate(692.71 289.14) rotate(180)" style="fill:#ebebeb"></rect><rect x="53.16" y="390.48" width="35.16" height="11.19" transform="translate(141.48 792.16) rotate(180)" style="fill:#ebebeb"></rect><rect x="72.77" y="44.93" width="35.16" height="11.19" transform="translate(180.7 101.06) rotate(180)" style="fill:#ebebeb"></rect><path d="M53.16,70.23c5.84-.1,20.81-.35,26.45-.41l8.71,0-.46.45,0-11.19.5.5c-5.84,0-20.73-.07-26.37-.15l-8.79-.11L53.4,59l-.24,11.19Zm0,0L52.92,59v-.23h.24c4.39-.06,13.19-.16,17.58-.2l17.58-.07h.5V59l0,11.19v.46h-.45l-8.87,0c-5.6-.07-20.51-.32-26.29-.42Z" style="fill:#ebebeb"></path><path d="M392.07,56.12c5.84-.1,20.81-.34,26.45-.41l8.71,0-.46.45,0-11.19.5.5c-5.84,0-20.73-.07-26.37-.15l-8.79-.11.24-.24-.24,11.19Zm0,0-.24-11.19V44.7h.24c4.39-.06,13.2-.16,17.58-.2l17.58-.07h.5v.5l-.05,11.19v.46h-.45l-8.87,0c-5.6-.07-20.5-.32-26.29-.42Z" style="fill:#ebebeb"></path><path d="M387.84,177.23l-3.21,16.62A12.45,12.45,0,0,1,369.69,204,12.78,12.78,0,0,1,359.58,189l5.13-26.59c.05-.25.31-.2.36-.46-.21-.3-.21-.3-.16-.56a13.13,13.13,0,0,1,14.94-10.11c16.1,3.1,31.61-7.16,34.67-23,3.1-16.1-7.52-31.14-23.63-34.25a28.8,28.8,0,0,0-27.25,9.33,12.84,12.84,0,0,1-18.27,1.25,12.68,12.68,0,0,1-1-18,54.71,54.71,0,1,1,43.5,90.57Zm-10.8,56-.89,4.6a12.45,12.45,0,0,1-14.94,10.11A12.77,12.77,0,0,1,351.11,233l.88-4.6a13,13,0,0,1,14.94-10.11A12.61,12.61,0,0,1,377,233.21Z" style="fill:#ebebeb"></path><path d="M89.69,235.24l-4-16.45a12.46,12.46,0,0,1,9.39-15.4,12.77,12.77,0,0,1,15.4,9.38l6.4,26.31c.06.25-.2.31-.14.57.32.18.32.18.38.44a13.13,13.13,0,0,1-9.37,15.41,29.39,29.39,0,0,0-22,35.34c3.88,15.93,19.79,25.19,35.74,21.32a28.77,28.77,0,0,0,20.9-19.82,12.83,12.83,0,0,1,16.09-8.73,12.67,12.67,0,0,1,8.41,15.9,54.71,54.71,0,1,1-77.23-64.27Zm-13.46-55.4-1.11-4.55a12.46,12.46,0,0,1,9.39-15.41,12.77,12.77,0,0,1,15.4,9.39l1.11,4.55a13,13,0,0,1-9.38,15.4A12.61,12.61,0,0,1,76.23,179.84Z" style="fill:#ebebeb"></path></g><g id="freepik--Character--inject-30"><path d="M325.41,461.63H216.48c-.9-3.51-1.77-7-2.64-10.35-1-3.91-2-7.72-2.91-11.43-.2-.83-.43-1.66-.63-2.47q-1.08-4.28-2.11-8.31c-.42-1.65-.83-3.26-1.23-4.86s-.83-3.23-1.23-4.79c-.11-.42-.21-.83-.32-1.23s-.22-.9-.33-1.34-.28-1.08-.41-1.61v0c-.16-.56-.29-1.12-.43-1.67-.28-1.05-.54-2.08-.79-3.09-.39-1.49-.76-2.95-1.12-4.38-.15-.62-.32-1.24-.47-1.85-.26-1-.51-2-.74-2.91-.17-.63-.32-1.25-.47-1.86-.65-2.5-1.24-4.85-1.8-7-.15-.58-.29-1.15-.44-1.7-.23-1-.47-1.86-.69-2.75-.15-.55-.29-1.09-.41-1.61-.49-1.88-.93-3.59-1.3-5.1-.11-.4-.21-.78-.3-1.16-.25-1-.49-1.87-.68-2.66-.08-.32-.15-.62-.23-.9s-.16-.6-.23-.87-.09-.38-.13-.55-.14-.52-.2-.74a2,2,0,0,0-.08-.33c-.17-.65-.25-1-.25-1h106s3.49,12,9.08,31.44c1.13,3.95,2.36,8.21,3.67,12.74C316.41,430.18,320.74,445.29,325.41,461.63Z" style="fill:#37474f"></path><path d="M234.32,461.63H231.6q-6-25-11.72-50.15-1.37-6.11-2.71-12.23c-.08-.39-.16-.76-.25-1.15a.17.17,0,0,1,.32-.08c0,.13.07.25.11.37,1.23,4.38,2.46,8.77,3.66,13.16C225.61,428.2,230,444.9,234.32,461.63Z" style="fill:#263238"></path><path d="M296.5,373.07l-4.68,23.42L288,415.7l-6.52,32.75-.68,3.35-1.12,5.59-.84,4.24H216.47q-1.33-5.28-2.63-10.35c-1-3.91-2-7.72-2.91-11.43-.2-.83-.43-1.66-.63-2.47q-1.08-4.28-2.11-8.31c-.42-1.65-.83-3.26-1.23-4.86s-.83-3.23-1.23-4.79c-.11-.42-.21-.83-.32-1.23s-.22-.9-.33-1.34-.28-1.08-.41-1.61v0c-.16-.56-.29-1.12-.43-1.67-.28-1.05-.54-2.08-.79-3.09-.39-1.49-.76-2.95-1.12-4.38-.16-.63-.32-1.24-.47-1.85-.26-1-.51-2-.74-2.91-.17-.63-.32-1.25-.47-1.86-.65-2.5-1.24-4.85-1.8-7-.15-.58-.29-1.15-.44-1.7-.23-1-.47-1.86-.69-2.75-.15-.55-.29-1.09-.41-1.61-.49-1.88-.93-3.59-1.3-5.1-.11-.4-.21-.78-.3-1.16-.25-1-.49-1.87-.68-2.66-.08-.32-.15-.62-.23-.9s-.16-.6-.23-.87-.09-.38-.13-.55-.14-.52-.2-.74a2,2,0,0,0-.08-.33c-.17-.65-.25-1-.25-1Z" style="fill:#263238"></path><path d="M296.52,373v.05c0,.57-.45,6.9-1.47,16.55-.29,2.81-.63,5.9-1,9.22-.62,5.23-1.4,11-2.35,17.1-1.63,10.64-3.75,22.25-6.52,33.6-1,4.08-2,8.13-3.2,12.09l-136.86.05s-4-7.54-3.65-11.53c1.25-16,10.61-77.08,10.61-77.08L276.2,373Z" style="fill:#37474f"></path><path d="M284,385.6c-.15,4.9-.36,9.79-.68,14.66-.33,5.29-.81,10.56-1.5,15.83a5.73,5.73,0,0,1-.07.58c-.65,4.94-1.38,9.87-2.22,14.78-.79,4.59-1.37,9.53-3.4,13.77a13.55,13.55,0,0,1-3.2,4.32,9.49,9.49,0,0,1-4.38,2.26,5.27,5.27,0,0,1-.81.14h-.23a.33.33,0,0,1,.15.29c-.06,1.65,0,3.32-.2,4.94,0,.07,0,.14,0,.21-.17,1.42-.43,2.83-.69,4.24h-2.35s0-.06,0-.08c.41-1.55.76-3.11,1.14-4.67s.94-3.15,1.31-4.76A.3.3,0,0,1,267,452a7.3,7.3,0,0,1-7.07-4.43c-.79-2.1-.43-4.28-.11-6.44.43-2.8.84-5.6,1.27-8.4.8-5.15,1.83-10.25,2.74-15.37l.42-2.33c1.83-10.42,3.75-20.84,6.06-31.17.08-.43.18-.85.27-1.28a.26.26,0,0,1,.5.07c-.07.69-.14,1.39-.22,2.08q-.6,5.94-1.42,11.85c-.66,4.62-1.12,9.27-1.77,13.9-.22,1.57-.44,3.14-.67,4.72-1.07,7.6-2.17,15.21-3.47,22.79-.61,3.52-2.8,9.82,2.26,10.92a5.25,5.25,0,0,0,3.44-.43c2.25-1.12,3.89-3.69,4.71-5.95,1.43-4,1.94-8.48,2.69-12.67q1.25-7,2.21-13.93v0c.83-5.81,1.68-11.6,2.59-17.4q.69-4.44,1.4-8.86l.66-4.1C283.5,385.23,284,385.31,284,385.6Z" style="fill:#263238"></path><path d="M175.11,422A68.85,68.85,0,0,0,192,419.71c2.54-.65,5.05-1.47,7.55-2.28a19.86,19.86,0,0,0,6.81-3.42c3.84-3.31,5.63-8.53,7.29-13.15a124.71,124.71,0,0,0,4.43-16c.06-.27.45-.18.45.07a61.72,61.72,0,0,1-2.29,18.13c-1.38,5-3.23,10.59-7.27,14.1-4.26,3.69-10,5-15.48,5.65a71.21,71.21,0,0,1-18.39-.25A.31.31,0,0,1,175.11,422Z" style="fill:#263238"></path><path d="M165.63,385.05c-.31,7.66-8,52.16-8.77,67.31-.13,2.71,5.36,6.56,5.22,9.27h-2.57c.18-2.65-5.28-6.44-5.11-9.09,1-15.25,10-59.86,10.57-67.51A.33.33,0,0,1,165.63,385.05Z" style="fill:#263238"></path><path d="M273.64,203.88c23.43,17.91,105.71,84,107.75,115.33,1.67,25.44-24.18,31.42-40.4,19.43-22-16.29-63.53-70.46-80.28-109.78C251.46,207.13,250.61,186.27,273.64,203.88Z" style="fill:#f7a9a0"></path><path d="M286.87,284.85l64.84-29.27s-61.6-48.24-83.73-57.31c-24.89-10.21-24.67,4.75-15,28.43S286.87,284.85,286.87,284.85Z" style="fill:#90CAF9"></path><path d="M351.71,255.58l-64.85,29.27S262.65,250.38,253,226.7s-9.89-38.64,15-28.43c1.25.52,2.64,1.16,4.15,1.91l1.84,1,0,0c8.29,4.39,19.36,11.67,30.55,19.47l.61.43c8.82,6.18,17.7,12.67,25.3,18.33l3.19,2.4C344.28,249.76,351.71,255.58,351.71,255.58Z" style="fill:#90CAF9"></path><path d="M351.71,255.58l-64.85,29.27S262.65,250.38,253,226.7s-9.89-38.64,15-28.43c1.25.52,2.64,1.16,4.15,1.91l1.84,1,0,0c8.29,4.39,19.36,11.67,30.55,19.47l.61.43c8.82,6.18,17.7,12.67,25.3,18.33l3.19,2.4C344.28,249.76,351.71,255.58,351.71,255.58Z" style="fill:#90CAF9"></path><path d="M339.48,246.18h0a20.38,20.38,0,0,0-2.12-.41,25.24,25.24,0,0,0,6.2,3.88l1.1.47Zm-87.83-50.63h0a6.13,6.13,0,0,0-2,1.11c.41.22.82.42,1.24.62a25.67,25.67,0,0,0,7,2.17A26,26,0,0,0,251.65,195.55Zm44.58,64.23a26.08,26.08,0,0,0-3.41-6.47,28.18,28.18,0,0,0,5,13.6A25.36,25.36,0,0,0,296.23,259.78ZM277.31,223.4a25.55,25.55,0,0,0-6.47,3.4,25.72,25.72,0,0,0,7.13-1.63,25.43,25.43,0,0,0,6.47-3.41A25.65,25.65,0,0,0,277.31,223.4Z" style="fill:#fff"></path><path d="M337.39,248.18c-2.4.67-22.75,9.47-27.13,11.48s-22.37,10-26.73,12.51a.17.17,0,0,0,.13.32c4.72-1.58,22.89-9.64,27.39-11.59s24.45-11.12,26.51-12.43C337.73,248.36,337.56,248.14,337.39,248.18Z" style="fill:#263238"></path><path d="M304.41,276.93l-17.55,7.92S262.65,250.38,253,226.7c-7.13-17.47-9.12-30.2.32-31.57Z" style="opacity:0.1"></path><path d="M302.8,380.39l-152.46,4s-7.51-7.77-6.37-16.93c4.21-33.83,58-152.4,78.92-166.65,9.37-6.38,29.44-11.37,40.6-3,17.34,13,34.56,105.89,44.39,158.32C310.69,371.14,302.9,380.24,302.8,380.39Z" style="fill:#ebebeb"></path><path d="M223.81,208.45c5.3,8.71,12.59,16.18,20.88,20.86,4.19,2.37,8.71,4.14,13.3,4.13a10.9,10.9,0,0,0,6.81-1.91,14.16,14.16,0,0,0,4.06-6.07,30.65,30.65,0,0,0,1.86-8.47,76.57,76.57,0,0,0,.21-9.94c0-.13.17-.11.17,0,.15,3.15.52,6.29.45,9.44a33.65,33.65,0,0,1-1.05,8.18,18.29,18.29,0,0,1-3.39,6.82,10,10,0,0,1-6.48,3.45c-4.8.71-9.78-.69-14.32-3a49.65,49.65,0,0,1-12.24-9,57.94,57.94,0,0,1-10.51-14.4C223.46,208.4,223.7,208.28,223.81,208.45Z" style="fill:#263238"></path><path d="M227.2,195s6.4,55.18,7.12,80.79-7.12,170.79-7.12,170.79S164.79,434.71,157,432.65s-28.94-22.54-28.94-22.54S176.92,233.72,227.2,195Z" style="fill:#90CAF9"></path><path d="M220.73,217.3a25.66,25.66,0,0,0-2.16,7,28.44,28.44,0,0,0,6.05-13.18A25.89,25.89,0,0,0,220.73,217.3Zm-29,90.52a25.63,25.63,0,0,0-2.17,7,25.47,25.47,0,0,0,3.89-6.2,26,26,0,0,0,2.16-7A26,26,0,0,0,191.71,307.82Zm-20.9,96.64a25.67,25.67,0,0,0-2.17,7,25.1,25.1,0,0,0,3.89-6.2,25.66,25.66,0,0,0,2.16-7A25.85,25.85,0,0,0,170.81,404.46Zm55.95-6.6a25.72,25.72,0,0,0-2.16,7,25.54,25.54,0,0,0,3.88-6.2,34.17,34.17,0,0,0,1.37-3.52v0c0-.87.08-1.75.13-2.64A27.94,27.94,0,0,0,226.76,397.86Zm-55.07-52.24a25.27,25.27,0,0,0-7-2.16,28.27,28.27,0,0,0,13.19,6A26,26,0,0,0,171.69,345.62Zm24.79-85.84a26.08,26.08,0,0,0-3.41-6.47,25.73,25.73,0,0,0,1.64,7.13,25.43,25.43,0,0,0,3.41,6.47A25.73,25.73,0,0,0,196.48,259.78Zm30,79.57a26.08,26.08,0,0,0-3.41-6.47A26.08,26.08,0,0,0,224.7,340a25.43,25.43,0,0,0,3.41,6.47A25.72,25.72,0,0,0,226.48,339.35Zm-76,87.15a19.56,19.56,0,0,0,.41,2.92c.72.48,1.4.92,2.06,1.32A22.19,22.19,0,0,0,150.48,426.5Zm-8.77-50.25a31.69,31.69,0,0,0-2-4.35c-.22.71-.45,1.42-.67,2.11.26,1,.57,1.94.91,2.9a26.08,26.08,0,0,0,3.41,6.47A25.29,25.29,0,0,0,141.71,376.25Zm57.8,53.65a26.08,26.08,0,0,0-6.47,3.41,25.73,25.73,0,0,0,7.13-1.64,25.43,25.43,0,0,0,6.47-3.41A25.65,25.65,0,0,0,199.51,429.9Zm-1.72-56a25.27,25.27,0,0,0-6.47,3.41,26,26,0,0,0,7.12-1.64,25.33,25.33,0,0,0,6.48-3.41A25.65,25.65,0,0,0,197.79,373.94Zm30.27-92.32a26.08,26.08,0,0,0-6.47,3.41,26,26,0,0,0,7.13-1.63,27.61,27.61,0,0,0,5.65-2.82v-.52A26.74,26.74,0,0,0,228.06,281.62Z" style="fill:#fff"></path><path d="M263.49,197.79c7.44,9.26,18.52,63.34,19.28,68.86S306,440.12,306,440.12,319.74,426.47,320.8,422s-13.42-85.38-20.12-115.49c-7.56-34-19.27-83.47-27.18-95.19C268,203.1,263.49,197.79,263.49,197.79Z" style="fill:#90CAF9"></path><path d="M278.8,222.89c-.5.17-1,.33-1.49.51a31.49,31.49,0,0,0-3.85,1.73l.33,1.26a32.88,32.88,0,0,0,4.18-1.22l1.44-.58Zm18.73,151.05-.39.15c.09.63.18,1.26.26,1.89l.79-.27a25.27,25.27,0,0,0,6.47-3.41A25.73,25.73,0,0,0,297.53,373.94Zm6.88,54.55c0,.35.1.68.14,1a18,18,0,0,0,1.84-1.24A18.45,18.45,0,0,0,304.41,428.49Zm-13-120.67a25.62,25.62,0,0,0-2.16,7,28.42,28.42,0,0,0,6-13.19A26.09,26.09,0,0,0,291.45,307.82Z" style="fill:#fff"></path><path d="M193.27,223c-42.73,51.59-90.53,124.58-77.8,143.9,14.19,21.52,75.85-27.75,77.52-31.29,1.87-4,19.26-50.63,29.54-97.17C233.81,187.38,203.83,210.22,193.27,223Z" style="fill:#f7a9a0"></path><path d="M119.15,369.29c15.31,10.34,57.55,14.72,129.66,2.09,10-1.75-10.12-71.3-20.87-70-13.54,1.66-65.73,11-69.46,12.21C127,323.47,108.77,362.27,119.15,369.29Z" style="fill:#f7a9a0"></path><path d="M209.39,307.16s4.37-1.37,26.26-12.35c15.13-7.59,56.86-16.41,92.23,15.42,13.56,12.2,10.92,27-5.41,16.87C311,319.93,303.61,314,299.2,312.69c0,0,6.95,19.55,0,29.39-3.08,4.4-11.78,16.2-19.87,24.43a46.94,46.94,0,0,1-4.9-3.31,25.28,25.28,0,0,1-25.66,8.18Z" style="fill:#f7a9a0"></path><path d="M251.25,289.87c8.59,2.22,26.73,7.23,40.14,16.49,14.89,10.28,40.82,34.1,33.11,45-5.65,8-16.34-.22-16.34-.22s8.64,12.1,1.95,18.22c-6.09,5.57-14-1.29-14-1.29s4,8.24-2.93,12.48c-8.3,5.1-15.27-13-28.14-15.12C262.17,365,251.25,289.87,251.25,289.87Z" style="fill:#f7a9a0"></path><path d="M277.9,320.28c7.74,3.41,23.33,15.67,30.3,30.5.15.34,0,.64-.22.36a177.57,177.57,0,0,0-30.18-30.72C277.72,320.36,277.81,320.24,277.9,320.28Z" style="fill:#263238"></path><path d="M268,335.62c6.37,3.63,21.88,17,28.42,32.25.15.34,0,.63-.24.35a190.75,190.75,0,0,0-28.29-32.47C267.78,335.69,267.88,335.57,268,335.62Z" style="fill:#263238"></path><path d="M296.14,368.22c4.5,3.46,12,4.92,15.34-.79,2.6-5.32-.71-11.65-3.74-16.11l-1.08-1.48c2.63,2,5.56,3.84,8.8,4.52,5.73,1.6,10.57-3.17,9.84-8.91-1.08-8.29-7.62-14.39-13.05-20.25a138.31,138.31,0,0,0-15.45-14.28,136.19,136.19,0,0,1,15.71,8.78c3.75,2.38,6.94,5.58,10.86,7.7,11.36,6.54,17,.05,9.73-10.65-9.13-12.65-29.48-24.09-44.71-27.12,15.64,2.85,35.8,13.79,45.35,26.68,1.88,2.78,3.66,6,3.44,9.52-.28,4.25-4.2,5.78-7.93,4.86-6.8-1.41-11.7-6.49-17.28-10.19a120.68,120.68,0,0,0-11.52-6.64L301,313a149.45,149.45,0,0,1,11.94,11.53c6,6.6,15.3,15.21,12.76,25.07-2.29,6.45-9,6.85-14.31,3.94a23.56,23.56,0,0,1-3.58-2.2l.42-.41c3.12,4.69,6.36,11.12,3.56,16.63-3.5,5.78-11.12,4.24-15.63.63Z" style="fill:#263238"></path><path d="M135.18,330.83c2.54-2.62,10.06-10.94,21.59-16,10.06-4.41,39.83-9.18,47.16-9.7.19,0,.25.2.07.25-6.39,1.82-35,6.76-45.77,11.32A91.85,91.85,0,0,0,135.37,331C135.23,331.11,135.06,331,135.18,330.83Z" style="fill:#263238"></path><path d="M210,297,140,284.61S187.79,222.7,207,208.46c21.62-16,25.08-1.46,21.54,23.87S210,297,210,297Z" style="fill:#90CAF9"></path><path d="M196.48,259.78a26.08,26.08,0,0,0-3.41-6.47,25.73,25.73,0,0,0,1.64,7.13,25.43,25.43,0,0,0,3.41,6.47A25.73,25.73,0,0,0,196.48,259.78Zm-41.72,6.15v0a34.53,34.53,0,0,0-2,3.63,25.62,25.62,0,0,0-2.16,7,25.73,25.73,0,0,0,3.88-6.2,26.1,26.1,0,0,0,2.13-6.74Zm66-48.63a25.66,25.66,0,0,0-2.16,7,28.44,28.44,0,0,0,6.05-13.18A25.89,25.89,0,0,0,220.73,217.3Z" style="fill:#fff"></path><path d="M152,273.41c2.49,0,24.38,3.58,29.12,4.45s24.16,4.23,29,5.54a.18.18,0,0,1,0,.35c-5-.38-24.55-3.72-29.4-4.5s-26.43-4.76-28.74-5.52C151.74,273.66,151.85,273.41,152,273.41Z" style="fill:#263238"></path><path d="M206.81,296.28c2.14.22,3.46.3,3.46.3,2.41-9.64,5.5-19.51,8.32-29,2.87-9.7,6-19.29,9-29,0-.15.27-.08.23.07-1.35,5.58-2.71,11.14-4.12,16.68.3-.66.6-1.32.89-2,1.06-2.35,2.17-4.67,3.15-7.06.08-.2.39-.11.32.1a58.65,58.65,0,0,1-2.69,7.31c-.77,1.67-1.64,3.26-2.54,4.85-.83,3.18-1.63,6.35-2.55,9.52-2.8,9.69-5.16,20.65-8.71,30.1a35.12,35.12,0,0,1-4.93-1.42A.25.25,0,0,1,206.81,296.28Z" style="fill:#263238"></path><path d="M262.38,226.59c-9.52,3.24-27.66-10-35.42-21.47-.53-.79-.1-9.63-.08-20.39,0-6.54-.19-13.81-.82-20.44-.14-1.36,42.53,6.12,42.53,6.12s-2.76,14.28-1.58,25.82a14.66,14.66,0,0,0,.55,2.7c0,.12.07.27.1.44C269,204.46,271.58,223.46,262.38,226.59Z" style="fill:#f7a9a0"></path><path d="M268.59,170.41a117.48,117.48,0,0,0-1.87,20.29c-20.19,6.94-36.14-3.82-39.84-6.65,0-6.36-.2-13.36-.82-19.75Z" style="fill:#263238"></path><path d="M286.82,151.7s-1.57,9.85-1.08,13.38,7.8,8,7.8,8-9.15,2.11-11.59,1.22-5.73-7.75-5.73-7.75,2.54,10.68,6,11.63c2.18.59-5.49-.21-5.49-.21a10.37,10.37,0,0,1-6.34-3.87C268.17,170.87,286.82,151.7,286.82,151.7Z" style="fill:#263238"></path><path d="M288.87,115c2.11,15.33-12.41,56.31-24.32,64.05-17.27,11.22-42.15,8.55-50.82-11.43-8.42-19.37,11.45-72.44,24.44-79.12C257.3,78.66,285.76,92.36,288.87,115Z" style="fill:#f7a9a0"></path><path d="M247,134.62c.05-.1.17.21.12.32-1.05,2.72-1.79,6,.38,7.8.07.06,0,.19-.08.15C244.53,141.4,245.57,137,247,134.62Z" style="fill:#263238"></path><path d="M250.46,132.6c4.55,1.22,1.79,10.22-2.42,9.1S246.65,131.59,250.46,132.6Z" style="fill:#263238"></path><path d="M230.27,128.65c0-.11-.26.07-.29.19-.75,2.82-2.08,5.92-4.88,6.09-.09,0-.13.15,0,.17C228.29,135.59,230,131.45,230.27,128.65Z" style="fill:#263238"></path><path d="M228.65,125c-4.39-1.69-7.44,7.22-3.38,8.78S232.33,126.4,228.65,125Z" style="fill:#263238"></path><path d="M256.45,125.94a37.87,37.87,0,0,0-3.77-.83c-1.46-.3-2.58-.69-4-.11a2,2,0,0,0-1,2.22c.54,1.81,2.22,2.62,4,3.05a7.2,7.2,0,0,0,5.2-.46A2.12,2.12,0,0,0,256.45,125.94Z" style="fill:#263238"></path><path d="M228.75,114.86a35.6,35.6,0,0,0,3.86.17c1.48,0,2.66.24,4-.58a2,2,0,0,0,.61-2.35c-.85-1.69-2.65-2.2-4.43-2.33a7.21,7.21,0,0,0-5,1.35C226.17,112.19,227,114.63,228.75,114.86Z" style="fill:#263238"></path><path d="M239.36,156.64c-3.09-2.51-7.76-3.48-10.75-4-.3-.15-.4-.87-.35-1.19v0c0-.1,2-5.83,2-5.83-.9.15-5.4.68-5-.4,3.42-9,7.23-19,12.53-27.19a.27.27,0,0,1,.48.22c-2.95,8.77-7.42,17-10.51,25.71,1.4-.08,3.73-.32,4.83.05.28.18-2.45,6.05-2.65,7,0,0,6.14.08,9.81,4.44C240.74,156.57,240.84,157.83,239.36,156.64Z" style="fill:#263238"></path><path d="M242.7,162.56c-.86.43-1.81,1.11-2.83.88a7.76,7.76,0,0,1-2.74-1.64.1.1,0,0,0-.16.1,3.88,3.88,0,0,0,3,2.61,3.09,3.09,0,0,0,3-1.74C243,162.62,242.83,162.5,242.7,162.56Z" style="fill:#263238"></path><path d="M280.8,151.55c-6.49-4.46-2-29.73-2-29.73L273,134.57s-4-6.31-4.62-13.11c-.43-4.85,2.14-10.58,3.81-13.26,0,0-10.74,5.66-20.72,5-3.67-.24-28.46-8.71-27.94-10.26C225,98.34,240.34,85.21,248,83.06c8.83-2.48,20.7-3.76,33.62,6.91s13.6,21.52,13.31,29.65S283.18,153.19,280.8,151.55Z" style="fill:#263238"></path><path d="M273.65,149.67s13-10.75,18.13-5.76-7.22,22.38-15,23.07a7.49,7.49,0,0,1-8.6-6.56Z" style="fill:#f7a9a0"></path><path d="M288.12,148.81c.11,0,.09.19,0,.2-5.53.64-9.43,4.53-12.59,8.81,2-1.43,4.29-1.88,6.27.56.1.13-.08.3-.21.23a4.62,4.62,0,0,0-5.32.2,22.83,22.83,0,0,0-3.43,3.31c-.36.38-1.09-.08-.78-.55a.61.61,0,0,1,.07-.1C273.74,155.09,281.12,147.56,288.12,148.81Z" style="fill:#263238"></path><path d="M263.82,81.28a61.1,61.1,0,0,1,17.77.67c6.51,1.34,25.7,9.56,29.08,15.11s-1.68,24.54-2.48,27.3-7.59,18.76-14.88,20.71,1.62-26.14-4.62-38.58S263.82,81.28,263.82,81.28Z" style="fill:#90CAF9"></path><path d="M263.81,81.28s18.64,12.77,24.87,25.21S286,147,293.32,145.07c3.21-.85,5.36-3,7.92-7,1.53-8.57,2.53-22.33-1.29-33.4-3.57-10.37-13.11-18.23-24.38-23.54A69.94,69.94,0,0,0,263.81,81.28Z" style="opacity:0.1"></path><path d="M286.06,161.07c2-7.61,1.2-30.07-2.85-44.17S258.12,88.22,254.8,87.3c-8.07-2.23-11.56-.75-12.58-1.88s9.16-4.31,11.84-4.89,9.73-1.69,13.14-.43,23.9,10.56,28.53,22.22,6.93,40.71,2.72,46.51c-1,1.4-3.42,1.7-4.83,3.68-1.85,2.6-3.6,5.75-5.16,7.48C287.2,161.38,285.89,161.73,286.06,161.07Z" style="fill:#90CAF9"></path><path d="M283.13,111.16a40.5,40.5,0,0,0,6.42-2,29.46,29.46,0,0,0,6-3.2c.13-.1.3.08.18.19a22.08,22.08,0,0,1-5.8,3.91,18.74,18.74,0,0,1-6.75,1.56C282.91,111.61,282.89,111.21,283.13,111.16Z" style="fill:#263238"></path><path d="M288.66,153.67c.39-.46.9-.82,1.33-1.25a10.12,10.12,0,0,0,1.32-1.6,17.75,17.75,0,0,1,2.07-3.32,13.64,13.64,0,0,1,2.58-1.88,5.25,5.25,0,0,0,2.49-2.52.13.13,0,0,1,.25.08c-.76,2.26-2.82,3.34-4.45,4.9-1,1-1.48,2.38-2.33,3.51a6.15,6.15,0,0,1-3,2.44C288.72,154.07,288.52,153.84,288.66,153.67Z" style="fill:#263238"></path><path d="M288.82,144.77c1-.61,2-1.11,2.95-1.81a25.75,25.75,0,0,0,2.54-2.24c.79-.78,1.51-1.63,2.28-2.43.92-.94,2-1.79,2.82-2.77.11-.13.28.07.17.19-.89,1-1.62,2.2-2.48,3.26a26.83,26.83,0,0,1-2.45,2.55A17.94,17.94,0,0,1,292,143.6a8.32,8.32,0,0,1-3.12,1.3A.07.07,0,0,1,288.82,144.77Z" style="fill:#263238"></path><path d="M288.59,136.59a22.39,22.39,0,0,0,5.6-3.2c1.64-1.3,3.22-2.72,4.78-4.13.1-.1.29.05.19.17a26.94,26.94,0,0,1-4.47,4.77,14.27,14.27,0,0,1-2.7,1.7,14.56,14.56,0,0,1-3.31.94C288.54,136.87,288.44,136.65,288.59,136.59Z" style="fill:#263238"></path><path d="M288,128.63a7.67,7.67,0,0,0,2.65-1.32c.92-.61,1.84-1.25,2.73-1.91s1.73-1.26,2.58-1.9a7.64,7.64,0,0,0,2.26-2.27c.07-.13.29,0,.23.11a7.7,7.7,0,0,1-1.84,2.61,20.53,20.53,0,0,1-2.67,2.34,25.77,25.77,0,0,1-2.95,1.87,5.12,5.12,0,0,1-2.95.83A.18.18,0,0,1,288,128.63Z" style="fill:#263238"></path><path d="M288.89,119.09c.92-.44,1.83-.89,2.71-1.4s1.73-1.07,2.58-1.63,1.78-1.17,2.63-1.82a.13.13,0,0,1,.17.2,20.1,20.1,0,0,1-2.29,2.23,22.19,22.19,0,0,1-2.6,1.79,24.38,24.38,0,0,1-2.78,1.44,8.11,8.11,0,0,1-3,.87.18.18,0,0,1-.11-.32A15,15,0,0,1,288.89,119.09Z" style="fill:#263238"></path><path d="M278.86,105c1.05-.66,2.07-1.31,3.17-1.88a33.21,33.21,0,0,1,3.46-1.51,32.83,32.83,0,0,1,7.08-1.92c.14,0,.24.18.09.24-4.53,1.81-9.15,3.44-13.67,5.3A.13.13,0,0,1,278.86,105Z" style="fill:#263238"></path><path d="M276.53,97.11a16.52,16.52,0,0,1,3.34-1.53,34.69,34.69,0,0,1,7.57-1.38.13.13,0,0,1,.06.25c-2.37.63-4.74,1.21-7.06,2A31.55,31.55,0,0,0,277,97.7c-1.1.5-2.07,1.22-3.14,1.77-.08,0-.19-.06-.13-.14A9.29,9.29,0,0,1,276.53,97.11Z" style="fill:#263238"></path><path d="M271.34,92.1a16.88,16.88,0,0,1,3.14-1.6A19.85,19.85,0,0,1,281,89.16c.15,0,.16.22,0,.25a39.59,39.59,0,0,0-6.38,2c-1,.42-2.05.89-3.07,1.35a32.61,32.61,0,0,1-3,1.5c-.09,0-.14-.09-.08-.15A18,18,0,0,1,271.34,92.1Z" style="fill:#263238"></path><path d="M268.12,86.87c1-.37,2-.68,3-1a9.82,9.82,0,0,1,3.07-.58.13.13,0,0,1,0,.26c-1.93.69-3.86,1.43-5.77,2.16a26.92,26.92,0,0,0-4.87,2.91c-.07.05-.16,0-.11-.12A10,10,0,0,1,268.12,86.87Z" style="fill:#263238"></path><path d="M263,83.78a16.21,16.21,0,0,1,6-1.41c.15,0,.17.24,0,.26a20,20,0,0,0-5.67,1.86,28,28,0,0,0-5.05,3.2c-.08.06-.21,0-.14-.12A13.42,13.42,0,0,1,263,83.78Z" style="fill:#263238"></path><path d="M254.52,84.62a8.84,8.84,0,0,1,1-.91,12.56,12.56,0,0,1,2.34-1.46,27.58,27.58,0,0,1,5.32-1.81c.16,0,.22.21.06.25a23.14,23.14,0,0,0-5.08,2,18.43,18.43,0,0,0-2.27,1.43c-.35.26-.69.54-1,.83a6.42,6.42,0,0,1-1,.84.13.13,0,0,1-.18-.15A3.34,3.34,0,0,1,254.52,84.62Z" style="fill:#263238"></path><path d="M249.91,83.5a18.27,18.27,0,0,1,1.93-1.2,15.9,15.9,0,0,1,2-1c.72-.29,1.46-.54,2.17-.85.17-.08.26.17.08.24a14,14,0,0,0-2.1,1c-.64.37-1.28.72-1.92,1.08l-1.92,1.09a18.93,18.93,0,0,1-1.94,1.14c-.11,0-.19-.08-.11-.17A9.54,9.54,0,0,1,249.91,83.5Z" style="fill:#263238"></path><path d="M355.27,339c17.14,11.13,32-8.3,31.33-22.55-1.6-33.47-33.33-87-52.05-105.21-7-6.8-50.73,32.19-46.75,41.82C292.14,263.55,323.38,318.27,355.27,339Z" style="fill:#f7a9a0"></path><path d="M300.68,275.8c6.34,8.69,15.1,20.89,21.53,29.31,7.4,9.54,14.65,19.33,23.88,27.21-16.84-10.9-35.53-38.84-45.41-56.52Z" style="fill:#263238"></path><path d="M290.38,190.83c1.61-6.31-3.78-19.37-3.94-28.47s8-17.2,11-15.24,1.76,5.95,6.72,18.71c3.2,8.21,16.7,21.3,20.83,37C327.1,210.67,288.77,197.15,290.38,190.83Z" style="fill:#f7a9a0"></path><path d="M290.38,190.83c1.61-6.31-3.78-19.37-3.94-28.47s8-17.2,11-15.24,1.76,5.95,6.72,18.71c3.2,8.21,16.7,21.3,20.83,37C327.1,210.67,288.77,197.15,290.38,190.83Z" style="fill:#f7a9a0"></path><path d="M290.38,190.83c1.61-6.31-3.78-19.37-3.94-28.47s8-17.2,11-15.24,1.76,5.95,6.72,18.71c3.2,8.21,16.7,21.3,20.83,37C327.1,210.67,288.77,197.15,290.38,190.83Z" style="opacity:0.1"></path><path d="M239.92,168.74c-2.94,7.6,16.4,13.26,16.4,13.26s-5.53,1-8.63,5.47c-3.56,5.07,2.83,12.86,2.83,12.86a18.56,18.56,0,0,0-8.18,7.22c-2.91,5.19,2.41,14,2.41,14s-3.87,4.81-3.19,10.88c1.15,10.37,16.08,16.26,24.6,21.74,9.13,5.87,31.13,7.53,36.11,12.42l33.86-52.95s-31.08-39.17-42.52-42.92C284,167.55,244.41,157.14,239.92,168.74Z" style="fill:#f7a9a0"></path><path d="M256.55,181.84c11.05.9,21.86,4.44,32.25,8a.19.19,0,0,1-.13.36c-10.29-3.63-21.8-4.6-32.22-7.81A.27.27,0,0,1,256.55,181.84Z" style="fill:#263238"></path><path d="M251.09,199.66a28.92,28.92,0,0,1,7.2,2.3c2.48,1,4.95,2,7.41,3.08q7.37,3.21,14.58,6.78c.21.11.1.46-.13.36-4.9-2.12-9.83-4.17-14.82-6.08q-3.75-1.44-7.51-2.82a34.14,34.14,0,0,1-7-2.92A.39.39,0,0,1,251.09,199.66Z" style="fill:#263238"></path><path d="M245,221.61c2.18.16,4.41,1.51,6.37,2.41q3.33,1.53,6.67,3c4.46,2,8.92,4,13.45,5.81.22.1.1.45-.13.36-4.61-1.84-9.24-3.62-13.83-5.5-2.26-.92-4.5-1.86-6.75-2.81-1.91-.81-4.38-1.6-5.89-3.08A.14.14,0,0,1,245,221.61Z" style="fill:#263238"></path><path d="M246.44,241.13c-6.19-5.78-7.19-13-2-19.89l0,.71c-2.67-4.23-5.12-9.71-2.91-14.7a15.63,15.63,0,0,1,9.06-7.81l-.43,1.59c-5.35-5.33-6.64-15.5,1.29-19.08a9.45,9.45,0,0,1,3.21-.78l-.28,1.89c-5-1.88-9.83-4.06-13.53-8-3.46-3.86-2.26-8.72,2.85-10.13,6.31-1.78,13-1.15,19.38-.59a153.12,153.12,0,0,1,15.24,2.33,159.25,159.25,0,0,0-23-1.83,37.06,37.06,0,0,0-11.21,1.4c-2.2.69-4.19,2.29-3.65,4.76,1.56,5.32,9.69,8.38,14.5,10.26l4.46,1.57-4.74.32a7.56,7.56,0,0,0-6.87,6.69c-.62,4.15,1.89,8.19,4.72,11l-1.48.45a14,14,0,0,0-8,6.73c-2,4.29.22,9.4,2.41,13.26l.24.39-.26.33c-5.31,6.44-4.5,13.11,1,19.14Z" style="fill:#263238"></path></g><g id="freepik--Plant--inject-30"><path d="M354,376.28a30,30,0,0,0,5.53,2.44,33.78,33.78,0,0,0,5.62,1.65,2.92,2.92,0,0,0,2.62-.76,1.89,1.89,0,0,0,.25-.31.2.2,0,0,0,.14-.21s.17-.14.23-.19h0a2,2,0,0,0,.37-.43c.19-.27.34-.59.2-.65a7.27,7.27,0,0,0,0-3.44,58.83,58.83,0,0,0-1.32-5.85,28.72,28.72,0,0,0-2-5.26c-.53-1.06-1.23-2.61-2.54-2.85a1.59,1.59,0,0,0-1.05.16.33.33,0,0,0-.13.07,2.58,2.58,0,0,0-1.08,1.66c-.32,1.42.35,2.88,1,4.13.81,1.71,1.65,3.4,2.49,5.09-.49-.68-1-1.38-1.49-2.06-1.34-1.81-2.72-3.58-4.18-5.29-1-1.18-2.15-2.83-3.73-3.28a2.63,2.63,0,0,0-2.22.32,2.91,2.91,0,0,0-.27.24,2.08,2.08,0,0,0-.37.57,3.07,3.07,0,0,0,.73,2.88,48.24,48.24,0,0,0,4.15,4.55c1.46,1.56,2.94,3.1,4.46,4.6l.77.76c-2.09-1.38-4.21-2.73-6.29-4.08-1.25-.82-2.7-1.7-4.25-1.18a2.31,2.31,0,0,0-1.22.92,1.59,1.59,0,0,0-.13.22c0,.05-.05.11-.08.17a.85.85,0,0,0-.06.17,2.67,2.67,0,0,0,0,1.63C350.68,374.36,352.55,375.44,354,376.28Z" style="fill:#90CAF9"></path><path d="M350.16,371c2.11,2.25,5,3.61,7.82,4.87,3.18,1.41,6.47,2.6,9.78,3.71a1.89,1.89,0,0,0,.25-.31.2.2,0,0,0,.14-.21s.17-.14.23-.19h0a2,2,0,0,0,.37-.43l-.21-.29a41.38,41.38,0,0,0-2.13-8.61c-1-3-1.89-6.81-4.34-9a.33.33,0,0,0-.13.07l0,0a33.09,33.09,0,0,0,2.39,9q1.16,3,2.41,6.05c-1.8-2.39-3.67-4.72-5.67-6.93-1.55-1.72-3.17-3.39-4.87-4.95a16.33,16.33,0,0,0-3.54-2.66,2.91,2.91,0,0,0-.27.24c1.75,3.42,4.72,6.17,7.33,8.91,2.77,2.92,5.52,5.87,8.33,8.76-2.85-1.73-6-3.12-8.91-4.64a52.14,52.14,0,0,0-8.77-4,1.59,1.59,0,0,0-.13.22,80.79,80.79,0,0,1,9.14,4.29c2.61,1.36,5.31,2.63,7.88,4.09-2.82-1-5.65-2-8.4-3.16-3.05-1.3-6.26-2.74-8.7-5.05A.85.85,0,0,0,350.16,371Zm18.06,6.65-.52-.72a88.6,88.6,0,0,1-5.58-16.17c2.19,2.33,3.07,6,4.05,8.9A41.86,41.86,0,0,1,368.22,377.68Zm-7.87-7.19a67,67,0,0,1-7.74-9.1,46.48,46.48,0,0,1,8.74,8.19c2.12,2.4,4.1,4.93,6,7.51.19.46.4.91.6,1.37C365.45,375.78,362.89,373.15,360.35,370.49Z" style="opacity:0.1"></path><path d="M364.26,380.87a54.16,54.16,0,0,0,7.75,5c1.21.6,3-1.15,2.21-2.79-.35-.74-3.68-6.4-4.28-7.37-.7-1.15-3.2,1-3.86,1.53C365.22,378,363.53,380,364.26,380.87Z" style="fill:#263238"></path><path d="M370.48,381.68a57.07,57.07,0,0,1,9.62,10.14,75.69,75.69,0,0,1,7.4,11.62c4.25,8.21,7.37,17.52,7.83,26.81,0,.24-.34.32-.38.07-1.62-9.16-4-17.95-8.29-26.25a78.28,78.28,0,0,0-7.35-11.6A119.1,119.1,0,0,0,370,382.22C369.69,381.92,370.15,381.43,370.48,381.68Z" style="fill:#263238"></path><path d="M362.65,398.74a19.41,19.41,0,0,0,3.71.77,21.31,21.31,0,0,0,3.65.29,1.85,1.85,0,0,0,1.5-.81.94.94,0,0,0,.12-.22.11.11,0,0,0,.05-.14l.12-.16s0,0,0,0a.79.79,0,0,0,.17-.3c.09-.2.14-.41,0-.43a4.43,4.43,0,0,0-.43-2.1c-.47-1.16-1-2.31-1.57-3.42a18.34,18.34,0,0,0-1.89-3c-.47-.58-1.09-1.44-1.93-1.41a1,1,0,0,0-.62.23.19.19,0,0,0-.07.06,1.64,1.64,0,0,0-.45,1.15,4.15,4.15,0,0,0,1.12,2.41q1.08,1.41,2.19,2.79l-1.19-1.07c-1.05-.93-2.12-1.84-3.24-2.69a5.68,5.68,0,0,0-2.7-1.53,1.64,1.64,0,0,0-1.32.49.83.83,0,0,0-.13.18.92.92,0,0,0-.15.4,1.9,1.9,0,0,0,.81,1.66,30.25,30.25,0,0,0,3.13,2.25c1.1.77,2.2,1.52,3.32,2.24l.57.36-4.37-1.68a3.11,3.11,0,0,0-2.75-.17,1.41,1.41,0,0,0-.63.72.94.94,0,0,0-.06.15.43.43,0,0,0,0,.11.5.5,0,0,0,0,.12,1.71,1.71,0,0,0,.22,1C360.38,398,361.67,398.41,362.65,398.74Z" style="fill:#90CAF9"></path><path d="M359.63,396a14.71,14.71,0,0,0,5.42,2c2.13.46,4.3.76,6.46,1a.94.94,0,0,0,.12-.22.11.11,0,0,0,.05-.14l.12-.16s0,0,0,0a.79.79,0,0,0,.17-.3l-.16-.16a26.11,26.11,0,0,0-2.42-5c-1-1.7-2-3.92-3.82-4.94a.19.19,0,0,0-.07.06h0a20.32,20.32,0,0,0,2.63,5.22q1.09,1.71,2.25,3.39c-1.4-1.23-2.85-2.41-4.36-3.51-1.17-.85-2.38-1.66-3.62-2.4a10.38,10.38,0,0,0-2.51-1.16.83.83,0,0,0-.13.18c1.51,1.86,3.68,3.16,5.63,4.5s4.14,2.88,6.23,4.28c-2-.69-4.06-1.13-6.05-1.68a32.42,32.42,0,0,0-5.88-1.32.94.94,0,0,0-.06.15,49.89,49.89,0,0,1,6.15,1.44c1.77.5,3.59.93,5.35,1.49-1.85-.25-3.71-.48-5.55-.85a17.94,17.94,0,0,1-6-2A.5.5,0,0,0,359.63,396Zm11.91,1.73c-.13-.13-.27-.25-.41-.37a55.78,55.78,0,0,1-5.5-9.18c1.64,1.14,2.65,3.27,3.63,4.92A26.52,26.52,0,0,1,371.54,397.75Zm-5.74-3.39a41,41,0,0,1-5.91-4.56,29.53,29.53,0,0,1,6.41,3.88c1.6,1.2,3.14,2.48,4.64,3.82.18.26.36.51.55.76C369.6,397,367.69,395.66,365.8,394.36Z" style="opacity:0.1"></path><path d="M369.54,400.22a34.3,34.3,0,0,0,5.38,2c.82.21,1.69-1.09,1-2-.31-.41-3.09-3.44-3.57-4s-1.84,1-2.17,1.44S369,399.78,369.54,400.22Z" style="fill:#263238"></path><path d="M373.44,399.91a34.81,34.81,0,0,1,7.2,5,46.8,46.8,0,0,1,6,6.15,41.74,41.74,0,0,1,8.25,15.4c0,.14-.16.24-.22.09a56.53,56.53,0,0,0-8.47-15,48.34,48.34,0,0,0-6-6.14,74.1,74.1,0,0,0-7-5.07C373,400.16,373.21,399.79,373.44,399.91Z" style="fill:#263238"></path><path d="M443.86,407.55a30.45,30.45,0,0,1-5.74,1.91,34.34,34.34,0,0,1-5.75,1.11,2.93,2.93,0,0,1-2.53-1,1.94,1.94,0,0,1-.23-.33.19.19,0,0,1-.11-.22,2.24,2.24,0,0,0-.22-.22h0a1.51,1.51,0,0,1-.33-.46c-.17-.29-.29-.62-.14-.66a7.19,7.19,0,0,1,.31-3.43c.53-1.92,1.15-3.84,1.87-5.7a29.51,29.51,0,0,1,2.47-5c.63-1,1.47-2.49,2.8-2.6a1.61,1.61,0,0,1,1,.26.36.36,0,0,1,.12.08,2.59,2.59,0,0,1,.92,1.76,6.64,6.64,0,0,1-1.33,4q-1.47,2.43-3,4.83l1.68-1.91c1.5-1.68,3.05-3.31,4.66-4.87,1.13-1.08,2.41-2.61,4-2.92a2.62,2.62,0,0,1,2.17.54,1.55,1.55,0,0,1,.25.26,1.85,1.85,0,0,1,.31.61,3.05,3.05,0,0,1-1,2.79,48.37,48.37,0,0,1-4.56,4.14q-2.4,2.11-4.87,4.16l-.84.67c2.21-1.17,4.44-2.31,6.64-3.46,1.32-.69,2.85-1.43,4.34-.77a2.29,2.29,0,0,1,1.13,1,1.63,1.63,0,0,1,.11.23l.06.17a1.21,1.21,0,0,1,.05.18,2.77,2.77,0,0,1-.16,1.62C447.33,406,445.37,406.85,443.86,407.55Z" style="fill:#90CAF9"></path><path d="M448.12,402.5c-2.65,2.08-6,3.21-9.14,4.22-2.85.91-5.75,1.62-8.65,2.34,2.69-1.21,5.5-2.21,8.23-3.33a80.8,80.8,0,0,1,9.5-3.4,1.63,1.63,0,0,0-.11-.23,52.27,52.27,0,0,0-9.11,3.16c-3.06,1.24-6.31,2.33-9.3,3.78,3.06-2.61,6.08-5.29,9.12-7.93,2.85-2.48,6.07-4.94,8.13-8.18a1.55,1.55,0,0,0-.25-.26,16.46,16.46,0,0,0-3.77,2.31c-1.84,1.39-3.61,2.9-5.32,4.46-2.2,2-4.28,4.16-6.29,6.36q1.53-2.87,3-5.79a33.16,33.16,0,0,0,3.23-8.77l0,0a.36.36,0,0,0-.12-.08c-2.65,1.94-3.88,5.66-5.17,8.54a41,41,0,0,0-2.93,8.37l-.24.27a1.51,1.51,0,0,0,.33.46h0a2.24,2.24,0,0,1,.22.22.19.19,0,0,0,.11.22,1.94,1.94,0,0,0,.23.33c3.39-.79,6.78-1.66,10.08-2.77,2.93-1,5.93-2.07,8.25-4.11A1.21,1.21,0,0,0,448.12,402.5Zm-15.77-2.67c1.26-2.8,2.48-6.36,4.87-8.48a87.74,87.74,0,0,1-7.07,15.58l-.59.66A42.54,42.54,0,0,1,432.35,399.83Zm-2.61,8.57.73-1.31c2.14-2.39,4.35-4.72,6.69-6.91a46.76,46.76,0,0,1,9.48-7.33,66.17,66.17,0,0,1-8.57,8.33C435.3,403.59,432.5,406,429.74,408.4Z" style="opacity:0.1"></path><path d="M433.19,411.15a53.48,53.48,0,0,1-8.18,4.24c-1.26.48-2.87-1.43-1.94-3,.42-.7,4.28-6,5-6.93.81-1.08,3.09,1.27,3.7,1.89C432.52,408.16,434,410.35,433.19,411.15Z" style="fill:#263238"></path><path d="M426.93,411.37a56.48,56.48,0,0,0-10.53,9.18,76,76,0,0,0-8.47,10.86c-5,7.78-9,16.76-10.33,26,0,.24.31.35.38.1,2.47-9,5.67-17.49,10.72-25.35a78.93,78.93,0,0,1,8.42-10.85A119.11,119.11,0,0,1,427.38,412C427.69,411.68,427.28,411.15,426.93,411.37Z" style="fill:#263238"></path><path d="M430,367.06c-.51,1-5.68,6.25-7.71,7.9-1.25,1-3.79-.55-3.32-2.67.21-1,2.59-8.45,3-9.73.51-1.54,4,.27,4.91.75C428.15,363.92,430.67,365.85,430,367.06Z" style="fill:#263238"></path><path d="M444.55,375.58a43.5,43.5,0,0,0-11.63,11.48c-3.09,4.66-5.33,9.81-7.84,14.79-3.95,7.83-9.15,15.9-17.71,19.14a.34.34,0,0,1-.43-.43.06.06,0,0,1,0-.06A59.71,59.71,0,0,1,411,407.79c6.51-14.37,18.6-26.66,33.21-32.79C444.6,374.85,444.85,375.37,444.55,375.58Z" style="fill:#263238"></path><path d="M423,369.66a68,68,0,0,0-8.53,14.39,92.13,92.13,0,0,0-5.54,15.54C406.18,410.3,405,422,407,433a.24.24,0,0,0,.47,0c-.56-11.11-.13-22,2.66-32.83a93.29,93.29,0,0,1,5.49-15.5,140.32,140.32,0,0,1,8.15-14.44C424,369.73,423.32,369.28,423,369.66Z" style="fill:#263238"></path><path d="M430,376.51a5.07,5.07,0,0,1-.56-.05l-.35,0a6.25,6.25,0,0,1-4.74-4h0l-.4,0c-1.41.1-6.07.14-8.49-3.44a5.8,5.8,0,0,1-.75-1.52,4.77,4.77,0,0,1-.13-.47c-.67-2.94,1.13-5.73,1.84-6.67l.26-.34-.11-.07c-.69-.49-4.45-3.37-2.83-7.53a7.08,7.08,0,0,1,.76-1.48c.09-.14.2-.28.3-.41a6.6,6.6,0,0,1,4.84-2.48h.28s0-.14,0-.38a10,10,0,0,1,.78-4,1.47,1.47,0,0,1,.1-.22,6.61,6.61,0,0,1,3.53-3.4,7.23,7.23,0,0,1,.82-.28l.18-.05a6.11,6.11,0,0,1,2.45-.14l.2,0a7.45,7.45,0,0,1,4.2,2.58l.12.16.09,0c.63-.3,4.85-2.08,7.9.47a6.06,6.06,0,0,1,2.23,6.24.72.72,0,0,1,.17,0,2.48,2.48,0,0,1,.42.09,7,7,0,0,1,3.68,2.34l.18.23a7.28,7.28,0,0,1,1.24,3.06,6.81,6.81,0,0,1-3.73,7.19l-.26.13-.05,0s1.68,5.13-.71,8.39a6.16,6.16,0,0,1-5.11,2.33h-.46a7.38,7.38,0,0,1-1.38-.17,8,8,0,0,1-2.84,2.89c-.12.08-.25.14-.38.21A6.51,6.51,0,0,1,430,376.51Z" style="fill:#90CAF9"></path><path d="M430.25,362a37.28,37.28,0,0,0-.27-4.48l-.12.15a35.2,35.2,0,0,1-2.73,8.92c-.66,1.58-1.39,3.13-2.16,4.66-.21.39-.4.79-.61,1.19l-.4,0,.46-.86c.87-1.68,1.68-3.38,2.41-5.13a58,58,0,0,0,2.72-8.86.16.16,0,0,1,0-.15l0-.06c0-.05,0-.1,0-.15a52,52,0,0,1-7.63,5.58c-1.62,1.06-3.24,2.11-4.88,3.13-.79.49-1.59,1-2.41,1.54a4.77,4.77,0,0,1-.13-.47c.67-.4,1.35-.78,2-1.18,1.58-1,3.15-2,4.72-3a99.73,99.73,0,0,0,8.32-5.95l0,0c-2.71.94-5.51,1.62-8.29,2.3-1.58.38-3.16.75-4.73,1.14l-.14,0,.26-.34-.11-.07L421,358.9c2.86-.69,5.72-1.42,8.57-2.16h0c-2-.34-4-.7-6.05-.88s-4.37-.08-6.57-.16a.06.06,0,0,1,0-.11,29.13,29.13,0,0,1,6.6-.05,37.33,37.33,0,0,1,5.65.81l-.34-.27a63.26,63.26,0,0,0-7.46-3.25c-1.47-.51-3-1-4.47-1.34-.81-.2-1.63-.36-2.44-.52.09-.14.2-.28.3-.41a43.27,43.27,0,0,1,6.9,2,45.66,45.66,0,0,1,6.22,2.7c-1.48-1.3-2.9-2.68-4.35-4-1.23-1.13-2.6-2.14-3.93-3.19h.28s0-.14,0-.38c1.22,1,2.44,2,3.61,3.05,1.87,1.72,3.7,3.48,5.58,5.18l.44.25a60.23,60.23,0,0,1-8.85-12.44,1.47,1.47,0,0,1,.1-.22,57.27,57.27,0,0,0,3.73,6c1.59,2.21,3.4,4.24,5.12,6.35-1-2.68-1.74-5.49-2.51-8.23-.72-2.59-1.42-5.19-2-7.81l.18-.05c.68,2.53,1.32,5.06,2,7.59.8,2.81,1.76,5.6,2.55,8.42a80.5,80.5,0,0,0-2.13-16.15l.2,0a52.59,52.59,0,0,1,2.16,13.55c.17-1.73.45-3.47.74-5.15a55,55,0,0,1,1.3-5.82l.12.16.09,0c-.47,2-.93,4.07-1.28,6.14-.44,2.57-.6,5.15-.94,7.73v.07h0a21.12,21.12,0,0,1,3.12-6.15,25.47,25.47,0,0,1,4.67-5.52.06.06,0,0,1,.08.08,28.57,28.57,0,0,0-4.46,5.63,28.05,28.05,0,0,0-2.93,5.55l.24-.19c3-3.46,7.4-5.23,11.79-6.59a2.48,2.48,0,0,1,.42.09,48.18,48.18,0,0,0-6.2,2.46,18.24,18.24,0,0,0-4,2.71,21.58,21.58,0,0,1,5.27-2,25,25,0,0,1,8.64-.79l.18.23a27.51,27.51,0,0,0-8.33.81,20.77,20.77,0,0,0-6.88,2.87c-.31.31-.61.64-.91,1,4.62-1.15,9.76-1.63,14.39-.45a.16.16,0,0,1-.06.31,57.14,57.14,0,0,0-7.4-.51,37.83,37.83,0,0,0-7.1.85c-.06.07-.11.15-.17.21a60.79,60.79,0,0,1,8.55,2.54,49.3,49.3,0,0,1,5.42,2.64l-.26.13c-1.85-.94-3.73-1.83-5.66-2.59A65.45,65.45,0,0,0,431,357.3a36.24,36.24,0,0,1,5.52,5.27,39.05,39.05,0,0,1,5.07,7.17c.06.1-.08.17-.14.08a61.91,61.91,0,0,0-5.33-7.14,65.24,65.24,0,0,0-4.91-4.79,40.61,40.61,0,0,1,4.4,7.67,44.5,44.5,0,0,1,2.72,7.34h-.46a55.94,55.94,0,0,0-2.67-7.33,73,73,0,0,0-4.75-8.28s0,0-.05,0h0a47.28,47.28,0,0,1,2.5,9.9,54,54,0,0,1,.77,8.45c-.12.08-.25.14-.38.21a66.71,66.71,0,0,0-.67-8.8,80.55,80.55,0,0,0-2.46-9.73l-.05.06a20.87,20.87,0,0,1,.33,4q.12,3,0,6.05a65.83,65.83,0,0,1-1,9l-.35,0a84.43,84.43,0,0,0,1-8.58C430.25,365.89,430.29,363.94,430.25,362Z" style="opacity:0.1"></path><path d="M432.64,355.68c-.11.08-.21,0-.24-.1s0,0,0-.05a5.56,5.56,0,0,1,.84-4.65,11.74,11.74,0,0,1,4.32-3.65.16.16,0,0,1,.23.18A12.61,12.61,0,0,1,432.64,355.68Z" style="opacity:0.1"></path><path d="M428.75,358.54a.16.16,0,0,1,.24.12.07.07,0,0,1,0,0,5.61,5.61,0,0,1-1.31,4.54,11.65,11.65,0,0,1-4.67,3.19.16.16,0,0,1-.22-.2A12.66,12.66,0,0,1,428.75,358.54Z" style="opacity:0.1"></path><path d="M420.44,351.31a.15.15,0,0,1,.08-.25s0-.05.05-.05a5.63,5.63,0,0,1,4.68.63,11.58,11.58,0,0,1,3.83,4.16.16.16,0,0,1-.16.24A12.61,12.61,0,0,1,420.44,351.31Z" style="opacity:0.1"></path><path d="M432,357.93c-.12-.23.22-.4.36-.2,3.09,0,5.4,2.41,7.05,4.79.06.1,0,.28-.1.3C436.1,363.15,433.45,360.57,432,357.93Z" style="opacity:0.1"></path><path d="M427,346.91c.05-.25.42-.17.4.07,2.43,1.92,2.7,5.27,2.48,8.16,0,.12-.14.24-.26.16C426.83,353.53,426.39,349.85,427,346.91Z" style="opacity:0.1"></path><path d="M429.68,361.47c-.35-.21-.54-.61-.9-.79s-.71-.05-1-.19a2,2,0,0,1-1-1,2.07,2.07,0,0,1-.13-1.32c.12-.58.31-.56.06-1.09-.8-1.72.28-3.63,2.22-3.33a1.69,1.69,0,0,1,1.46-1.37,2.41,2.41,0,0,1,2.41,1.65,1.81,1.81,0,0,1,1.49,3,2.14,2.14,0,0,1,.52,2.27,1.76,1.76,0,0,1-.88.94c-.31.15-.79,0-1,.15s-.53.68-.85.92a2,2,0,0,1-1.11.41A2.2,2.2,0,0,1,429.68,361.47Z" style="fill:#263238"></path><path d="M387.88,348.19c.3,1.24,4.69,8.57,6.53,11,1.13,1.49,4.42.42,4.47-2.1,0-1.13-.63-10.21-.77-11.78-.16-1.87-4.57-.77-5.74-.49C390.86,345.17,387.5,346.65,387.88,348.19Z" style="fill:#263238"></path><path d="M369.24,353.84a50.56,50.56,0,0,1,10,16.07c2.21,6.09,3.33,12.49,4.8,18.78,2.32,9.88,6,20.38,14.74,26.35a.39.39,0,0,0,.6-.36.15.15,0,0,0,0-.07,69.34,69.34,0,0,0-1.19-15.42c-3.41-17.94-13.68-35.06-28.46-45.93C369.37,353,369,353.52,369.24,353.84Z" style="fill:#263238"></path><path d="M395.09,353a78.09,78.09,0,0,1,5.68,18.51,105.26,105.26,0,0,1,2,19c.2,12.81-1.67,26.29-6.84,38.09-.13.31-.61.19-.51-.15,3.64-12.35,6.12-24.74,5.92-37.68a108.46,108.46,0,0,0-2-18.93c-1.23-6.36-3.3-12.32-5.25-18.47C394,352.84,394.84,352.51,395.09,353Z" style="fill:#263238"></path><path d="M405.63,351.14c-.15.15-.3.28-.45.41l-.31.24a6.77,6.77,0,0,1-6.64.82h0L398,353c-1,1.19-4.37,4.91-9,4.19a6.42,6.42,0,0,1-1.77-.54c-.16-.07-.31-.16-.46-.24-2.82-1.64-3.7-5.13-3.92-6.38a3.56,3.56,0,0,1-.07-.46l-.14,0c-.91.19-6,1-8.06-3.31a7.87,7.87,0,0,1-.61-1.69c-.05-.19-.08-.37-.11-.54a7.15,7.15,0,0,1,1.62-5.67,1.87,1.87,0,0,1,.2-.22,4,4,0,0,1-.31-.27,10.77,10.77,0,0,1-2.56-3.55,2.29,2.29,0,0,1-.1-.23,7.24,7.24,0,0,1-.09-5.31,7.65,7.65,0,0,1,.38-.86c0-.07.07-.13.1-.19a6.54,6.54,0,0,1,1.7-2l.18-.14a8.1,8.1,0,0,1,5.14-1.42l.22,0,0-.1c.24-.71,1.93-5.37,6.21-5.91a6.56,6.56,0,0,1,6.58,2.84l.16-.11a3.4,3.4,0,0,1,.38-.26,7.51,7.51,0,0,1,4.57-1.19l.31,0a7.72,7.72,0,0,1,3.34,1.28,7.35,7.35,0,0,1,2.94,8.26l-.09.3a.28.28,0,0,0,0,.05s5.3,2.46,6.11,6.76a6.66,6.66,0,0,1-1.92,5.77l-.34.36a8.75,8.75,0,0,1-1.16,1,8.75,8.75,0,0,1,.19,4.39,3.74,3.74,0,0,1-.12.45A7,7,0,0,1,405.63,351.14Z" style="fill:#90CAF9"></path><path d="M394.3,340.25a39.7,39.7,0,0,0-3.75-3.09,1.38,1.38,0,0,1,0,.2,38.1,38.1,0,0,1,5.06,8.75c.76,1.68,1.45,3.41,2.09,5.15.16.45.33.9.5,1.36L398,353c-.11-.34-.22-.67-.34-1-.7-1.93-1.44-3.83-2.28-5.7a63.86,63.86,0,0,0-5-8.69.2.2,0,0,1-.12-.13.13.13,0,0,0,0-.06l-.1-.15a55.83,55.83,0,0,1-1.2,10.16c-.36,2.07-.73,4.13-1.13,6.18-.2,1-.36,2-.57,3-.16-.07-.31-.16-.46-.24.18-.83.38-1.65.54-2.45.4-2,.77-4,1.13-5.94a110.11,110.11,0,0,0,1.43-11h-.06c-1.26,2.83-2.78,5.55-4.3,8.25-.87,1.54-1.74,3.06-2.59,4.6,0,.05-.05.09-.07.14a3.56,3.56,0,0,1-.07-.46l-.14,0,2.42-4.3q2.36-4.17,4.62-8.39h0c-1.76,1.34-3.51,2.65-5.16,4.14s-3.29,3.41-5,5.09c-.05,0-.14,0-.1-.08a32.13,32.13,0,0,1,4.83-5.26,41.67,41.67,0,0,1,4.82-3.87l-.46.06a68.21,68.21,0,0,0-8.09,3.52c-1.49.78-2.95,1.63-4.36,2.55-.76.49-1.48,1-2.21,1.55-.05-.19-.08-.37-.11-.54a48.48,48.48,0,0,1,6.7-4,50.9,50.9,0,0,1,6.73-2.93c-2.13.22-4.26.32-6.39.49-1.8.15-3.61.48-5.42.76a1.87,1.87,0,0,1,.2-.22,4,4,0,0,1-.31-.27c1.69-.24,3.38-.47,5.09-.61,2.74-.22,5.48-.36,8.22-.6l.52-.16a66,66,0,0,1-16.39-2.18,2.29,2.29,0,0,1-.1-.23,66.18,66.18,0,0,0,7.52,1.48c2.92.36,5.87.43,8.8.63-2.85-1.2-5.62-2.68-8.37-4.1-2.58-1.33-5.15-2.7-7.66-4.18,0-.07.07-.13.1-.19,2.5,1.34,5,2.7,7.51,4,2.82,1.45,5.73,2.75,8.55,4.2a87.1,87.1,0,0,0-14.36-10.23l.18-.14a57.1,57.1,0,0,1,12.33,8.3c-1.25-1.41-2.42-2.92-3.54-4.39a60.47,60.47,0,0,1-3.65-5.33l.22,0,0-.1c1.27,1.88,2.54,3.75,3.92,5.55,1.71,2.25,3.64,4.28,5.43,6.45a0,0,0,0,1,0,0l0,0v0a22.88,22.88,0,0,1-2.56-7,27.27,27.27,0,0,1-.92-7.78.06.06,0,0,1,.11,0,39.81,39.81,0,0,0,3.4,14.11c0-.12,0-.22,0-.33-.5-4.95,1.33-9.72,3.49-14.21a3.4,3.4,0,0,1,.38-.26,52,52,0,0,0-2.63,6.72,19.65,19.65,0,0,0-.83,5.2,23.82,23.82,0,0,1,2.27-5.69,27.62,27.62,0,0,1,5.76-7.42l.31,0a29.53,29.53,0,0,0-5.5,7.2,22.21,22.21,0,0,0-2.81,7.57c0,.47.06.95.11,1.44,2.49-4.51,5.91-8.94,10.26-11.73.16-.1.34.14.2.27a64.64,64.64,0,0,0-5.87,5.48,41.23,41.23,0,0,0-4.56,6.26c0,.1,0,.2,0,.29a66.71,66.71,0,0,1,8.32-4.9,53.46,53.46,0,0,1,6.09-2.34l-.09.3a66.2,66.2,0,0,0-6.22,2.58,70.37,70.37,0,0,0-7.37,4.29,38.72,38.72,0,0,1,8.25-.48,43,43,0,0,1,9.43,1.27c.11,0,.06.2-.05.18a67.31,67.31,0,0,0-9.59-1.06,70.3,70.3,0,0,0-7.41.36,44.93,44.93,0,0,1,9.32,2.17,48.44,48.44,0,0,1,7.82,3.27l-.34.36a61.47,61.47,0,0,0-7.79-3.3,78.93,78.93,0,0,0-10.06-2.35.05.05,0,0,1-.05,0h0a51.28,51.28,0,0,1,9.69,5.33,59,59,0,0,1,7.26,5.63,3.74,3.74,0,0,1-.12.45,73.33,73.33,0,0,0-7.46-6,88,88,0,0,0-9.52-5.22.25.25,0,0,0,0,.08,23,23,0,0,1,3.42,2.69c1.65,1.44,3.25,2.93,4.77,4.5a73,73,0,0,1,6.47,7.43l-.31.24a88.92,88.92,0,0,0-6-7.15C397.39,343.12,395.87,341.65,394.3,340.25Z" style="opacity:0.1"></path><path d="M391.06,333.68a.17.17,0,0,1-.26.13.06.06,0,0,1-.07,0,6.1,6.1,0,0,1-3.07-4.1,12.65,12.65,0,0,1,.31-6.11.17.17,0,0,1,.31-.06A13.69,13.69,0,0,1,391.06,333.68Z" style="opacity:0.1"></path><path d="M390.46,338.88a.16.16,0,0,1,.26-.1.08.08,0,0,1,.08,0,6.08,6.08,0,0,1,2.63,4.39,12.66,12.66,0,0,1-.93,6.05.18.18,0,0,1-.32,0A13.71,13.71,0,0,1,390.46,338.88Z" style="opacity:0.1"></path><path d="M378.59,340.13a.17.17,0,0,1-.14-.25s0-.05,0-.08a6.07,6.07,0,0,1,4-3.24,12.67,12.67,0,0,1,6.12,0,.17.17,0,0,1,.07.31A13.67,13.67,0,0,1,378.59,340.13Z" style="opacity:0.1"></path><path d="M392.4,335.82c-.27-.07-.15-.46.11-.42,2.26-2.47,5.9-2.51,9-2,.13,0,.25.17.16.29C399.54,336.46,395.54,336.66,392.4,335.82Z" style="opacity:0.1"></path><path d="M379.92,331.72c-.17-.22.17-.46.35-.27,3.31-.5,6.16,1.76,8.29,4.06.09.1.09.29-.06.33C385.07,336.7,381.83,334.34,379.92,331.72Z" style="opacity:0.1"></path><path d="M393.47,340.31c-.43.13-.89,0-1.3.13s-.57.52-.9.66a2.13,2.13,0,0,1-1.51.07,2.17,2.17,0,0,1-1.15-.87c-.37-.52-.21-.66-.82-.85-2-.64-2.67-2.91-1-4.22a1.8,1.8,0,0,1,0-2.16,2.6,2.6,0,0,1,3.08-.7,2,2,0,0,1,3.5,1.06,2.34,2.34,0,0,1,2.19,1.26,2,2,0,0,1,.1,1.4c-.12.35-.56.65-.65.93s.15.92.1,1.34a2.28,2.28,0,0,1-.49,1.19A2.43,2.43,0,0,1,393.47,340.31Z" style="fill:#263238"></path><polygon points="439.91 462.07 373.7 462.07 376.62 431.57 377.26 424.85 436.35 424.85 436.99 431.57 439.91 462.07" style="fill:#455a64"></polygon><polygon points="436.79 429.43 376.62 431.57 377.26 424.85 436.35 424.85 436.79 429.43" style="fill:#263238"></polygon><rect x="373.48" y="419.13" width="66.65" height="8.1" style="fill:#455a64"></rect></g><g id="freepik--Table--inject-30"><path d="M51.68,462.07c127.06-.61,269.58-.62,396.64,0-127.06.62-269.58.61-396.64,0Z" style="fill:#263238"></path></g><g id="freepik--speech-bubble--inject-30"><path d="M205.76,114.09a4.51,4.51,0,1,0,4.51-4.51A4.51,4.51,0,0,0,205.76,114.09Z" style="fill:#fff"></path><path d="M205.76,114.09a4.26,4.26,0,0,0,8.52,0,4.26,4.26,0,0,0-8.52,0Zm0,0c.18-6.28,9.31-6.33,9.52,0-.21,6.32-9.34,6.27-9.52,0Z" style="fill:#263238"></path><circle cx="200.22" cy="100.54" r="6.49" style="fill:#fff"></circle><path d="M193.72,100.54a6.25,6.25,0,1,0,10.78-4.29c-3.72-4.09-10.86-1.29-10.78,4.29Zm0,0a6.75,6.75,0,1,1,11.39,4.89,6.77,6.77,0,0,1-11.39-4.89Z" style="fill:#263238"></path><ellipse cx="146.6" cy="75.29" rx="51.86" ry="38.61" style="fill:#fff"></ellipse><path d="M96.16,66.32c-6,18.53,7.7,35.33,24.24,42.13a67.14,67.14,0,0,0,51.93-.12c10.72-4.59,20.59-12.87,24.23-24.22,7.71-25.63-18.13-43.88-40.9-46.58C133,34.34,104.44,43,96.16,66.32Zm0,0C104.41,42.89,133,34.12,155.72,37c11.82,1.54,23.57,6.07,32.28,14.42,8.85,8.18,13.49,21.26,9.51,33-10.46,29.21-51.56,36-77.23,24.32-16.48-7-30.2-23.86-24.12-42.41Z" style="fill:#263238"></path></g><g id="freepik--Symbol--inject-30"><path d="M146.89,77.38v3.81A2.8,2.8,0,0,1,144,84.06a2.88,2.88,0,0,1-2.87-2.87v-6.1c0-.06.06-.06.06-.12s-.06-.06-.06-.12A3,3,0,0,1,144,72a6.57,6.57,0,1,0,0-13.14,6.5,6.5,0,0,0-5.63,3.22,2.9,2.9,0,0,1-4,1.06,2.86,2.86,0,0,1-1-3.93,12.33,12.33,0,1,1,13.49,18.19Zm0,12.84v1.06A2.8,2.8,0,0,1,144,94.15a2.88,2.88,0,0,1-2.87-2.87V90.22A2.92,2.92,0,0,1,144,87.35,2.84,2.84,0,0,1,146.89,90.22Z" style="fill:#90CAF9"></path></g></svg>