<?xml version="1.0" encoding="utf-8"?>
<svg width="1344.2684px" height="1312.1738px" viewBox="0 0 1344.2684 1312.1738" version="1.1" xmlns:xlink="http://www.w3.org/1999/xlink" xmlns="http://www.w3.org/2000/svg">
  <defs>
    <path d="M0 0L1344.27 0L1344.27 1312.17L0 1312.17L0 0Z" id="path_1" />
    <clipPath id="mask_1">
      <use xlink:href="#path_1" />
    </clipPath>
  </defs>
  <g id="undraw_no_data_re_kwbl">
    <path d="M0 0L1344.27 0L1344.27 1312.17L0 1312.17L0 0Z" id="Background" fill="#FFFFFF" fill-opacity="0" fill-rule="evenodd" stroke="none" />
    <path d="M853.397 295.104L491.175 295.104C473.988 295.124 460.061 309.052 460.04 326.238L460.04 1131.28L455.889 1132.55L367.03 1159.76C358.261 1162.43 348.984 1157.5 346.295 1148.74L81.9802 285.369C79.3018 276.599 84.235 267.319 93.0021 264.633L229.933 222.705L626.902 101.196L763.832 59.2679C768.041 57.9726 772.592 58.4044 776.482 60.4681C780.372 62.5318 783.281 66.0578 784.569 70.2688L852.131 290.952L853.397 295.104Z" id="Shape" fill="#373A40" stroke="none" />
    <path d="M932.438 290.952L851.01 24.978C848.274 16.0279 842.093 8.53202 833.828 4.1407C825.563 -0.250584 815.892 -1.17727 806.944 1.56466L614.427 60.4925L217.48 182.022L24.9626 240.971C6.34104 246.689 -4.13471 266.405 1.5487 285.037L279.852 1194.03C284.404 1208.86 298.092 1218.98 313.603 1219C317.1 1219 320.578 1218.47 323.919 1217.44L455.889 1177.05L460.04 1175.76L460.04 1171.42L455.889 1172.69L322.694 1213.48C306.258 1218.49 288.867 1209.25 283.817 1192.82L5.53474 283.812C3.10791 275.918 3.92143 267.383 7.79586 260.089C11.6702 252.796 18.2872 247.343 26.1869 244.935L218.704 185.986L615.652 64.4777L808.169 5.5292C811.136 4.62379 814.22 4.16214 817.322 4.15926C830.987 4.18992 843.038 13.1185 847.046 26.1819L928.1 290.952L929.387 295.104L933.705 295.104L932.438 290.952Z" id="Shape" fill="#3F3D56" stroke="none" />
    <path d="M254.643 265.312C246.431 265.306 239.182 259.947 236.769 252.097L210.034 164.77C208.583 160.033 209.074 154.913 211.398 150.537C213.722 146.162 217.69 142.889 222.428 141.439L587.616 29.6369C597.48 26.6268 607.919 32.1716 610.948 42.03L637.683 129.357C640.691 139.221 635.147 149.659 625.29 152.689L260.101 264.492C258.332 265.035 256.493 265.311 254.643 265.312L254.643 265.312Z" id="Shape" fill="#20C997" stroke="none" />
    <path d="M353.18 51.7972C353.18 28.8702 371.766 10.2841 394.693 10.2841C417.62 10.2841 436.206 28.8702 436.206 51.7972C436.206 74.7242 417.62 93.3103 394.693 93.3103C371.766 93.3103 353.18 74.7242 353.18 51.7972Z" id="Circle" fill="#20C997" fill-rule="evenodd" stroke="none" />
    <path d="M368.405 51.7972C368.405 37.2791 380.175 25.5099 394.693 25.5099C409.211 25.5099 420.98 37.2791 420.98 51.7972C420.98 66.3153 409.211 78.0846 394.693 78.0846C380.175 78.0846 368.405 66.3153 368.405 51.7972Z" id="Circle" fill="#2C2E33" fill-rule="evenodd" stroke="none" />
    <path d="M1250.86 1219L549.294 1219C539.554 1218.99 531.662 1211.1 531.651 1201.36L531.651 360.717C531.662 350.977 539.555 343.085 549.294 343.074L1250.86 343.074C1260.6 343.086 1268.5 350.978 1268.51 360.717L1268.51 1201.36C1268.5 1211.1 1260.6 1218.99 1250.87 1219L1250.86 1219Z" id="Shape" fill="#5C5F66" stroke="none" />
    <path d="M928.1 290.952L491.175 290.952C471.698 290.98 455.916 306.762 455.889 326.238L455.889 1172.69L460.04 1171.42L460.04 326.238C460.061 309.052 473.988 295.125 491.174 295.104L929.387 295.104L928.1 290.952ZM1308.98 290.952L491.175 290.952C471.698 290.98 455.916 306.762 455.889 326.238L455.889 1276.89C455.917 1296.36 471.699 1312.15 491.175 1312.17L1308.98 1312.17C1328.46 1312.15 1344.24 1296.36 1344.27 1276.89L1344.27 326.238C1344.24 306.762 1328.46 290.98 1308.98 290.952L1308.98 290.952ZM1340.12 1276.89C1340.1 1294.07 1326.17 1308 1308.98 1308.02L491.175 1308.02C473.988 1308 460.061 1294.07 460.04 1276.89L460.04 326.238C460.061 309.052 473.988 295.125 491.174 295.104L1308.98 295.104C1326.17 295.125 1340.1 309.052 1340.12 326.238L1340.12 1276.89Z" id="Shape" fill="#3F3D56" fill-rule="evenodd" stroke="none" />
    <path d="M1091.04 382.281L709.119 382.281C698.807 382.269 690.45 373.913 690.438 363.6L690.438 272.271C690.45 261.959 698.807 253.602 709.119 253.591L1091.04 253.591C1101.35 253.602 1109.71 261.959 1109.72 272.271L1109.72 363.6C1109.71 373.913 1101.35 382.27 1091.04 382.281L1091.04 382.281Z" id="Shape" fill="#20C997" stroke="none" />
    <path d="M858.566 218.304C858.566 195.377 877.152 176.791 900.079 176.791C923.006 176.791 941.592 195.377 941.592 218.304C941.592 241.231 923.006 259.818 900.079 259.818C877.152 259.818 858.566 241.231 858.566 218.304Z" id="Circle" fill="#20C997" fill-rule="evenodd" stroke="none" />
    <path d="M874.793 218.304C874.793 204.34 886.114 193.019 900.079 193.019C914.043 193.019 925.364 204.34 925.364 218.304C925.364 232.269 914.043 243.59 900.079 243.59C886.114 243.59 874.793 232.269 874.793 218.304Z" id="Circle" fill="#2C2E33" fill-rule="evenodd" stroke="none" />
  </g>
</svg>