<?xml version="1.0" encoding="utf-8"?>
<svg width="647.6362px" height="632.1738px" viewBox="0 0 647.6362 632.1738" version="1.1" xmlns:xlink="http://www.w3.org/1999/xlink" xmlns="http://www.w3.org/2000/svg">
  <defs>
    <path d="M0 0L647.636 0L647.636 632.174L0 632.174L0 0Z" id="path_1" />
    <clipPath id="mask_1">
      <use xlink:href="#path_1" />
    </clipPath>
  </defs>
  <g id="undraw_no_data_re_kwbl-(1)">
    <path d="M0 0L647.636 0L647.636 632.174L0 632.174L0 0Z" id="Background" fill="#FFFFFF" fill-opacity="0" fill-rule="evenodd" stroke="none" />
    <path d="M411.146 142.174L236.636 142.174C228.356 142.184 221.646 148.894 221.636 157.174L221.636 545.024L219.636 545.634L176.826 558.744C172.602 560.032 168.132 557.656 166.836 553.434L39.4961 137.484C38.2057 133.259 40.5824 128.788 44.8062 127.494L110.776 107.294L302.026 48.7538L367.996 28.5538C370.024 27.9298 372.216 28.1378 374.09 29.1321C375.964 30.1263 377.366 31.8251 377.986 33.8539L410.536 140.174L411.146 142.174Z" id="Shape" fill="#F2F2F2" stroke="none" />
    <path d="M449.226 140.174L409.996 12.0338C408.678 7.72186 405.7 4.11053 401.718 1.9949C397.737 -0.120712 393.077 -0.567169 388.766 0.75383L296.016 29.1438L104.776 87.6938L12.0264 116.094C3.05496 118.849 -1.992 128.347 0.746124 137.324L134.826 575.254C137.019 582.398 143.614 587.277 151.086 587.284C152.771 587.285 154.447 587.032 156.056 586.534L219.636 567.074L221.636 566.454L221.636 564.364L219.636 564.974L155.466 584.624C147.548 587.038 139.169 582.587 136.736 574.674L2.6665 136.734C1.49731 132.931 1.88925 128.819 3.75586 125.305C5.62244 121.791 8.81033 119.164 12.6162 118.004L105.366 89.6038L296.606 31.0638L389.356 2.66385C390.786 2.22765 392.272 2.00523 393.766 2.00385C400.349 2.01862 406.155 6.32018 408.086 12.6138L447.136 140.174L447.756 142.174L449.836 142.174L449.226 140.174Z" id="Shape" fill="#3F3D56" stroke="none" />
    <path d="M122.681 127.821C118.724 127.818 115.232 125.236 114.07 121.454L101.189 79.3823C100.49 77.0999 100.727 74.6333 101.846 72.5253C102.966 70.4173 104.878 68.8406 107.16 68.1421L283.099 14.2783C287.852 12.8281 292.881 15.4995 294.34 20.249L307.22 62.3213C308.67 67.0735 305.999 72.1021 301.25 73.562L125.31 127.426C124.458 127.687 123.572 127.82 122.681 127.821L122.681 127.821Z" id="Shape" fill="#00BFA6" stroke="none" />
    <path d="M170.154 24.9547C170.154 13.909 179.108 4.95465 190.154 4.95465C201.199 4.95465 210.154 13.909 210.154 24.9547C210.154 36.0003 201.199 44.9547 190.154 44.9547C179.108 44.9547 170.154 36.0003 170.154 24.9547Z" id="Circle" fill="#00BFA6" fill-rule="evenodd" stroke="none" />
    <path d="M177.489 24.9547C177.489 17.9602 183.159 12.29 190.154 12.29C197.148 12.29 202.818 17.9602 202.818 24.9547C202.818 31.9491 197.148 37.6193 190.154 37.6193C183.159 37.6193 177.489 31.9491 177.489 24.9547Z" id="Circle" fill="#FFFFFF" fill-rule="evenodd" stroke="none" />
    <path d="M602.636 582.174L264.636 582.174C259.944 582.168 256.142 578.366 256.136 573.674L256.136 168.674C256.142 163.981 259.944 160.179 264.637 160.174L602.636 160.174C607.329 160.179 611.131 163.982 611.136 168.674L611.136 573.674C611.131 578.366 607.329 582.168 602.637 582.174L602.636 582.174Z" id="Shape" fill="#E6E6E6" stroke="none" />
    <path d="M447.136 140.174L236.636 140.174C227.253 140.187 219.65 147.79 219.636 157.174L219.636 564.974L221.636 564.364L221.636 157.174C221.646 148.894 228.356 142.184 236.636 142.174L447.756 142.174L447.136 140.174ZM630.636 140.174L236.636 140.174C227.253 140.187 219.65 147.79 219.636 157.174L219.636 615.174C219.65 624.557 227.253 632.161 236.636 632.174L630.636 632.174C640.02 632.161 647.623 624.557 647.636 615.174L647.636 157.174C647.623 147.79 640.019 140.187 630.636 140.174L630.636 140.174ZM645.636 615.174C645.626 623.454 638.917 630.164 630.637 630.174L236.636 630.174C228.356 630.164 221.646 623.454 221.636 615.174L221.636 157.174C221.646 148.894 228.356 142.184 236.636 142.174L630.636 142.174C638.916 142.184 645.626 148.894 645.636 157.174L645.636 615.174Z" id="Shape" fill="#3F3D56" fill-rule="evenodd" stroke="none" />
    <path d="M525.636 184.174L341.636 184.174C336.668 184.168 332.642 180.142 332.636 175.174L332.636 131.174C332.642 126.205 336.668 122.179 341.637 122.174L525.636 122.174C530.605 122.179 534.631 126.206 534.636 131.174L534.636 175.174C534.631 180.142 530.605 184.168 525.636 184.174L525.636 184.174Z" id="Shape" fill="#00BFA6" stroke="none" />
    <path d="M413.636 105.174C413.636 94.1281 422.591 85.1738 433.636 85.1738C444.682 85.1738 453.636 94.1281 453.636 105.174C453.636 116.22 444.682 125.174 433.636 125.174C422.591 125.174 413.636 116.22 413.636 105.174Z" id="Circle" fill="#00BFA6" fill-rule="evenodd" stroke="none" />
    <path d="M421.454 105.174C421.454 98.446 426.908 92.992 433.636 92.992C440.364 92.992 445.818 98.446 445.818 105.174C445.818 111.902 440.364 117.356 433.636 117.356C426.908 117.356 421.454 111.902 421.454 105.174Z" id="Circle" fill="#FFFFFF" fill-rule="evenodd" stroke="none" />
  </g>
</svg>