<?xml version="1.0" encoding="utf-8"?>
<svg width="690px" height="448.76013px" viewBox="0 0 690 448.76013" version="1.1" xmlns:xlink="http://www.w3.org/1999/xlink" xmlns="http://www.w3.org/2000/svg">
  <defs>
    <path d="M3.8147e-06 0L690 0L690 448.759L3.8147e-06 448.759L3.8147e-06 0Z" id="path_1" />
    <clipPath id="mask_1">
      <use xlink:href="#path_1" />
    </clipPath>
  </defs>
  <g id="undraw_fixing_bugs_w7gi-(1)">
    <path d="M3.8147e-06 0L690 0L690 448.759L3.8147e-06 448.759L3.8147e-06 0Z" id="Background" fill="#FFFFFF" fill-opacity="0" fill-rule="evenodd" stroke="none" />
    <path d="M211.813 420.111C216.481 410.027 221.146 399.794 223.172 388.869C225.198 377.943 224.348 366.086 218.545 356.609C212.743 347.133 201.317 340.707 190.414 342.849C181.459 344.609 174.268 351.662 170.057 359.759C165.847 367.856 164.158 376.989 162.52 385.968C161.991 375.768 161.43 365.403 158.042 355.768C154.654 346.132 147.982 337.153 138.473 333.425C128.964 329.696 116.594 332.628 111.582 341.528C104.521 354.066 113.884 371.653 105.765 383.534C104.372 371.617 91.9099 362.201 80.0658 364.118C68.2217 366.034 59.3647 378.899 61.8012 390.647C63.251 397.638 68.0205 403.584 73.7228 407.879C79.4251 412.175 86.057 417.154 92.6176 419.969L211.813 420.111Z" id="Shape" fill="#F2F2F2" stroke="none" />
    <path d="M68.0199 372.537C77.4281 375.826 86.9229 379.152 95.5121 384.293C103.21 388.901 110.065 395.105 114.394 403.05C116.766 407.312 118.175 412.043 118.52 416.909C118.583 417.926 120.175 417.933 120.112 416.908C119.555 407.847 115.14 399.555 109.025 392.998C102.321 385.808 93.6333 380.897 84.6638 377.087C79.3456 374.828 73.8952 372.908 68.443 371.003C67.4742 370.664 67.0576 372.201 68.0199 372.537L68.0199 372.537Z" id="Shape" fill="#FFFFFF" stroke="none" />
    <path d="M122.287 335.004C128.068 344.634 132.697 354.91 136.079 365.62C139.467 376.326 141.602 387.39 142.44 398.589C142.903 404.857 142.954 411.15 142.591 417.425C142.532 418.449 144.124 418.445 144.183 417.425C144.825 406.111 144.14 394.76 142.142 383.605C140.148 372.451 136.87 361.565 132.373 351.165C129.85 345.323 126.939 339.656 123.662 334.201C123.433 333.838 122.957 333.721 122.586 333.938C122.215 334.155 122.083 334.627 122.287 335.004L122.287 335.004Z" id="Shape" fill="#FFFFFF" stroke="none" />
    <path d="M200.188 344.147C192.012 362.517 186.258 381.872 183.072 401.725C182.177 407.302 181.484 412.906 180.994 418.537C180.905 419.558 182.497 419.552 182.585 418.537C184.318 398.728 188.6 379.225 195.323 360.512C197.212 355.251 199.292 350.063 201.562 344.95C201.974 344.022 200.603 343.212 200.188 344.147L200.188 344.147Z" id="Shape" fill="#FFFFFF" stroke="none" />
    <path d="M482.346 431.91L482.473 441.791L435.889 442.394L435.761 432.512L482.346 431.91Z" id="Rectangle" fill="#E6E6E6" fill-rule="evenodd" stroke="none" />
    <path d="M499.027 443.996L492.374 443.976L488.262 436.639L492.707 429.327L498.888 429.345C495.714 425.308 490.323 423.738 485.477 425.44C480.632 427.142 477.408 431.739 477.456 436.874C477.505 442.009 480.816 446.544 485.693 448.154C490.569 449.764 495.93 448.093 499.027 443.996L499.027 443.996Z" id="Shape" fill="#E6E6E6" stroke="none" />
    <path d="M419.208 443.996L425.861 443.976L429.973 436.639L425.528 429.327L419.347 429.345C422.521 425.308 427.912 423.738 432.757 425.44C437.603 427.142 440.827 431.739 440.779 436.874C440.73 442.009 437.419 446.544 432.542 448.154C427.666 449.764 422.305 448.093 419.208 443.996L419.208 443.996Z" id="Shape" fill="#E6E6E6" stroke="none" />
    <path d="M689 420.969L1 420.969C0.642735 420.969 0.312611 420.779 0.133976 420.469C-0.0446587 420.16 -0.0446587 419.779 0.133976 419.469C0.312611 419.16 0.642735 418.969 1 418.969L689 418.969C689.357 418.969 689.687 419.16 689.866 419.469C690.045 419.779 690.045 420.16 689.866 420.469C689.687 420.779 689.357 420.969 689 420.969L689 420.969Z" id="Shape" fill="#3F3D56" stroke="none" />
    <path d="M507.486 197.969C507.486 179.744 522.261 164.969 540.486 164.969C558.712 164.969 573.486 179.744 573.486 197.969C573.486 216.195 558.712 230.969 540.486 230.969C522.261 230.969 507.486 216.195 507.486 197.969Z" id="Circle" fill="#2F2E41" fill-rule="evenodd" stroke="none" />
    <path d="M553.859 383.226L556.401 395.219L603.871 391.124L600.12 373.423L553.859 383.226L553.859 383.226Z" id="Polygon" fill="#FFB8B8" fill-rule="evenodd" stroke="none" />
    <path d="M550.166 420.71L542.178 383.016L556.741 379.93L561.643 403.06C563.347 411.103 558.209 419.005 550.166 420.71L550.166 420.71L550.166 420.71Z" id="Shape" fill="#2F2E41" stroke="none" />
    <path d="M524.12 382.586L518.777 393.621L473.673 378.264L481.559 361.979L524.12 382.586L524.12 382.586Z" id="Polygon" fill="#FFB8B8" fill-rule="evenodd" stroke="none" />
    <path d="M511.808 399.976L522.112 378.695L535.511 385.183L518.72 419.862L518.72 419.862C511.32 416.279 508.225 407.376 511.808 399.976L511.808 399.976Z" id="Shape" fill="#2F2E41" stroke="none" />
    <path d="M435.259 360.793C438.385 361.375 441.608 360.543 444.06 358.52C446.513 356.497 447.944 353.492 447.968 350.313L522.342 281.742L503.872 267.436L436.535 339.38C431.071 339.701 426.711 344.057 426.386 349.52C426.06 354.983 429.873 359.826 435.259 360.793L435.259 360.793Z" id="Shape" fill="#FFB8B8" stroke="none" />
    <path d="M511.783 207.898C511.783 194.334 522.78 183.337 536.344 183.337C549.909 183.337 560.906 194.334 560.906 207.898C560.906 221.463 549.909 232.459 536.344 232.459C522.78 232.459 511.783 221.463 511.783 207.898Z" id="Circle" fill="#FFB8B8" fill-rule="evenodd" stroke="none" />
    <path d="M558.386 352.273C541.158 352.273 520.408 348.644 507.608 333.796L507.319 333.461L507.616 333.133C507.713 333.026 517.13 322.265 507.727 303.072L494.799 307.05L481.929 290.061L489.058 268.672L518.236 245.168C522.416 241.819 527.506 239.802 532.846 239.379C542.51 238.445 551.925 235.763 560.631 231.466C564.615 229.53 569.003 228.571 573.431 228.667L574.005 228.684C576.726 228.76 579.297 229.949 581.119 231.972C582.94 233.995 583.853 236.677 583.645 239.391C581.667 265.021 578.173 326.935 588.437 348.252L588.702 348.803L588.109 348.954C578.354 351.148 568.386 352.262 558.386 352.273L558.386 352.273Z" id="Shape" fill="#00BFA6" stroke="none" />
    <path d="M510.986 333.469C510.986 333.469 445.986 327.469 438.986 346.469C431.986 365.469 439.986 374.469 451.986 378.469C463.986 382.469 492.986 387.469 492.986 387.469L505.986 371.469L539.986 373.469C539.986 373.469 577.871 395.442 588.346 418.943C592.924 429.305 602.828 436.312 614.123 437.182C622.521 437.766 629.986 434.594 629.986 421.469C629.986 391.469 587.986 348.469 587.986 348.469L510.986 333.469Z" id="Shape" fill="#2F2E41" stroke="none" />
    <path d="M461.486 362.969C461.486 362.969 478.486 357.969 505.486 370.969" id="Shape" fill="#2F2E41" stroke="none" />
    <path d="M511.843 192.235C521.435 198.09 532.248 201.653 543.442 202.647L540.111 198.656C542.536 199.553 545.088 200.059 547.672 200.157C550.296 200.233 552.8 199.061 554.422 196.998C555.748 194.854 555.94 192.196 554.937 189.883C553.922 187.61 552.342 185.635 550.348 184.145C543.168 178.465 533.62 176.759 524.917 179.6C521.978 180.478 519.346 182.167 517.322 184.472C515.301 186.831 514.601 190.048 515.459 193.033" id="Shape" fill="#2F2E41" stroke="none" />
    <path d="M540.309 172.604C544.673 162.471 551.206 153.418 559.446 146.082C564.738 141.38 570.918 137.339 577.892 136.12C584.866 134.9 592.725 136.989 597.003 142.631C600.501 147.244 601.155 153.424 600.77 159.2C600.384 164.976 599.093 170.696 599.217 176.484C599.473 188.482 605.779 199.537 615.977 205.864C626.174 212.192 638.88 212.933 649.744 207.835C643.722 211.164 639.03 216.433 633.439 220.443C627.848 224.453 620.476 227.203 614.127 224.553C607.409 221.749 604.327 214.134 601.921 207.263L591.189 176.624C589.365 171.415 587.45 166.052 583.727 161.979C580.004 157.905 573.962 155.422 568.838 157.47C564.954 159.022 562.425 162.727 560.207 166.274C557.99 169.82 555.65 173.594 551.904 175.453C548.157 177.313 542.605 176.168 541.381 172.168" id="Shape" fill="#2F2E41" stroke="none" />
    <path d="M532.729 328.27L539.625 321.192L572.992 353.706L566.095 360.784L532.729 328.27Z" id="Rectangle" fill="#E6E6E6" fill-rule="evenodd" stroke="none" />
    <path d="M566.51 354.289C562.701 358.198 562.782 364.455 566.691 368.264C570.6 372.073 576.856 371.992 580.665 368.083C584.474 364.174 584.394 357.917 580.485 354.108C576.576 350.299 570.319 350.38 566.51 354.289L566.51 354.289ZM576.621 364.142C574.989 365.817 572.307 365.852 570.632 364.219C568.957 362.587 568.922 359.905 570.555 358.23C572.187 356.555 574.868 356.52 576.544 358.153C578.219 359.785 578.253 362.466 576.621 364.142L576.621 364.142Z" id="Shape" fill="#E6E6E6" fill-rule="evenodd" stroke="none" />
    <path d="M529.48 307.928L534.17 312.646L531.89 320.742L523.576 322.77L519.218 318.386C518.608 323.485 521.31 328.408 525.939 330.63C530.569 332.853 536.1 331.882 539.696 328.217C543.293 324.551 544.158 319.003 541.849 314.416C539.539 309.83 534.566 307.221 529.48 307.928L529.48 307.928Z" id="Shape" fill="#E6E6E6" stroke="none" />
    <path d="M548.736 352.359C548.312 352.359 547.889 352.335 547.468 352.289C542.385 351.699 538.376 347.69 537.788 342.607C537.432 339.492 538.423 336.374 540.51 334.035C542.597 331.695 545.584 330.358 548.719 330.357C549.209 330.36 549.699 330.396 550.185 330.467L583.763 294.722L580.258 283.037L597.863 275.145L602.797 287.205C606.192 295.594 603.681 305.217 596.62 310.878L559.659 340.279C559.698 340.637 559.718 340.997 559.719 341.357C559.717 344.485 558.385 347.465 556.056 349.553C554.05 351.366 551.44 352.366 548.736 352.359L548.736 352.359Z" id="Shape" fill="#FFB8B8" stroke="none" />
    <path d="M574.986 233.469L574.986 233.469C577.339 232.424 580.016 232.383 582.399 233.356C584.782 234.329 586.666 236.232 587.614 238.625L604.986 282.469L577.986 300.469L574.986 233.469Z" id="Shape" fill="#00BFA6" stroke="none" />
    <path d="M448.486 243.707L448.486 25.2623C448.467 11.3194 437.169 0.0201874 423.225 0L79.9539 0C66.01 0.0197449 54.7113 11.3185 54.6916 25.2623L54.6916 243.707C54.712 257.652 66.0113 268.95 79.9551 268.969L423.224 268.969C437.168 268.949 448.467 257.651 448.486 243.707L448.486 243.707ZM79.9539 265.997C67.6495 265.982 57.6786 256.011 57.6636 243.707L57.6636 25.2623C57.6777 12.9595 67.6479 2.9879 79.9522 2.97203L423.224 2.97203C435.528 2.987 445.499 12.9579 445.514 25.2623L445.514 243.707C445.499 256.012 435.528 265.982 423.223 265.997L79.9539 265.997Z" id="Shape" fill="#3F3D56" fill-rule="evenodd" stroke="none" />
    <path d="M445.514 39.3033L57.6636 39.3033C57.1316 39.305 56.6393 39.0221 56.3727 38.5617C56.1063 38.1012 56.1063 37.5334 56.3727 37.0729C56.6393 36.6124 57.1316 36.3296 57.6636 36.3313L445.514 36.3313C446.333 36.3339 446.995 36.9984 446.995 37.8173C446.995 38.6361 446.333 39.3006 445.514 39.3033L445.514 39.3033Z" id="Shape" fill="#3F3D56" stroke="none" />
    <path d="M75.4958 20.8043C75.4958 16.7007 78.8224 13.3742 82.9259 13.3742C87.0294 13.3742 90.356 16.7007 90.356 20.8043C90.356 24.9078 87.0294 28.2343 82.9259 28.2343C78.8224 28.2343 75.4958 24.9078 75.4958 20.8043Z" id="Circle" fill="#00BFA6" fill-rule="evenodd" stroke="none" />
    <path d="M100.758 20.8043C100.758 16.7007 104.085 13.3742 108.188 13.3742C112.292 13.3742 115.618 16.7007 115.618 20.8043C115.618 24.9078 112.292 28.2343 108.188 28.2343C104.085 28.2343 100.758 24.9078 100.758 20.8043Z" id="Circle" fill="#00BFA6" fill-rule="evenodd" stroke="none" />
    <path d="M126.02 20.8043C126.02 16.7007 129.347 13.3742 133.451 13.3742C137.554 13.3742 140.881 16.7007 140.881 20.8043C140.881 24.9078 137.554 28.2343 133.451 28.2343C129.347 28.2343 126.02 24.9078 126.02 20.8043Z" id="Circle" fill="#00BFA6" fill-rule="evenodd" stroke="none" />
    <path d="M188.979 199.232C188.713 199.232 188.459 199.126 188.271 198.939C188.084 198.751 187.979 198.497 187.979 198.232C187.979 187.805 183.408 181.989 176.033 175.985C175.755 175.759 175.618 175.403 175.675 175.049C175.732 174.696 175.973 174.399 176.307 174.272C176.642 174.145 177.019 174.207 177.296 174.434C185.126 180.809 189.979 187.014 189.979 198.232C189.979 198.497 189.873 198.752 189.686 198.939C189.498 199.127 189.244 199.232 188.978 199.232L188.979 199.232Z" id="Shape" fill="#000000" stroke="none" />
    <path d="M103.317 199.232C103.051 199.232 102.797 199.126 102.609 198.939C102.422 198.751 102.316 198.497 102.317 198.232C102.317 187.014 107.169 180.809 114.999 174.434C115.276 174.207 115.653 174.145 115.988 174.272C116.322 174.399 116.564 174.696 116.62 175.049C116.677 175.403 116.54 175.759 116.262 175.985C108.887 181.989 104.317 187.806 104.317 198.232C104.317 198.497 104.211 198.752 104.024 198.939C103.836 199.127 103.582 199.232 103.316 199.232L103.317 199.232Z" id="Shape" fill="#000000" stroke="none" />
    <path d="M180.413 130.701C179.99 130.702 179.613 130.435 179.471 130.037C179.329 129.638 179.453 129.193 179.781 128.926C187.362 122.755 187.979 113.988 187.979 104.003C187.979 103.645 188.169 103.315 188.479 103.137C188.788 102.958 189.169 102.958 189.479 103.137C189.788 103.315 189.979 103.645 189.979 104.003C189.979 114.508 189.306 123.75 181.044 130.477C180.866 130.622 180.643 130.702 180.413 130.701L180.413 130.701Z" id="Shape" fill="#000000" stroke="none" />
    <path d="M111.882 130.166C111.653 130.167 111.43 130.087 111.252 129.942C102.989 123.215 102.317 114.215 102.317 104.003C102.317 103.645 102.507 103.315 102.817 103.137C103.126 102.958 103.507 102.958 103.817 103.137C104.126 103.315 104.317 103.645 104.317 104.003C104.317 114.039 104.92 122.208 112.514 128.391C112.842 128.658 112.967 129.103 112.825 129.501C112.683 129.9 112.306 130.166 111.882 130.166L111.882 130.166Z" id="Shape" fill="#000000" stroke="none" />
    <path d="M201.828 152.152L180.413 152.152C180.055 152.152 179.725 151.961 179.547 151.652C179.368 151.343 179.368 150.961 179.547 150.652C179.725 150.343 180.055 150.152 180.413 150.152L201.828 150.152C202.186 150.152 202.516 150.343 202.694 150.652C202.873 150.961 202.873 151.343 202.694 151.652C202.516 151.961 202.186 152.152 201.828 152.152L201.828 152.152Z" id="Shape" fill="#000000" stroke="none" />
    <path d="M111.883 152.152L90.4674 152.152C90.1102 152.152 89.7801 151.961 89.6014 151.652C89.4228 151.343 89.4228 150.961 89.6014 150.652C89.7801 150.343 90.1102 150.152 90.4674 150.152L111.883 150.152C112.24 150.152 112.57 150.343 112.749 150.652C112.928 150.961 112.928 151.343 112.749 151.652C112.57 151.961 112.24 152.152 111.883 152.152L111.883 152.152Z" id="Shape" fill="#000000" stroke="none" />
    <path d="M146.148 194.948C145.882 194.949 145.628 194.843 145.44 194.656C145.253 194.468 145.148 194.214 145.148 193.948L145.148 125.419C145.148 125.061 145.338 124.731 145.648 124.553C145.957 124.374 146.338 124.374 146.648 124.553C146.957 124.731 147.148 125.061 147.148 125.419L147.148 193.948C147.148 194.214 147.042 194.468 146.855 194.656C146.667 194.843 146.413 194.949 146.147 194.948L146.148 194.948Z" id="Shape" fill="#000000" stroke="none" />
    <path d="M146.148 194.948C126.681 194.926 110.905 179.15 110.883 159.683L110.883 133.966C110.883 117.498 124.396 107.267 146.148 107.267C168.889 107.267 181.413 116.749 181.413 133.966L181.413 159.683C181.391 179.151 165.615 194.926 146.147 194.948L146.148 194.948ZM146.148 109.267C130.067 109.267 112.883 115.756 112.883 133.966L112.883 159.683C112.875 171.574 119.213 182.564 129.509 188.512C139.805 194.459 152.492 194.459 162.788 188.511C173.083 182.563 179.421 171.573 179.413 159.683L179.413 133.966C179.413 112.476 158.571 109.267 146.148 109.267L146.148 109.267Z" id="Shape" fill="#000000" fill-rule="evenodd" stroke="none" />
    <path d="M125.651 113.441C125.242 113.441 124.873 113.192 124.722 112.811C124.144 111.366 123.81 109.834 123.734 108.28C123.77 95.9392 133.749 85.9362 146.089 85.8703L146.204 85.8703C158.527 85.9291 168.503 95.9039 168.563 108.227C168.511 109.674 168.203 111.1 167.653 112.438C167.441 112.945 166.859 113.186 166.35 112.977C165.842 112.768 165.598 112.187 165.803 111.677C166.26 110.569 166.518 109.388 166.564 108.19C166.491 96.9817 157.41 87.9202 146.201 87.8703L146.091 87.8703C134.87 87.9262 125.787 97.0102 125.732 108.232C125.803 109.549 126.089 110.846 126.579 112.07C126.702 112.378 126.664 112.727 126.478 113.001C126.292 113.276 125.982 113.44 125.651 113.441L125.651 113.441Z" id="Shape" fill="#000000" stroke="none" />
    <path d="M247.71 108.003L235.71 108.003C233.21 108.003 230.899 106.668 229.648 104.503C228.398 102.337 228.398 99.6685 229.648 97.5027C230.899 95.3369 233.21 94.0027 235.71 94.0027L247.71 94.0027C250.211 94.0027 252.522 95.3369 253.773 97.5027C255.023 99.6685 255.023 102.337 253.773 104.503C252.522 106.668 250.211 108.003 247.71 108.003L247.71 108.003Z" id="Shape" fill="#CCCCCC" stroke="none" />
    <path d="M329.71 137.503L317.71 137.503C315.21 137.503 312.899 136.168 311.648 134.003C310.398 131.837 310.398 129.168 311.648 127.003C312.899 124.837 315.21 123.503 317.71 123.503L329.71 123.503C332.211 123.503 334.522 124.837 335.773 127.003C337.023 129.168 337.023 131.837 335.773 134.003C334.522 136.168 332.211 137.503 329.71 137.503L329.71 137.503Z" id="Shape" fill="#CCCCCC" stroke="none" />
    <path d="M367.71 137.503L355.71 137.503C353.21 137.503 350.899 136.168 349.648 134.003C348.398 131.837 348.398 129.168 349.648 127.003C350.899 124.837 353.21 123.503 355.71 123.503L367.71 123.503C370.211 123.503 372.522 124.837 373.773 127.003C375.023 129.168 375.023 131.837 373.773 134.003C372.522 136.168 370.211 137.503 367.71 137.503L367.71 137.503Z" id="Shape" fill="#CCCCCC" stroke="none" />
    <path d="M405.71 137.503L393.71 137.503C391.21 137.503 388.899 136.168 387.648 134.003C386.398 131.837 386.398 129.168 387.648 127.003C388.899 124.837 391.21 123.503 393.71 123.503L405.71 123.503C408.211 123.503 410.522 124.837 411.773 127.003C413.023 129.168 413.023 131.837 411.773 134.003C410.522 136.168 408.211 137.503 405.71 137.503L405.71 137.503Z" id="Shape" fill="#CCCCCC" stroke="none" />
    <path d="M330.71 108.503L274.71 108.503C272.21 108.503 269.899 107.168 268.648 105.003C267.398 102.837 267.398 100.168 268.648 98.0027C269.899 95.8369 272.21 94.5027 274.71 94.5027L330.71 94.5027C333.211 94.5027 335.522 95.8369 336.773 98.0027C338.023 100.168 338.023 102.837 336.773 105.003C335.522 107.168 333.211 108.503 330.71 108.503L330.71 108.503Z" id="Shape" fill="#CCCCCC" stroke="none" />
    <path d="M291.71 136.503L235.71 136.503C233.21 136.503 230.899 135.168 229.648 133.003C228.398 130.837 228.398 128.168 229.648 126.003C230.899 123.837 233.21 122.503 235.71 122.503L291.71 122.503C294.211 122.503 296.522 123.837 297.773 126.003C299.023 128.168 299.023 130.837 297.773 133.003C296.522 135.168 294.211 136.503 291.71 136.503L291.71 136.503Z" id="Shape" fill="#CCCCCC" stroke="none" />
    <path d="M401.71 108.503L358.71 108.503C356.21 108.503 353.899 107.168 352.648 105.003C351.398 102.837 351.398 100.168 352.648 98.0027C353.899 95.8369 356.21 94.5027 358.71 94.5027L401.71 94.5027C404.211 94.5027 406.522 95.8369 407.773 98.0027C409.023 100.168 409.023 102.837 407.773 105.003C406.522 107.168 404.211 108.503 401.71 108.503L401.71 108.503Z" id="Shape" fill="#CCCCCC" stroke="none" />
    <path d="M247.71 167.003L235.71 167.003C233.21 167.003 230.899 165.668 229.648 163.503C228.398 161.337 228.398 158.668 229.648 156.503C230.899 154.337 233.21 153.003 235.71 153.003L247.71 153.003C250.211 153.003 252.522 154.337 253.773 156.503C255.023 158.668 255.023 161.337 253.773 163.503C252.522 165.668 250.211 167.003 247.71 167.003L247.71 167.003Z" id="Shape" fill="#CCCCCC" stroke="none" />
    <path d="M330.71 167.503L274.71 167.503C272.21 167.503 269.899 166.168 268.648 164.003C267.398 161.837 267.398 159.168 268.648 157.003C269.899 154.837 272.21 153.503 274.71 153.503L330.71 153.503C333.211 153.503 335.522 154.837 336.773 157.003C338.023 159.168 338.023 161.837 336.773 164.003C335.522 166.168 333.211 167.503 330.71 167.503L330.71 167.503Z" id="Shape" fill="#CCCCCC" stroke="none" />
    <path d="M401.71 167.503L358.71 167.503C356.21 167.503 353.899 166.168 352.648 164.003C351.398 161.837 351.398 159.168 352.648 157.003C353.899 154.837 356.21 153.503 358.71 153.503L401.71 153.503C404.211 153.503 406.522 154.837 407.773 157.003C409.023 159.168 409.023 161.837 407.773 164.003C406.522 166.168 404.211 167.503 401.71 167.503L401.71 167.503Z" id="Shape" fill="#CCCCCC" stroke="none" />
    <path d="M382.71 191.003C382.715 187.138 385.846 184.007 389.711 184.003L401.71 184.003C404.211 184.003 406.522 185.337 407.773 187.503C409.023 189.668 409.023 192.337 407.773 194.503C406.522 196.668 404.211 198.003 401.71 198.003L389.71 198.003C385.846 197.998 382.715 194.867 382.71 191.003L382.71 191.003Z" id="Shape" fill="#CCCCCC" stroke="none" />
    <path d="M299.71 191.503C299.715 187.638 302.846 184.507 306.711 184.503L362.71 184.503C365.211 184.503 367.522 185.837 368.773 188.003C370.023 190.168 370.023 192.837 368.773 195.003C367.522 197.168 365.211 198.503 362.71 198.503L306.71 198.503C302.846 198.498 299.715 195.367 299.71 191.503L299.71 191.503Z" id="Shape" fill="#CCCCCC" stroke="none" />
    <path d="M228.71 191.503C228.715 187.638 231.846 184.507 235.711 184.503L278.71 184.503C281.211 184.503 283.522 185.837 284.773 188.003C286.023 190.168 286.023 192.837 284.773 195.003C283.522 197.168 281.211 198.503 278.71 198.503L235.71 198.503C231.846 198.498 228.715 195.367 228.71 191.503L228.71 191.503Z" id="Shape" fill="#CCCCCC" stroke="none" />
  </g>
</svg>