<?xml version="1.0" encoding="utf-8"?>
<svg width="862px" height="862px" viewBox="0 0 862 862" version="1.1" xmlns:xlink="http://www.w3.org/1999/xlink" xmlns="http://www.w3.org/2000/svg">
  <defs>
    <path d="M0 0L862 0L862 862L0 862L0 0Z" id="path_1" />
    <clipPath id="mask_1">
      <use xlink:href="#path_1" />
    </clipPath>
  </defs>
  <g id="noun-website-list-267290">
    <path d="M0 0L862 0L862 862L0 862L0 0Z" id="Background" fill="#FFFFFF" fill-opacity="0" fill-rule="evenodd" stroke="none" />
    <path d="M703.183 34.831L161.97 34.831C140.122 34.831 122.246 52.7064 122.246 74.5544L122.246 615.755C122.246 637.603 140.122 655.478 161.97 655.478L703.17 655.478C725.018 655.478 742.894 637.603 742.894 615.755L742.894 74.5544C742.894 52.7064 725.018 34.831 703.175 34.831L703.183 34.831ZM231.016 81.7508L697.949 81.7508C704.212 81.7508 709.301 86.8257 709.301 93.0934C709.301 99.3611 704.246 104.436 697.949 104.436L231.016 104.441C224.753 104.441 219.674 99.3659 219.674 93.0982C219.669 86.8256 224.753 81.7509 231.016 81.7509L231.016 81.7508ZM183.626 73.5445C194.425 73.5445 203.175 82.304 203.175 93.0934C203.175 103.888 194.415 112.642 183.626 112.642C172.832 112.642 164.077 103.883 164.077 93.0934C164.077 82.2992 172.832 73.5445 183.626 73.5445L183.626 73.5445ZM703.178 620.988L161.965 620.988C159.17 620.988 156.722 618.54 156.722 615.745L156.727 145.697L708.406 145.697L708.406 615.758C708.411 618.543 705.958 620.996 703.173 620.996L703.178 620.988ZM635.553 252.763L438.536 252.763C434.722 252.763 431.638 249.675 431.638 245.865C431.638 242.06 434.722 238.967 438.536 238.967L635.553 238.967C639.367 238.967 642.451 242.055 642.451 245.865C642.451 249.67 639.367 252.763 635.553 252.763L635.553 252.763ZM635.553 294.225L438.536 294.225C434.722 294.225 431.638 291.137 431.638 287.327C431.638 283.522 434.722 280.429 438.536 280.429L635.553 280.429C639.367 280.429 642.451 283.518 642.451 287.327C642.451 291.137 639.367 294.225 635.553 294.225L635.553 294.225ZM635.553 407.775L438.536 407.775C434.722 407.775 431.638 404.702 431.638 400.877C431.638 397.063 434.722 393.979 438.536 393.979L635.553 393.979C639.367 393.979 642.451 397.063 642.451 400.877C642.451 404.702 639.367 407.775 635.553 407.775L635.553 407.775ZM635.553 449.25L438.536 449.25C434.722 449.25 431.638 446.166 431.638 442.352C431.638 438.537 434.722 435.454 438.536 435.454L635.553 435.454C639.367 435.454 642.451 438.537 642.451 442.352C642.451 446.166 639.367 449.25 635.553 449.25L635.553 449.25ZM635.553 562.8L438.536 562.8C434.722 562.8 431.638 559.716 431.638 555.902C431.638 552.087 434.722 549.004 438.536 549.004L635.553 549.004C639.367 549.004 642.451 552.087 642.451 555.902C642.451 559.716 639.367 562.8 635.553 562.8L635.553 562.8ZM635.553 604.274L438.536 604.274C434.722 604.274 431.638 601.201 431.638 597.376C431.638 593.562 434.722 590.479 438.536 590.479L635.553 590.479C639.367 590.479 642.451 593.562 642.451 597.376C642.451 601.201 639.367 604.274 635.553 604.274L635.553 604.274ZM184.653 215.648L407.923 215.648L407.923 322.729L184.653 322.729L184.653 215.648ZM184.653 370.672L407.923 370.672L407.923 477.749L184.653 477.749L184.653 370.672ZM184.653 525.685L407.923 525.685L407.923 632.761L184.653 632.761L184.653 525.685Z" id="Group" fill="#20C997" stroke="none" />
  </g>
</svg>