<?xml version="1.0" encoding="utf-8"?>
<!-- Generator: Adobe Illustrator 19.0.0, SVG Export Plug-In . SVG Version: 6.00 Build 0)  -->
<svg version="1.1" id="Layer_1" xmlns="http://www.w3.org/2000/svg" xmlns:xlink="http://www.w3.org/1999/xlink" x="0px" y="0px"
	 viewBox="0 0 500 500" style="enable-background:new 0 0 500 500;" xml:space="preserve">
<style type="text/css">
	.st0{clip-path:url(#XMLID_4_);fill:#FC6D26;}
	.st1{clip-path:url(#XMLID_4_);fill:#E24329;}
	.st2{clip-path:url(#XMLID_4_);fill:#FCA326;}
</style>
<g id="XMLID_38_">
	<g id="XMLID_45_">
		<defs>
			<polyline id="XMLID_44_" points="67.5,81.9 432.5,81.9 432.5,418.1 67.5,418.1 67.5,81.9 			"/>
		</defs>
		<clipPath id="XMLID_4_">
			<use xlink:href="#XMLID_44_"  style="overflow:visible;"/>
		</clipPath>
		<path id="XMLID_53_" class="st0" d="M69.3,285.2c1,1.7,2.3,3.3,4,4.5L250,418.1h0v0L73.2,289.7C71.6,288.5,70.2,286.9,69.3,285.2
			 M430.8,285.2c-1,1.7-2.3,3.3-4,4.5L250,418.1v0v0l176.8-128.4C428.4,288.5,429.8,286.9,430.8,285.2 M150.5,112l32.3,99.3H88.6v0
			l94.2,0l44.8,137.9l-44.8-137.9L150.5,112 M130.5,84.2c-0.6,0.7-1.1,1.5-1.4,2.5L88.6,211.3l-9,27.8l9-27.8l40.5-124.6
			C129.4,85.7,129.9,84.8,130.5,84.2 M130.5,84.2L130.5,84.2L130.5,84.2 M361.8,82.3c-1.8,0.7-3.4,2.1-4.1,4.4l-40.5,124.6h0
			l-44.8,137.9l44.8-137.9h94.2l0,0l-94.2,0l40.5-124.6C358.4,84.5,360,83,361.8,82.3 M138.1,82.3c1.4,0.5,2.7,1.5,3.6,2.9
			C140.8,83.8,139.5,82.8,138.1,82.3"/>
		<polyline id="XMLID_55_" class="st1" points="317.2,211.3 317.2,211.3 182.8,211.3 227.6,349.2 250,418.1 250,418.1 250,418.1 
			250,418.1 250,418.1 250,418.1 272.4,349.2 317.2,211.3 		"/>
		<path id="XMLID_61_" class="st0" d="M250,418.1L250,418.1L250,418.1 M182.8,211.3H88.6L250,418.1l-22.4-68.9L182.8,211.3"/>
		<path id="XMLID_62_" class="st2" d="M88.6,211.3l-9,27.8l-11.4,35.1c-1.2,3.8-0.8,7.8,1.1,11.1c1,1.7,2.3,3.3,4,4.5L250,418.1
			L88.6,211.3L88.6,211.3L88.6,211.3"/>
		<path id="XMLID_63_" class="st1" d="M135.7,81.9c-1.9,0-3.8,0.8-5.2,2.3l0,0l0,0c-0.6,0.7-1.1,1.5-1.4,2.5L88.6,211.3h94.2
			L150.5,112l-8.2-25.3c-0.2-0.5-0.4-1-0.7-1.5c-0.9-1.4-2.1-2.4-3.6-2.9C137.3,82,136.5,81.9,135.7,81.9"/>
		<path id="XMLID_71_" class="st0" d="M250,418.1L250,418.1L250,418.1 M411.4,211.3h-94.2l-44.8,137.9L250,418.1L411.4,211.3
			 M411.4,211.3L411.4,211.3L411.4,211.3L411.4,211.3"/>
		<path id="XMLID_72_" class="st2" d="M411.4,211.3L411.4,211.3L411.4,211.3L411.4,211.3L250,418.1l176.8-128.4c1.7-1.2,3-2.8,4-4.5
			c1.1-2,1.7-4.3,1.7-6.7v-0.1c0-1.4-0.2-2.8-0.7-4.2L411.4,211.3"/>
		<path id="XMLID_73_" class="st1" d="M364.3,81.9c-0.8,0-1.7,0.1-2.5,0.4c-1.8,0.7-3.4,2.1-4.1,4.4l-40.5,124.6h94.2L370.9,86.7
			C369.9,83.5,367.1,81.9,364.3,81.9"/>
	</g>
</g>
</svg>
