<?xml version="1.0" encoding="utf-8"?>
<svg width="979.3268px" height="424.8366px" viewBox="0 0 979.3268 424.8366" version="1.1" xmlns:xlink="http://www.w3.org/1999/xlink" xmlns="http://www.w3.org/2000/svg">
  <defs>
    <path d="M0 0L979.327 0L979.327 424.837L0 424.837L0 0Z" id="path_1" />
    <clipPath id="mask_1">
      <use xlink:href="#path_1" />
    </clipPath>
  </defs>
  <g id="undraw_hello_re_3evm">
    <path d="M0 0L979.327 0L979.327 424.837L0 424.837L0 0Z" id="Background" fill="#FFFFFF" fill-opacity="0" fill-rule="evenodd" stroke="none" />
    <path d="M883.381 175.258L308.805 175.258C303.725 175.258 299.607 179.376 299.607 184.457C299.607 189.537 303.725 193.655 308.805 193.655L325.08 193.655L325.08 413.721C325.08 418.801 329.199 422.92 334.279 422.92C339.36 422.92 343.478 418.801 343.478 413.721L343.618 193.655L804.774 193.655L847.294 413.721C847.294 418.801 851.412 422.92 856.492 422.92C861.573 422.92 865.691 418.801 865.691 413.721L868.368 193.655L883.382 193.655C888.462 193.655 892.58 189.537 892.58 184.457C892.581 179.376 888.462 175.258 883.382 175.258L883.381 175.258Z" id="Shape" fill="#CCCCCC" stroke="none" />
    <path d="M408.401 134.269L408.401 173.223L310.804 173.223C303.846 173.466 297.287 169.977 293.598 164.072C289.909 158.166 289.65 150.742 292.92 144.594C296.19 138.447 302.491 134.511 309.449 134.269C309.901 134.253 310.353 134.253 310.804 134.269L408.401 134.269Z" id="Shape" fill="#F2F2F2" stroke="none" />
    <path d="M410.798 172.924C410.798 173.751 410.128 174.421 409.3 174.422L309.066 174.422C297.738 174.41 288.562 165.223 288.562 153.896C288.562 142.568 297.739 133.381 309.067 133.37L409.3 133.37C409.836 133.368 410.333 133.653 410.602 134.117C410.871 134.582 410.871 135.154 410.602 135.619C410.333 136.083 409.836 136.368 409.3 136.366L309.066 136.366C299.396 136.382 291.565 144.226 291.565 153.896C291.566 163.566 299.397 171.41 309.067 171.426L409.3 171.426C410.127 171.426 410.798 172.097 410.798 172.924L410.798 172.924Z" id="Shape" fill="#20C997" stroke="none" />
    <path d="M408.401 143.659L303.522 143.659C303.357 143.661 303.222 143.44 303.22 143.164C303.219 142.887 303.351 142.662 303.517 142.659L408.401 142.659C408.565 142.661 408.698 142.884 408.698 143.159C408.698 143.434 408.565 143.657 408.401 143.659L408.401 143.659Z" id="Shape" fill="#CCCCCC" stroke="none" />
    <path d="M408.401 150.851L303.522 150.851C303.357 150.853 303.222 150.631 303.22 150.355C303.219 150.079 303.351 149.853 303.517 149.851L408.401 149.851C408.565 149.853 408.698 150.076 408.698 150.351C408.698 150.625 408.565 150.849 408.401 150.851L408.401 150.851Z" id="Shape" fill="#CCCCCC" stroke="none" />
    <path d="M408.401 158.042L303.522 158.042C303.357 158.045 303.222 157.823 303.22 157.547C303.219 157.271 303.351 157.045 303.517 157.042L408.401 157.042C408.565 157.044 408.698 157.268 408.698 157.542C408.698 157.817 408.565 158.04 408.401 158.042L408.401 158.042Z" id="Shape" fill="#CCCCCC" stroke="none" />
    <path d="M408.401 165.234L303.522 165.234C303.357 165.236 303.222 165.015 303.22 164.738C303.219 164.462 303.351 164.236 303.517 164.234L408.401 164.234C408.565 164.236 408.698 164.459 408.698 164.734C408.698 165.009 408.565 165.232 408.401 165.234L408.401 165.234Z" id="Shape" fill="#CCCCCC" stroke="none" />
    <path d="M390.003 93.2276L390.003 132.182L292.407 132.182C285.448 132.424 278.889 128.936 275.2 123.03C271.511 117.125 271.253 109.701 274.522 103.553C277.792 97.4058 284.093 93.4697 291.051 93.2276C291.503 93.2119 291.955 93.2119 292.407 93.2276L390.003 93.2276Z" id="Shape" fill="#F2F2F2" stroke="none" />
    <path d="M392.4 131.883C392.4 132.71 391.729 133.381 390.902 133.381L290.668 133.381C279.336 133.376 270.151 124.188 270.151 112.856C270.15 101.523 279.334 92.3343 290.667 92.3287L390.902 92.3287C391.437 92.3287 391.932 92.6143 392.199 93.0778C392.467 93.5414 392.467 94.1125 392.199 94.5761C391.932 95.0397 391.437 95.3252 390.902 95.3252L290.668 95.3252C280.993 95.3344 273.155 103.18 273.155 112.855C273.156 122.53 280.994 130.376 290.669 130.384L390.902 130.384C391.729 130.385 392.4 131.055 392.4 131.883L392.4 131.883Z" id="Shape" fill="#187CDD" stroke="none" />
    <path d="M390.003 102.618L285.125 102.618C284.959 102.62 284.824 102.399 284.822 102.122C284.821 101.846 284.954 101.62 285.119 101.618L390.003 101.618C390.167 101.62 390.3 101.843 390.3 102.118C390.3 102.393 390.167 102.616 390.003 102.618L390.003 102.618Z" id="Shape" fill="#CCCCCC" stroke="none" />
    <path d="M390.003 109.81L285.125 109.81C284.959 109.812 284.824 109.59 284.822 109.314C284.821 109.038 284.954 108.812 285.119 108.81L390.003 108.81C390.167 108.812 390.3 109.035 390.3 109.31C390.3 109.584 390.167 109.808 390.003 109.81L390.003 109.81Z" id="Shape" fill="#CCCCCC" stroke="none" />
    <path d="M390.003 117.001L285.125 117.001C284.959 117.004 284.824 116.782 284.822 116.506C284.821 116.23 284.954 116.004 285.119 116.001L390.003 116.001C390.167 116.003 390.3 116.226 390.3 116.501C390.3 116.776 390.167 116.999 390.003 117.001L390.003 117.001Z" id="Shape" fill="#CCCCCC" stroke="none" />
    <path d="M390.003 124.193L285.125 124.193C284.959 124.195 284.824 123.973 284.822 123.697C284.821 123.421 284.954 123.195 285.119 123.193L390.003 123.193C390.167 123.195 390.3 123.418 390.3 123.693C390.3 123.967 390.167 124.191 390.003 124.193L390.003 124.193Z" id="Shape" fill="#CCCCCC" stroke="none" />
    <path d="M503.537 313.102L503.537 279.137C503.536 276.009 501.001 273.475 497.874 273.476L369.092 273.476C365.965 273.476 363.431 276.01 363.431 279.137L363.431 313.102L503.537 313.102Z" id="Shape" fill="#CCCCCC" stroke="none" />
    <path d="M363.431 325.839L503.537 325.839L503.537 369.71L363.431 369.71L363.431 325.839Z" id="Rectangle" fill="#CCCCCC" fill-rule="evenodd" stroke="none" />
    <path d="M363.431 382.447L363.431 416.412C363.431 419.539 365.965 422.073 369.092 422.073L497.876 422.073C501.002 422.073 503.537 419.539 503.537 416.412L503.537 382.447L363.431 382.447Z" id="Shape" fill="#CCCCCC" stroke="none" />
    <path d="M428.531 294.704C428.531 292.359 430.432 290.458 432.776 290.458C435.121 290.458 437.022 292.359 437.022 294.704C437.022 297.049 435.121 298.95 432.776 298.95C430.432 298.95 428.531 297.049 428.531 294.704Z" id="Circle" fill="#FFFFFF" fill-rule="evenodd" stroke="none" />
    <path d="M428.531 351.312C428.531 348.968 430.432 347.067 432.776 347.067C435.121 347.067 437.022 348.968 437.022 351.312C437.022 353.657 435.121 355.558 432.776 355.558C430.432 355.558 428.531 353.657 428.531 351.312Z" id="Circle" fill="#FFFFFF" fill-rule="evenodd" stroke="none" />
    <path d="M428.758 406.722C428.758 404.378 430.659 402.477 433.004 402.477C435.349 402.477 437.249 404.378 437.249 406.722C437.249 409.067 435.349 410.968 433.004 410.968C430.659 410.968 428.758 409.067 428.758 406.722Z" id="Circle" fill="#FFFFFF" fill-rule="evenodd" stroke="none" />
    <path d="M487.652 234.749L487.652 273.704L390.056 273.704C383.098 273.946 376.538 270.457 372.849 264.552C369.16 258.647 368.902 251.222 372.171 245.075C375.44 238.927 381.741 234.991 388.7 234.749C389.152 234.733 389.604 234.733 390.056 234.749L487.652 234.749Z" id="Shape" fill="#F2F2F2" stroke="none" />
    <path d="M490.05 273.404C490.049 274.231 489.378 274.902 488.551 274.902L388.318 274.902C376.983 274.906 367.791 265.721 367.785 254.386C367.78 243.051 376.963 233.857 388.298 233.85L488.552 233.85C489.088 233.848 489.585 234.133 489.854 234.597C490.122 235.062 490.122 235.634 489.854 236.099C489.585 236.563 489.088 236.848 488.552 236.846L388.318 236.846C378.645 236.858 370.81 244.703 370.81 254.376C370.81 264.049 378.645 271.894 388.318 271.905L488.552 271.906C489.379 271.906 490.049 272.577 490.05 273.404L490.05 273.404Z" id="Shape" fill="#187CDD" stroke="none" />
    <path d="M487.652 244.139L382.774 244.139C382.609 244.141 382.474 243.92 382.472 243.644C382.47 243.367 382.603 243.142 382.769 243.139L487.653 243.139C487.817 243.141 487.95 243.364 487.95 243.639C487.95 243.914 487.817 244.137 487.653 244.139L487.652 244.139Z" id="Shape" fill="#CCCCCC" stroke="none" />
    <path d="M487.652 251.331L382.774 251.331C382.609 251.333 382.474 251.111 382.472 250.835C382.47 250.559 382.603 250.333 382.769 250.331L487.653 250.331C487.817 250.333 487.95 250.556 487.95 250.831C487.95 251.105 487.817 251.329 487.653 251.331L487.652 251.331Z" id="Shape" fill="#CCCCCC" stroke="none" />
    <path d="M487.652 258.522L382.774 258.522C382.609 258.525 382.474 258.303 382.472 258.027C382.47 257.751 382.603 257.525 382.769 257.522L487.653 257.522C487.817 257.524 487.95 257.748 487.95 258.022C487.95 258.297 487.817 258.52 487.653 258.522L487.652 258.522Z" id="Shape" fill="#CCCCCC" stroke="none" />
    <path d="M487.652 265.714L382.774 265.714C382.609 265.716 382.474 265.495 382.472 265.219C382.47 264.942 382.603 264.717 382.769 264.714L487.653 264.714C487.817 264.716 487.95 264.939 487.95 265.214C487.95 265.489 487.817 265.712 487.653 265.714L487.652 265.714Z" id="Shape" fill="#CCCCCC" stroke="none" />
    <path d="M373.031 80.2325L328.565 80.2325C328.143 80.2321 327.727 80.329 327.348 80.5155L316.125 86.1339C315.37 86.4548 314.88 87.1957 314.88 88.0161C314.88 88.8364 315.37 89.5774 316.125 89.8983L327.348 95.5166C327.727 95.7032 328.143 95.8 328.565 95.7997L373.031 95.7997C374.306 95.8734 375.404 94.9084 375.494 93.6344L375.494 82.3977C375.404 81.1236 374.306 80.1587 373.031 80.2325L373.031 80.2325Z" id="Shape" fill="#187CDD" stroke="none" />
    <path d="M375.494 82.3978L375.494 93.6345C375.404 94.9086 374.306 95.8735 373.031 95.7998L364.172 95.7998L364.172 80.2325L373.031 80.2325C374.306 80.1587 375.404 81.1237 375.494 82.3978L375.494 82.3978Z" id="Shape" fill="#20C997" stroke="none" />
    <path d="M106.444 300.412C118.089 304.505 131.025 302.226 140.57 294.4C152.522 284.368 156.27 267.84 159.319 252.536C162.325 237.448 165.332 222.359 168.338 207.27L149.456 220.272C135.877 229.622 121.992 239.271 112.59 252.814C103.188 266.357 99.0842 284.844 106.638 299.498" id="Shape" fill="#E6E6E6" stroke="none" />
    <path d="M108.058 355.216C106.147 341.295 104.182 327.196 105.523 313.126C106.713 300.63 110.525 288.425 118.287 278.418C122.406 273.117 127.419 268.574 133.1 264.995C134.581 264.06 135.944 266.408 134.469 267.339C124.64 273.551 117.038 282.724 112.758 293.535C108.031 305.558 107.272 318.663 108.087 331.435C108.579 339.158 109.623 346.831 110.675 354.494C110.847 355.213 110.433 355.943 109.728 356.163C109.006 356.358 108.261 355.935 108.058 355.216L108.058 355.216Z" id="Shape" fill="#F2F2F2" stroke="none" />
    <path d="M126.466 330.583C131.46 338.173 140.052 342.608 149.132 342.281C160.607 341.737 170.172 333.728 178.783 326.126L204.253 303.638L187.396 302.831C175.274 302.251 162.839 301.71 151.293 305.448C139.747 309.186 129.098 318.183 126.987 330.134" id="Shape" fill="#E6E6E6" stroke="none" />
    <path d="M102.657 363.218C111.856 346.942 122.525 328.853 141.59 323.071C146.891 321.469 152.449 320.895 157.966 321.38C159.704 321.53 159.27 324.21 157.535 324.061C148.288 323.293 139.059 325.735 131.402 330.974C124.033 335.99 118.296 342.963 113.44 350.357C110.466 354.887 107.801 359.608 105.137 364.323C104.285 365.83 101.796 364.743 102.657 363.218L102.657 363.218Z" id="Shape" fill="#F2F2F2" stroke="none" />
    <path d="M87.9186 380.35C88.5504 373.03 93.2038 366.669 99.9895 363.852L99.9895 354.442L115.772 354.442L115.772 364.148C122.215 367.1 126.574 373.289 127.185 380.35L130.896 423.488L84.2076 423.488L87.9186 380.35Z" id="Shape" fill="#F2F2F2" stroke="none" />
    <path d="M624.636 174.373L619.942 172.396L616.721 148.861L573.832 148.861L570.341 172.3L566.141 174.4C565.727 174.607 565.51 175.072 565.616 175.522C565.722 175.972 566.124 176.29 566.587 176.29L624.25 176.29C624.724 176.29 625.133 175.955 625.227 175.49C625.321 175.025 625.074 174.557 624.636 174.373L624.636 174.373Z" id="Shape" fill="#E6E6E6" stroke="none" />
    <path d="M700.853 151.992L490.17 151.992C487.869 151.987 486.006 150.12 486.006 147.818L486.006 118.109L705.018 118.109L705.018 147.818C705.018 150.12 703.155 151.987 700.853 151.992L700.853 151.992Z" id="Shape" fill="#CCCCCC" stroke="none" />
    <path d="M705.238 132.15L485.813 132.15L485.813 5.03168C485.817 2.25406 488.068 0.00312805 490.845 0L700.206 0C702.984 0.00311279 705.235 2.25401 705.238 5.03168L705.238 132.15Z" id="Shape" fill="#187CDD" stroke="none" />
    <path d="M692.133 122.924L498.919 122.924C496.777 122.922 495.042 121.186 495.039 119.045L495.039 13.1054C495.042 10.964 496.777 9.22855 498.919 9.22604L692.133 9.22606C694.274 9.2285 696.01 10.9639 696.012 13.1054L696.012 119.045C696.01 121.186 694.274 122.922 692.133 122.924L692.133 122.924Z" id="Shape" fill="#FFFFFF" stroke="none" />
    <path d="M641.243 160.305C643.768 157.972 647.197 156.878 650.607 157.317C654.016 157.755 657.056 159.682 658.909 162.577L685.044 157.931L691.741 173.124L654.742 179.167C649.557 182.02 643.058 180.544 639.614 175.732C636.17 170.919 636.87 164.292 641.243 160.305L641.243 160.305Z" id="Shape" fill="#FFB6B6" stroke="none" />
    <path d="M665.44 179.704L692.685 179.365L696.134 179.318L751.567 178.62C751.567 178.62 766.62 164.259 779.727 149.473L777.89 136.185C776.098 123.144 769.629 111.198 759.686 102.57C740.913 115.114 730.026 139.944 730.026 139.944L695.656 148.165L692.218 148.987L670.862 154.09L665.44 179.704Z" id="Shape" fill="#20C997" stroke="none" />
    <path d="M804.914 261.38L754.056 261.38C754.056 263.559 698.462 265.328 698.462 265.328C697.235 266.251 696.118 267.311 695.13 268.486C692.162 272.025 690.54 276.499 690.55 281.119L690.55 284.277C690.555 295.179 699.391 304.013 710.291 304.015L804.913 304.015C815.811 304.006 824.643 295.174 824.652 284.277L824.652 281.119C824.638 270.225 815.81 261.396 804.915 261.38L804.914 261.38Z" id="Shape" fill="#E4E4E4" stroke="none" />
    <path d="M747.402 303.231L767.93 303.231L767.93 421.721L747.402 421.721L747.402 303.231Z" id="Rectangle" fill="#E4E4E4" fill-rule="evenodd" stroke="none" />
    <path d="M688.976 421C688.976 423.218 720.083 421.858 758.456 421.858C796.828 421.858 827.935 423.218 827.935 421C827.935 418.782 796.828 401.193 758.456 401.193C720.083 401.193 688.976 418.782 688.976 421L688.976 421Z" id="Shape" fill="#E4E4E4" stroke="none" />
    <path d="M675.186 407.461L659.908 407.46L652.64 348.531L675.188 348.532L675.186 407.461L675.186 407.461Z" id="Polygon" fill="#FFB6B6" fill-rule="evenodd" stroke="none" />
    <path d="M679.082 422.27L629.82 422.268L629.82 421.645C629.825 411.048 638.413 402.468 649.002 402.471L648.995 402.471L679.083 402.473L679.082 422.27Z" id="Shape" fill="#38D993" stroke="none" />
    <path d="M630.031 407.461L614.753 407.46L607.485 348.531L630.033 348.532L630.031 407.461L630.031 407.461Z" id="Polygon" fill="#FFB6B6" fill-rule="evenodd" stroke="none" />
    <path d="M633.927 422.27L584.665 422.268L584.665 421.645C584.665 411.057 593.248 402.473 603.838 402.471L603.84 402.471L633.928 402.473L633.927 422.27Z" id="Shape" fill="#38D993" stroke="none" />
    <path d="M740.323 41.6362C740.323 26.9653 752.216 15.0721 766.887 15.0721C781.557 15.0721 793.451 26.9653 793.451 41.6362C793.451 56.307 781.557 68.2002 766.887 68.2002C752.216 68.2002 740.323 56.307 740.323 41.6362Z" id="Circle" fill="#FFB6B6" fill-rule="evenodd" stroke="none" />
    <path d="M809.88 223.642C809.88 223.642 818.793 270.773 784.88 276.775C750.968 282.777 702.014 286.995 702.014 286.995L680.03 389.562L650.496 386.925C650.496 386.925 654.424 263.457 664.084 253.798C673.743 244.138 734.796 215.215 734.796 215.215L809.88 223.642Z" id="Shape" fill="#38D993" stroke="none" />
    <path d="M743.646 203.89L728.814 218.769C728.814 218.769 621.72 236.019 617.589 260.754C611.351 298.098 603.984 379.306 603.984 379.306L636.183 376.891L648.809 284.58L700.327 272.861L758.941 240.918L743.646 203.89Z" id="Shape" fill="#38D993" stroke="none" />
    <path d="M792.449 25.7794C789.826 20.8319 786.495 10.9716 781.202 9.14288C778.263 8.16827 775.225 7.52112 772.143 7.21317L763.147 10.6732L768.044 6.86525C767.09 6.80846 766.138 6.76202 765.185 6.72597L759.115 9.0605L762.221 6.64519C756.562 6.58711 750.721 7.17549 746.336 10.6204C742.598 13.5572 738.894 24.6823 738.296 29.3979C737.655 33.9091 737.88 38.501 738.956 42.9284L740.493 44.3901C741.031 43.1572 741.435 41.8703 741.699 40.5513C742.813 35.5684 745.972 31.2837 750.402 28.7449L750.485 28.6977C753.064 27.2467 756.192 27.3136 759.148 27.42L773.19 27.9253C776.568 28.0469 780.206 28.2606 782.84 30.3797C784.514 31.943 785.83 33.8496 786.698 35.969C788.007 38.6104 790.564 48.5732 790.564 48.5732C790.564 48.5732 792.011 46.6926 792.705 48.0923C793.817 44.4403 794.493 40.6696 794.719 36.8588C794.94 33.031 794.158 29.2118 792.449 25.7794L792.449 25.7794Z" id="Shape" fill="#38D993" stroke="none" />
    <path d="M885.358 53.3018C881.927 53.5277 878.773 55.2614 876.744 58.0363C874.715 60.8112 874.02 64.3424 874.844 67.6797L853.483 83.4369L859.893 98.7536L889.746 76.0777C895.385 74.281 898.788 68.5511 897.668 62.7404C896.549 56.9297 891.26 52.8748 885.358 53.3018L885.358 53.3018Z" id="Shape" fill="#FFB6B6" stroke="none" />
    <path d="M881.92 85.4703L828.369 144.945C828.369 144.945 802.76 136.747 782.954 127.858L774.056 100.531C771.99 94.1909 771.108 87.525 771.455 80.8662C798.911 73.5602 830.846 100.745 830.846 100.745L870.931 69.346L881.92 85.4703Z" id="Shape" fill="#20C997" stroke="none" />
    <path d="M756.964 228.035C747.41 224.735 737.531 221.322 726.875 220.041L726.418 219.986L726.544 219.543C737.575 180.812 734.822 156.036 729.416 118.82C727.055 102.333 735.824 86.2584 750.964 79.3188L751.03 79.2892L781.464 77.3553L781.533 77.3511L803.668 83.861C810.212 85.8 814.658 91.8677 814.535 98.6921C814.295 110.931 814.804 124.596 815.342 139.063C816.55 171.519 817.799 205.08 810.712 226.855L810.674 226.969L810.58 227.043C804.064 232.35 795.902 235.217 787.499 235.151C777.564 235.151 767.425 231.649 756.964 228.035L756.964 228.035Z" id="Shape" fill="#20C997" stroke="none" />
    <path d="M977.912 424.837L1.41522 424.837C0.909615 424.837 0.442406 424.567 0.189606 424.129C-0.0632019 423.691 -0.0632019 423.152 0.189606 422.714C0.442406 422.276 0.909615 422.006 1.41522 422.006L977.912 422.006C978.417 422.006 978.884 422.276 979.137 422.714C979.39 423.152 979.39 423.691 979.137 424.129C978.884 424.567 978.417 424.837 977.912 424.837L977.912 424.837Z" id="Shape" fill="#CCCCCC" stroke="none" />
  </g>
</svg>