<svg xmlns="http://www.w3.org/2000/svg" viewBox="0 0 500 500"><g id="freepik--background-complete--inject-2"><rect y="382.4" width="500" height="0.25" style="fill:#ebebeb"></rect><rect x="416.78" y="398.49" width="33.12" height="0.25" style="fill:#ebebeb"></rect><rect x="322.53" y="401.21" width="8.69" height="0.25" style="fill:#ebebeb"></rect><rect x="396.59" y="389.21" width="19.19" height="0.25" style="fill:#ebebeb"></rect><rect x="52.46" y="390.89" width="43.19" height="0.25" style="fill:#ebebeb"></rect><rect x="104.56" y="390.89" width="6.33" height="0.25" style="fill:#ebebeb"></rect><rect x="131.47" y="395.11" width="93.68" height="0.25" style="fill:#ebebeb"></rect><path d="M237,337.8H43.91a5.71,5.71,0,0,1-5.7-5.71V60.66A5.71,5.71,0,0,1,43.91,55H237a5.71,5.71,0,0,1,5.71,5.71V332.09A5.71,5.71,0,0,1,237,337.8ZM43.91,55.2a5.46,5.46,0,0,0-5.45,5.46V332.09a5.46,5.46,0,0,0,5.45,5.46H237a5.47,5.47,0,0,0,5.46-5.46V60.66A5.47,5.47,0,0,0,237,55.2Z" style="fill:#ebebeb"></path><path d="M453.31,337.8H260.21a5.72,5.72,0,0,1-5.71-5.71V60.66A5.72,5.72,0,0,1,260.21,55h193.1A5.71,5.71,0,0,1,459,60.66V332.09A5.71,5.71,0,0,1,453.31,337.8ZM260.21,55.2a5.47,5.47,0,0,0-5.46,5.46V332.09a5.47,5.47,0,0,0,5.46,5.46h193.1a5.47,5.47,0,0,0,5.46-5.46V60.66a5.47,5.47,0,0,0-5.46-5.46Z" style="fill:#ebebeb"></path><polygon points="84.6 147.5 121.39 126.09 149.74 126.09 187.15 146.49 187.15 285.21 84.6 285.21 84.6 147.5" style="fill:#e0e0e0"></polygon><path d="M188.2,285.21H84.6V147.5l1.06-1a72.87,72.87,0,0,1,50.74-20.4h0a72.94,72.94,0,0,1,50.75,20.39l1,1Zm-96.73-6.88h89.86V150.45a66.48,66.48,0,0,0-89.86,0Z" style="fill:#fafafa"></path><polygon points="133.82 279.16 138.98 279.16 138.98 233.12 182.63 233.12 182.63 227.97 138.98 227.97 138.98 180.88 182.63 180.88 182.63 175.73 138.98 175.73 138.98 132.08 133.82 132.08 133.82 175.73 90.17 175.73 90.17 180.88 133.82 180.88 133.82 227.97 90.17 227.97 90.17 233.12 133.82 233.12 133.82 279.16" style="fill:#f0f0f0"></polygon><path d="M191.64,288.64H81.17V146.1l1-1a76.78,76.78,0,0,1,108.46,0l1,1ZM88,281.77h96.72V149A69.89,69.89,0,0,0,88,149Z" style="fill:#f0f0f0"></path><path d="M342.84,141.1s1-6.6-3.81-10.83-4.39-6.75-3-7.07,2.64,3.9,4.76,5.06c0,0,.06-6-2.09-8.25s-3.27-7.94-1.23-8,2.26,3.4,2.68,5.88,2.7,6,2.7,6,.45-5.39,1.84-7.62-2.32-7.29-.89-9.52,4,2,3.76,6.77-3.39,9.84-2.65,14.81c0,0,1.4-3.49,2.66-3.8s2.52-2.63,3.37-3.49,1.9,2.11,0,4.86-6.77,10.11-6,16Z" style="fill:#e6e6e6"></path><path d="M340,138.1,338.39,148a5,5,0,0,0,5,5.82H345a5,5,0,0,0,5-5.82l-1.57-9.89Z" style="fill:#e6e6e6"></path><rect x="252.4" y="150.16" width="111.4" height="5.72" style="fill:#e0e0e0"></rect><rect x="257.53" y="129.06" width="4.91" height="21.1" style="fill:#ebebeb"></rect><rect x="281.26" y="129.06" width="4.91" height="21.1" style="fill:#ebebeb"></rect><rect x="310.03" y="128.8" width="4.91" height="21.1" transform="translate(-19.13 55.1) rotate(-9.78)" style="fill:#ebebeb"></rect><rect x="263.61" y="131.84" width="4.91" height="18.32" style="fill:#ebebeb"></rect><rect x="274.89" y="131.84" width="4.91" height="18.32" style="fill:#ebebeb"></rect><rect x="303.36" y="131.84" width="4.91" height="18.32" style="fill:#ebebeb"></rect><rect x="289.75" y="131.53" width="4.91" height="18.32" transform="translate(-23.56 66.73) rotate(-12.53)" style="fill:#ebebeb"></rect><rect x="270.31" y="128.01" width="2.45" height="22.15" style="fill:#ebebeb"></rect><rect x="299.5" y="128.01" width="2.45" height="22.15" style="fill:#ebebeb"></rect><rect x="252.4" y="192.89" width="111.4" height="5.72" transform="translate(616.2 391.51) rotate(180)" style="fill:#e0e0e0"></rect><rect x="353.77" y="171.79" width="4.91" height="21.1" transform="translate(712.44 364.68) rotate(180)" style="fill:#ebebeb"></rect><rect x="330.04" y="171.79" width="4.91" height="21.1" transform="translate(664.98 364.68) rotate(180)" style="fill:#ebebeb"></rect><rect x="301.27" y="171.53" width="4.91" height="21.1" transform="translate(572.1 413.1) rotate(-170.22)" style="fill:#ebebeb"></rect><rect x="347.69" y="174.57" width="4.91" height="18.32" transform="translate(700.28 367.46) rotate(180)" style="fill:#ebebeb"></rect><rect x="336.4" y="174.57" width="4.91" height="18.32" transform="translate(677.72 367.46) rotate(180)" style="fill:#ebebeb"></rect><rect x="307.93" y="174.57" width="4.91" height="18.32" transform="translate(620.77 367.46) rotate(180)" style="fill:#ebebeb"></rect><rect x="321.54" y="174.26" width="4.91" height="18.32" transform="translate(600.5 432.74) rotate(-167.47)" style="fill:#ebebeb"></rect><rect x="343.44" y="170.74" width="2.45" height="22.15" transform="translate(689.34 363.64) rotate(180)" style="fill:#ebebeb"></rect><rect x="314.25" y="170.74" width="2.45" height="22.15" transform="translate(630.95 363.64) rotate(180)" style="fill:#ebebeb"></rect><rect x="263.09" y="176.19" width="23.91" height="16.51" transform="translate(550.09 368.89) rotate(180)" style="fill:#ebebeb"></rect></g><g id="freepik--Shadow--inject-2"><ellipse id="freepik--path--inject-2" cx="250" cy="416.24" rx="193.89" ry="11.32" style="fill:#f5f5f5"></ellipse></g><g id="freepik--Plant--inject-2"><polygon points="424.32 413.77 386.7 413.77 381.7 377.19 429.32 377.19 424.32 413.77" style="fill:#263238"></polygon><path d="M405,377.25s-5.27-24.89,4.32-38.37-8.67-.15-10.77,12.46c0,0-3.14-22.56,6.16-38.43s-8.1-2.84-9.58,13.51c0,0-2.85-20.12,1.42-31.44s-3.16-4-6,3.06.89,24.65.89,24.65S384,290.22,376.94,292.8s10.56,23.86,13,34.92c0,0-8.32-14.89-14.64-11.79s9.78,4.64,17.16,26.85l2.59,10.41s-7.67-14.7-12.68-10.06,14.86,12.64,19.47,34.91Z" style="fill:#90CAF9"></path><path d="M404,378.68S402.9,347.3,387.39,334s10.34-2.77,16.61,11.72c0,0-2.95-28-18.82-44.21s8.86-5.81,15.5,13.34c0,0-2.58-25-11.07-37.23s2.58-5.78,8.12,1.86S404,309.29,404,309.29s-.73-41.11,8.49-40.12-5.53,31.72-5.16,45.7c0,0,5.53-20.32,14-18.49S411,304.86,408.8,333.65v13.24S413.6,327,421,331.06s-14,19.57-12.92,47.62Z" style="fill:#90CAF9"></path><path d="M404,378.68S402.9,347.3,387.39,334s10.34-2.77,16.61,11.72c0,0-2.95-28-18.82-44.21s8.86-5.81,15.5,13.34c0,0-2.58-25-11.07-37.23s2.58-5.78,8.12,1.86S404,309.29,404,309.29s-.73-41.11,8.49-40.12-5.53,31.72-5.16,45.7c0,0,5.53-20.32,14-18.49S411,304.86,408.8,333.65v13.24S413.6,327,421,331.06s-14,19.57-12.92,47.62Z" style="fill:#fff;opacity:0.2;isolation:isolate"></path><path d="M377,374.22v3.48a4.22,4.22,0,0,0,4.21,4.21h49.1a4.22,4.22,0,0,0,4.21-4.21v-3.48Z" style="fill:#263238"></path><path d="M377,374.22v3.48a4.22,4.22,0,0,0,4.21,4.21h49.1a4.22,4.22,0,0,0,4.21-4.21v-3.48Z" style="fill:#fff;opacity:0.2;isolation:isolate"></path></g><g id="freepik--Furniture--inject-2"><path d="M253.84,256.92v0h0a8.48,8.48,0,0,1,1.06-5.13l12.49.05,3-4.14,12.73-1.18.87,6v.06l.88,6.06-12.55,2.45L268.28,258l-12,3.57a8.44,8.44,0,0,1-2.47-4.62h0Z" style="fill:#90CAF9"></path><path d="M254.89,251.76c-.12,1.68.4,3.36,2.38,3.63a30.84,30.84,0,0,0,6.05-.32l.16,1.09s-5.68,1-6.43,1.57-.74,3.84-.74,3.84l12-3.57s3.34-2.46,3.18-3.59-4.08-2.6-4.08-2.6Z" style="opacity:0.2;isolation:isolate"></path><path d="M278.24,246.94l2.52.63s-4.85,6.31-6.18,11.16a51.47,51.47,0,0,1,3.85-5.36l3,4.37-2,2,5.45-1.06-1.76-12.17Z" style="opacity:0.2;isolation:isolate"></path><path d="M283.72,243.18l4.35-.63c1.94-.28,4.12,3.63,4.85,8.73s-.24,9.47-2.19,9.75l-4.34.63c-1.95.28-4.12-3.63-4.86-8.73S281.78,243.46,283.72,243.18Z" style="fill:#263238"></path><path d="M285.88,252.3c.73,5.1,2.9,9,4.85,8.73s2.93-4.64,2.19-9.75-2.91-9-4.85-8.73S285.14,247.2,285.88,252.3Z" style="opacity:0.4;isolation:isolate"></path><polygon points="268.56 413.77 268.63 413.34 270.59 390.54 278.89 390.54 272.95 413.77 268.56 413.77" style="fill:#263238"></polygon><polygon points="345.49 413.77 345.42 413.34 343.46 390.54 335.16 390.54 341.1 413.77 345.49 413.77" style="fill:#263238"></polygon><g style="opacity:0.4"><polygon points="268.56 413.77 268.63 413.34 270.59 390.54 278.89 390.54 272.95 413.77 268.56 413.77" style="fill:#fff"></polygon><polygon points="345.49 413.77 345.42 413.34 343.46 390.54 335.16 390.54 341.1 413.77 345.49 413.77" style="fill:#fff"></polygon></g><polygon points="257.62 413.77 257.69 413.34 261.47 390.54 269.77 390.54 262.01 413.77 257.62 413.77" style="fill:#263238"></polygon><polygon points="356.43 413.77 356.36 413.34 352.58 390.54 344.28 390.54 352.04 413.77 356.43 413.77" style="fill:#263238"></polygon><g style="opacity:0.6000000000000001;isolation:isolate"><polygon points="257.62 413.77 257.69 413.34 261.47 390.54 269.77 390.54 262.01 413.77 257.62 413.77" style="fill:#fff"></polygon><polygon points="356.43 413.77 356.36 413.34 352.58 390.54 344.28 390.54 352.04 413.77 356.43 413.77" style="fill:#fff"></polygon></g><rect x="252.41" y="254.04" width="109.23" height="141.59" rx="3.63" style="fill:#90CAF9"></rect><rect x="252.41" y="254.04" width="109.23" height="141.59" rx="3.63" style="fill:#fff;opacity:0.4;isolation:isolate"></rect><rect x="256.86" y="284.9" width="100.33" height="51.11" style="fill:#fff;opacity:0.5;isolation:isolate"></rect><rect x="256.86" y="339.42" width="100.33" height="51.11" style="fill:#fff;opacity:0.5;isolation:isolate"></rect><rect x="256.86" y="259.12" width="100.33" height="22.38" style="fill:#fff;opacity:0.5;isolation:isolate"></rect><path d="M315.23,262.84H298.82a2.62,2.62,0,0,1-2.36-1.48l-1.1-2.24h23.33l-1.1,2.24A2.62,2.62,0,0,1,315.23,262.84Z" style="opacity:0.5;isolation:isolate"></path><path d="M315.23,288.62H298.82a2.63,2.63,0,0,1-2.36-1.47l-1.1-2.25h23.33l-1.1,2.25A2.63,2.63,0,0,1,315.23,288.62Z" style="opacity:0.5;isolation:isolate"></path><path d="M315.23,343.14H298.82a2.63,2.63,0,0,1-2.36-1.47l-1.1-2.25h23.33l-1.1,2.25A2.63,2.63,0,0,1,315.23,343.14Z" style="opacity:0.5;isolation:isolate"></path><polygon points="332.26 255.31 329.49 248.45 336.61 223.92 338.27 232.5 339.21 213.77 346.5 248.71 344.52 255.31 332.26 255.31" style="fill:#90CAF9"></polygon><polygon points="336.61 223.92 336.61 238.69 338.27 232.5 341.36 239.88 339.35 214.44 338.27 232.5 336.61 223.92" style="opacity:0.2;isolation:isolate"></polygon><polyline points="336.61 238.69 339.21 244.43 341.36 239.88 338.27 232.5 336.61 239.02" style="fill:#fff;opacity:0.2;isolation:isolate"></polyline><polygon points="336.61 223.92 334.37 238.46 329.49 248.45 336.61 223.92" style="fill:#fff;opacity:0.2;isolation:isolate"></polygon><polygon points="339.21 213.77 342.81 239.88 346.5 248.71 339.21 213.77" style="fill:#fff;opacity:0.2;isolation:isolate"></polygon><polygon points="331.64 253.78 334.9 248.71 339.21 252.93 342.15 249.5 344.98 253.78 344.52 255.31 332.26 255.31 331.64 253.78" style="opacity:0.2;isolation:isolate"></polygon><rect x="327" y="253.78" width="22" height="6.49" style="fill:#263238"></rect><rect x="333.84" y="256.04" width="8.31" height="1.98" style="fill:#fff;opacity:0.5;isolation:isolate"></rect></g><g id="freepik--vacuum-cleaner--inject-2"><path d="M131.2,398.88l-1.67-4.72c.53-.18,52.79-18.8,65.27-32.79,5.84-6.54,13-22.36,19.85-37.67,8.78-19.5,16.36-36.34,23.25-40.54,4.73-2.88,8.37-3.43,11.15-1.65,4.62,3,4.33,11.23,3.43,18.93l-5-.57c1.31-11.26-.38-13.65-1.17-14.15s-3.12,0-5.85,1.71c-5.57,3.4-13.92,21.95-21.29,38.32s-14.33,31.83-20.67,38.95C185.21,379.64,133.4,398.1,131.2,398.88Z" style="fill:#263238"></path><g style="opacity:0.2"><path d="M131.2,398.88l-1.67-4.72c.53-.18,52.79-18.8,65.27-32.79,5.84-6.54,13-22.36,19.85-37.67,8.78-19.5,16.36-36.34,23.25-40.54,4.73-2.88,8.37-3.43,11.15-1.65,4.62,3,4.33,11.23,3.43,18.93l-5-.57c1.31-11.26-.38-13.65-1.17-14.15s-3.12,0-5.85,1.71c-5.57,3.4-13.92,21.95-21.29,38.32s-14.33,31.83-20.67,38.95C185.21,379.64,133.4,398.1,131.2,398.88Z" style="fill:#fff"></path></g><path d="M129.83,413.76h-37A7.72,7.72,0,0,1,85.14,406V392.26A10.81,10.81,0,0,1,96,381.45h15.69a14.1,14.1,0,0,1,9.42,3.61l19.72,17.74h0A11,11,0,0,1,129.83,413.76Z" style="fill:#263238"></path><path d="M85.14,392.26V406a7.73,7.73,0,0,0,6.07,7.54,7.45,7.45,0,0,0,1.65.18h37a10.94,10.94,0,0,0,10.85-9.47,9.26,9.26,0,0,0,.11-1.49l-.81-.73-18.91-17a14.12,14.12,0,0,0-9.42-3.61H96A10.81,10.81,0,0,0,85.14,392.26Z" style="fill:#fff;opacity:0.2"></path><path d="M85.14,392.26v11.23c2.36,0,4.35,0,4.35,0v-7.95a7,7,0,0,1,7.05-7.05h12.53a10.39,10.39,0,0,1,6.84,2.57l15.2,13.26h6.38l2.49-2.22-18.91-17a14.12,14.12,0,0,0-9.42-3.61H96A10.81,10.81,0,0,0,85.14,392.26Z" style="fill:#fff;opacity:0.2"></path><path d="M91.21,395.52v18.06a7.45,7.45,0,0,0,1.65.18h37a10.94,10.94,0,0,0,10.85-9.47H131.4a3.14,3.14,0,0,0-2.89,1.92,3.14,3.14,0,0,1-2.89,1.92H109.94a3.62,3.62,0,0,1-3.24-2l-4.16-8.45a3.82,3.82,0,0,0-3.43-2.14Z" style="fill:#263238"></path><path d="M138,407.26h6.73a3,3,0,0,0,3-3h0a3,3,0,0,0-3-3H138a3,3,0,0,0-3,3h0A3,3,0,0,0,138,407.26Z" style="fill:#263238"></path><circle cx="91.21" cy="403.34" r="10.28" transform="translate(-258.49 182.63) rotate(-45)" style="fill:#263238"></circle><circle cx="91.21" cy="403.34" r="10.28" transform="translate(-258.49 182.63) rotate(-45)" style="fill:#fff;opacity:0.1"></circle><path d="M85,403.34a6.2,6.2,0,1,0,6.2-6.2A6.2,6.2,0,0,0,85,403.34Z" style="opacity:0.4;isolation:isolate"></path><path d="M138,407.26h6.73a3,3,0,0,0,3-3h0a3,3,0,0,0-3-3H138a3,3,0,0,0-3,3h0A3,3,0,0,0,138,407.26Z" style="fill:#fff;opacity:0.1"></path><rect x="182.34" y="346.31" width="106.96" height="6" transform="translate(-163.85 483.07) rotate(-74.48)" style="fill:#263238"></rect><path d="M232.9,406.46,226.24,404l-.49-5.79s-1.78-2.21-6.61-2.13l-5.46,8.34-9,1.38a3.29,3.29,0,0,0-2.54,2l-2,4.78,2.08,1.15H234l.3-5.24A2.08,2.08,0,0,0,232.9,406.46Z" style="fill:#263238"></path><path d="M232.9,406.46,226.24,404l-.49-5.79s-1.78-2.21-6.61-2.13l-5.46,8.34-9,1.38a3.29,3.29,0,0,0-2.54,2l-2,4.78,2.08,1.15H234l.3-5.24A2.08,2.08,0,0,0,232.9,406.46Z" style="fill:#fff;opacity:0.2"></path><polygon points="200.13 412.62 231.68 412.62 233.96 413.77 202.21 413.77 200.13 412.62" style="fill:#263238"></polygon></g><g id="freepik--Sculpture--inject-2"><path d="M250.46,416.56l-.72,3.14c-5.6,1.41-12.5,2.58-17,1.31-8.68-2.46-10.44-6.51-10.44-6.51s9.74,3.07,17.16-.65l2.69.5v3Z" style="fill:#90CAF9"></path><polygon points="250.46 416.56 249.74 419.7 245.42 419.46 240.57 420.25 240.57 417.09 237.9 417.09 239.88 415.21 239.47 413.85 242.16 414.35 242.16 417.35 250.46 416.56" style="opacity:0.2;isolation:isolate"></polygon><path d="M269.15,419.94l-.43,1.61-6.12-1.62-2.4,1.44c-1.6-1.84-4.49-3.57-8.82-.35,0,0,2.13-6.91,7.89-7.18C263.35,413.65,267.23,417.61,269.15,419.94Z" style="fill:#90CAF9"></path><polygon points="260.2 421.37 260.75 419.34 264.21 418.85 263.82 416.19 267.28 419.34 269.15 419.94 268.72 421.55 262.6 419.93 260.2 421.37" style="opacity:0.2;isolation:isolate"></polygon><path d="M298.55,420.39s-9.91,3.09-17-2.74a98.3,98.3,0,0,1-10,3.9l.86-5-1.75-2,5.7-6-3.78-1.16c2.59-3.15,7.46-7.21,13.43-3.21a24.12,24.12,0,0,1,11.13-2.94l-1.21,1.28h2v1.58l1.29.94c0,.12,0,.23.05.35H294l5.29,1.08a5.34,5.34,0,0,1-.46,2.42l0,0a16,16,0,0,1,.78,2.09C300.37,413.48,301,417.49,298.55,420.39Z" style="fill:#90CAF9"></path><polygon points="272.51 407.44 279.24 408.01 279.24 410.56 281.2 412.56 278.26 413.28 281.2 414.83 278.55 417.14 273.81 416.49 274.4 418.31 271.48 421.55 272.34 416.55 270.59 414.57 276.29 408.6 272.51 407.44" style="opacity:0.2;isolation:isolate"></polygon><path d="M285.94,404.23c-3.43,1.8-6.7,6.33-6.7,6.33V408a14.92,14.92,0,0,1,3.17-3.78C284,403.17,285.94,404.23,285.94,404.23Z" style="opacity:0.2;isolation:isolate"></path><path d="M299.63,411.06c-5.71-2.91-11.07.69-12.77,3.44a7.07,7.07,0,0,1-5.35,3.15c5-2.65,4.69-7.1,9-9.18a9,9,0,0,1,8.28.47l0,0A16,16,0,0,1,299.63,411.06Z" style="opacity:0.2;isolation:isolate"></path><polygon points="303.11 420.25 304.82 396.14 319.07 395.48 329.88 397.46 327.24 420.08 315.11 420.93 303.11 420.25" style="fill:#263238"></polygon><polygon points="304.82 396.14 317.88 398.12 315.92 420.88 303.11 420.25 304.82 396.14" style="fill:#fff;opacity:0.2;isolation:isolate"></polygon><polygon points="317.88 398.12 329.88 397.46 327.24 420.08 315.92 420.88 317.88 398.12" style="opacity:0.2;isolation:isolate"></polygon><path d="M309,399.7c-2.63-.26-2.63,6.07-2.63,6.07L304,407.16l2.37,1.35-1.72,2.91-2.5,2.41,2.5,0-1.22,1.29s2.54,2.52,5.31,2.51a7.28,7.28,0,0,1-1.75-6.23c.7-3.8,1.49-4.26,1.49-4.26a3.39,3.39,0,0,1-1.49-3.4A10.15,10.15,0,0,1,309,399.7Z" style="fill:#90CAF9"></path><path d="M309,399.7c-2.63-.26-2.63,6.07-2.63,6.07L304,407.16l2.37,1.35-1.72,2.91-2.5,2.41,2.5,0-1.22,1.29s2.54,2.52,5.31,2.51a7.28,7.28,0,0,1-1.75-6.23c.7-3.8,1.49-4.26,1.49-4.26a3.39,3.39,0,0,1-1.49-3.4A10.15,10.15,0,0,1,309,399.7Z" style="opacity:0.2;isolation:isolate"></path><path d="M306.41,399.44c2.11-1.06,4.88-.4,5.54,1.19s0,6.53,0,6.53a18,18,0,0,1,1,6.69c-.31,3.13-4.14,3.8-4.14,3.8a9.42,9.42,0,0,0,2.9-3.8c1.19-2.65-.66-6.69-.66-6.69l-.52-1.26v-1.58l-.81-.56,1.46-1.29-.65-1.26-2.11-.58.65-.93Z" style="fill:#90CAF9"></path><polygon points="322.9 403.76 321.57 415.26 323.68 415.26 325 403.76 322.9 403.76" style="fill:#fff;opacity:0.2;isolation:isolate"></polygon><polygon points="273.73 424.76 275.89 423.31 280.69 424.76 278.89 425.81 273.73 424.76" style="fill:#90CAF9"></polygon><path d="M245.88,425.81l2.11-2.5s.79,1.71,2,1.25a8.6,8.6,0,0,0,2.44-1.78l1.38,1.78S249.44,427.4,245.88,425.81Z" style="fill:#90CAF9"></path><path d="M302.19,423.7c.53-.66,4.84,0,4.84,0l4.78-.92,2.51.53h1.6l-4.77,1.25h3.7l-4.35,1.73-3.47-.48a22.64,22.64,0,0,0,2-1.25c-.27.07-5.94,0-5.94,0Z" style="fill:#90CAF9"></path><polygon points="214.63 424.54 218.85 423.31 220.43 423.92 219.24 424.56 214.63 424.54" style="fill:#90CAF9"></polygon></g><g id="freepik--speech-bubble--inject-2"><polygon points="223.97 177.45 213.88 189.49 231.15 180.33 223.97 177.45" style="fill:#90CAF9"></polygon><polygon points="223.97 177.45 213.88 189.49 231.15 180.33 223.97 177.45" style="fill:#fff;opacity:0.7000000000000001;isolation:isolate"></polygon><rect x="209.81" y="138.7" width="42.7" height="42.7" rx="5.82" transform="translate(30.8 -37.2) rotate(9.85)" style="fill:#90CAF9"></rect><rect x="209.81" y="138.7" width="42.7" height="42.7" rx="5.82" transform="translate(30.8 -37.2) rotate(9.85)" style="fill:#fff;opacity:0.7000000000000001;isolation:isolate"></rect><path d="M227,168.56a2.55,2.55,0,0,1,3.06-2.05,2.56,2.56,0,1,1-.87,5A2.56,2.56,0,0,1,227,168.56Zm3.78-20.42,4.81.84-3.46,15.08-3.22-.56Z" style="fill:#263238"></path></g><g id="freepik--Character--inject-2"><g id="freepik--group--inject-2"><path d="M178.27,218.55s8.9,17.37,11.24,20,23.71,11.3,23.71,11.3l2.37,2.63L227.2,254l4-7.92s-13.45-2.93-14.77-2.91-1.69,1.86-1.69,1.86-17.74-10-19-11.34-6.52-17-6.52-17Z" style="fill:#ebb376"></path><path d="M194.69,227.3l-12,3.09-5.4-7.74-4.16-6,5.21-3.85,8.72-6.44C189.15,208,194.69,227.3,194.69,227.3Z" style="fill:#263238"></path><path d="M177.27,222.65l-4.16-6,5.21-3.85C178.42,214.79,178.49,219.54,177.27,222.65Z" style="opacity:0.2;isolation:isolate"></path><polygon points="120.35 406.19 127.76 406.19 128.37 389.04 120.95 389.04 120.35 406.19" style="fill:#ebb376"></polygon><path d="M128.78,405.34h-9a.63.63,0,0,0-.63.51l-1.46,6.59a1.09,1.09,0,0,0,.84,1.3l.24,0c2.91-.05,5-.23,8.68-.23,2.26,0,9,.24,12.16.24s3.51-3.07,2.24-3.36c-5.71-1.24-10-3-11.83-4.6A1.8,1.8,0,0,0,128.78,405.34Z" style="fill:#90CAF9"></path><path d="M129.29,406.36a.16.16,0,0,1-.13-.15.17.17,0,0,1,.08-.17c.27-.17,2.66-1.63,3.48-1.21a.52.52,0,0,1,.3.49,1,1,0,0,1-.37.94,2.21,2.21,0,0,1-1.42.38A8.57,8.57,0,0,1,129.29,406.36Zm.51-.24a3.65,3.65,0,0,0,2.64-.13.72.72,0,0,0,.23-.63c0-.14-.06-.21-.11-.21a.46.46,0,0,0-.23,0A7.25,7.25,0,0,0,129.8,406.12Z" style="fill:#90CAF9"></path><path d="M129.24,406.4a.18.18,0,0,1-.08-.16c0-.1.19-2.23,1.05-2.93a.9.9,0,0,1,.74-.22.57.57,0,0,1,.56.46c.16.78-1.32,2.41-2.09,2.82h-.08A.17.17,0,0,1,129.24,406.4Zm1.19-2.88a4.13,4.13,0,0,0-.87,2.32c.76-.58,1.7-1.81,1.61-2.29,0-.05,0-.18-.26-.18h-.08A.59.59,0,0,0,130.43,403.52Z" style="fill:#90CAF9"></path><polygon points="120.95 389.05 128.37 389.05 128.05 397.9 120.64 397.9 120.95 389.05" style="opacity:0.2;isolation:isolate"></polygon><polygon points="158.48 406.75 166.13 407.56 167.56 391.08 159.92 390.27 158.48 406.75" style="fill:#ebb376"></polygon><path d="M166.93,405.1h-9a.63.63,0,0,0-.63.51l-1.46,6.59a1.09,1.09,0,0,0,.84,1.3,1,1,0,0,0,.24,0c2.91,0,5-.22,8.69-.22,2.25,0,9,.23,12.15.23s3.51-3.07,2.24-3.35c-5.71-1.24-10-3-11.83-4.61A1.8,1.8,0,0,0,166.93,405.1Z" style="fill:#90CAF9"></path><path d="M167.44,406.13a.18.18,0,0,1-.13-.15.15.15,0,0,1,.09-.17c.26-.17,2.65-1.64,3.47-1.22a.52.52,0,0,1,.3.49,1.06,1.06,0,0,1-.36.95,2.25,2.25,0,0,1-1.43.37A9.16,9.16,0,0,1,167.44,406.13Zm.51-.25a3.55,3.55,0,0,0,2.64-.13.71.71,0,0,0,.23-.63c0-.14-.06-.21-.11-.21a.43.43,0,0,0-.22,0A7.2,7.2,0,0,0,168,405.88Z" style="fill:#90CAF9"></path><path d="M167.4,406.17a.19.19,0,0,1-.09-.16c0-.11.19-2.24,1.05-2.93a1,1,0,0,1,.74-.23.58.58,0,0,1,.57.46c.15.78-1.33,2.41-2.1,2.83h-.08A.16.16,0,0,1,167.4,406.17Zm1.18-2.89a4.19,4.19,0,0,0-.87,2.32c.76-.57,1.7-1.81,1.61-2.29,0,0,0-.18-.26-.18H169A.64.64,0,0,0,168.58,403.28Z" style="fill:#90CAF9"></path><polygon points="159.92 390.27 167.56 391.08 166.81 399.58 159.17 398.77 159.92 390.27" style="opacity:0.2;isolation:isolate"></polygon><path d="M170.36,395.54l-13.31-1.65s.67-46.77-3.73-83.88c-.09-.76-.18-1.52-.28-2.27s-.21-1.63-.31-2.44-.21-1.54-.33-2.3c-1.45-10.25-3.36-19.39-5.86-26.11-1,12-2,24.57-3.1,34.26-.07.68-.15,1.34-.22,2s-.16,1.43-.24,2.11-.16,1.33-.24,2c-.19,1.5-.37,2.88-.55,4.12-3.42,23.55-10.74,75-10.74,75H117.9s2.77-49.26,4-72.41c.29-5.13.54-11.5.76-18.44,0-.69,0-1.37.07-2.07s0-1.47.07-2.22,0-1.38.05-2.08c.73-26,1.07-56.78,1.11-60.57h39.31a652.87,652.87,0,0,1,9.05,76.1l.12,2.18c0,.77.09,1.55.13,2.33s.07,1.44.1,2.17h0C173.84,345,173.58,370.85,170.36,395.54Z" style="fill:#90CAF9"></path><polygon points="171.88 398.64 155.41 396.19 155.91 391.63 173.05 393.88 171.88 398.64" style="fill:#90CAF9"></polygon><polygon points="133.08 396.47 117.1 396.47 117.1 391.7 133.68 391.39 133.08 396.47" style="fill:#90CAF9"></polygon><g style="opacity:0.2"><polygon points="171.88 398.64 155.41 396.19 155.91 391.63 173.05 393.88 171.88 398.64" style="fill:#fff"></polygon></g><g style="opacity:0.2"><polygon points="133.08 396.47 117.1 396.47 117.1 391.7 133.68 391.39 133.08 396.47" style="fill:#fff"></polygon></g><path d="M128.78,405.34h-9a.63.63,0,0,0-.63.51l-1.46,6.59a1.09,1.09,0,0,0,.84,1.3l.24,0c2.91-.05,5-.23,8.68-.23,2.26,0,9,.24,12.16.24s3.51-3.07,2.24-3.36c-5.71-1.24-10-3-11.83-4.6A1.8,1.8,0,0,0,128.78,405.34Z" style="fill:#fff;opacity:0.5;isolation:isolate"></path><path d="M166.93,405.1h-9a.63.63,0,0,0-.63.51l-1.46,6.59a1.09,1.09,0,0,0,.84,1.3,1,1,0,0,0,.24,0c2.91,0,5-.22,8.69-.22,2.25,0,9,.23,12.15.23s3.51-3.07,2.24-3.35c-5.71-1.24-10-3-11.83-4.61A1.8,1.8,0,0,0,166.93,405.1Z" style="fill:#fff;opacity:0.5;isolation:isolate"></path><path d="M165.58,245.68l-43.15-4.17s2.58-22.72,14.28-38.45a40.28,40.28,0,0,1,8.64-8.7,30.43,30.43,0,0,1,3.47-2.21s21.61.79,38.22,14.24C187,206.39,163.8,224.34,165.58,245.68Z" style="fill:#263238"></path><path d="M165.58,245.68l-43.15-4.17s2.58-22.72,14.28-38.45a40.28,40.28,0,0,1,8.64-8.7,30.43,30.43,0,0,1,3.47-2.21s21.61.79,38.22,14.24C187,206.39,163.8,224.34,165.58,245.68Z" style="fill:#fff;opacity:0.4;isolation:isolate"></path><path d="M146.54,276.9a106,106,0,0,1,4.39,17c1.1-15-3.3-31-3.3-31Z" style="opacity:0.2;isolation:isolate"></path><path d="M178.68,193.92c-3.2,6.08-2,7.2-2,7.2a14.17,14.17,0,0,1-2.27,2.44c-1.82,1.55-4.59,3.11-7.76,2.11-5.63-1.78-6.63-10.88-6.63-10.88h.33c3.21,0,5.89-2.94,7.39-5a21.6,21.6,0,0,0,1.19-1.86l.09-.16.21.06L180.35,191C179.69,192.08,179.14,193.05,178.68,193.92Z" style="fill:#ebb376"></path><path d="M178.68,193.92c-3.2,6.08-2,7.2-2,7.2a14.17,14.17,0,0,1-2.27,2.44c-5.26-2.65-4.72-10.45-4.72-10.45s-2-3.23-2-3.32a21.6,21.6,0,0,0,1.19-1.86l.09-.16.21.06L180.35,191C179.69,192.08,179.14,193.05,178.68,193.92Z" style="opacity:0.2;isolation:isolate"></path><path d="M193.11,177.3S193,187.62,187,190.63s-2.94-15.74-2.94-15.74Z" style="fill:#ebb376"></path><path d="M193.11,177.3S193,187.62,187,190.63s-2.94-15.74-2.94-15.74Z" style="opacity:0.4;isolation:isolate"></path><path d="M170.23,196.13a9.25,9.25,0,0,0,9.92,5.24,10.28,10.28,0,0,0,6.58-3.79,9.57,9.57,0,0,0,.64-.89c3.63-5.73,7.06-20.76.34-21.45-5.5-.57-10.49-3.26-14.15.9a9.91,9.91,0,0,0-2.19,4.12C169.41,187.33,167.92,191.39,170.23,196.13Z" style="fill:#ebb376"></path><path d="M181.24,185.8a.93.93,0,0,0,.32,1.25c.38.13.83-.24,1-.8s0-1.12-.32-1.25S181.44,185.23,181.24,185.8Z" style="fill:#263238"></path><path d="M187.63,188c-.23.55,0,1.13.32,1.25s.83-.23,1-.79.05-1.13-.32-1.25S187.81,187.45,187.63,188Z" style="fill:#263238"></path><path d="M185.5,187.57a21.68,21.68,0,0,0,1.05,5.75,3.44,3.44,0,0,1-2.89-.42Z" style="fill:#d58745"></path><path d="M183.14,182a.36.36,0,0,0-.36,0,2.87,2.87,0,0,1-2.51.35.35.35,0,0,0-.28.64h0a3.5,3.5,0,0,0,3.17-.41.35.35,0,0,0,.11-.48h0A.49.49,0,0,0,183.14,182Z" style="fill:#263238"></path><path d="M189.62,183.89a.29.29,0,0,0-.2,0,.35.35,0,0,0-.23.43h0a3.49,3.49,0,0,0,2.21,2.32.35.35,0,0,0,.43-.24h0a.35.35,0,0,0-.24-.43h0a2.82,2.82,0,0,1-1.72-1.87A.35.35,0,0,0,189.62,183.89Z" style="fill:#263238"></path><path d="M179.42,173.34l-.52,3.22a2.41,2.41,0,0,0-2,2.58c.25,2.9-2.4,6.52-4.88,7.56,0,0,.27-1.15-.76-1.16s-2.48,6-1.43,9.31c0,0-2.86-3.86-2.67-10.5.19-6.15,1.07-9.9,2.46-12.59Z" style="fill:#ebb376"></path><path d="M179.42,173.34l-.52,3.22a2.41,2.41,0,0,0-2,2.58c.25,2.9-2.4,6.52-4.88,7.56,0,0,.27-1.15-.76-1.16s-2.48,6-1.43,9.31c0,0-2.86-3.86-2.67-10.5.19-6.15,1.07-9.9,2.46-12.59Z" style="opacity:0.4;isolation:isolate"></path><path d="M168.3,175.2a33.81,33.81,0,0,0,10.6,1.36c10.28-.09,13.79,4.36,13.79,4.36a6.37,6.37,0,0,0,3-4.48c.25-2.91-3.61-4.15-3.61-4.15s-.59-3.43-3-4.9-5.53.45-5.53.45-2.68-3.78-6.66-3.61a5.83,5.83,0,0,0-5.63,4.7s-4.55-.4-4.89,1.92S168.3,175.2,168.3,175.2Z" style="fill:#263238"></path><path d="M166.39,184.91a7,7,0,0,0,2.65,4.64c1.94,1.48,3.82,0,4-2.35.18-2-.58-5.36-2.91-5.92A3.11,3.11,0,0,0,166.39,184.91Z" style="fill:#ebb376"></path><path d="M178.26,196.88h0a9.62,9.62,0,0,1,3.46-2.18s-.19-.22-.52-.56c-.95-.95-2.95-2.77-4.37-2.53a1.21,1.21,0,0,0-.36.1,3.49,3.49,0,0,0-1.5,1.41C174.14,194.5,174.4,196.38,178.26,196.88Z" style="fill:#263238"></path><path d="M176.83,191.6l3.6,3.18.77-.65C180.25,193.18,178.25,191.36,176.83,191.6Z" style="fill:#fff"></path><path d="M178.26,196.88h0c.07-2-2.11-3.23-3.29-3.76C174.14,194.5,174.4,196.38,178.26,196.88Z" style="fill:#de5753"></path><path d="M160.4,227.3s-19-7-23.69-24.24a40.28,40.28,0,0,1,8.64-8.7c6.54,4,14,11.63,14,11.63S162.5,222.63,160.4,227.3Z" style="opacity:0.2;isolation:isolate"></path><path d="M147.07,211.4s5.92,18.6,7.8,21.54S176.39,248,176.39,248l1.91,3,11.18,3.48,5.21-7.16s-12.78-5.1-14.09-5.31-2,1.56-2,1.56-15.85-12.81-16.88-14.31-3.62-17.89-3.62-17.89Z" style="fill:#ebb376"></path><path d="M148.82,192.16c-7.75,1.68-4.77,20.76-1.07,27.12l12.07-3.65S161,189.52,148.82,192.16Z" style="fill:#263238"></path><path d="M143.44,311.15c-.07.68-.15,1.34-.22,2l-20.37-11.92c0-.69,0-1.38.05-2.08Z" style="fill:#fff;opacity:0.4;isolation:isolate"></path><path d="M143,315.25c-.08.68-.16,1.33-.24,2l-20-11.71c0-.69,0-1.37.07-2.07Z" style="fill:#fff;opacity:0.4;isolation:isolate"></path><path d="M172.49,316.85,152.73,305.3c-.11-.77-.21-1.54-.33-2.3l20,11.67Z" style="fill:#fff;opacity:0.4;isolation:isolate"></path><path d="M172.72,321.35,153.32,310c-.09-.76-.18-1.52-.28-2.27l19.58,11.44C172.65,319.9,172.69,320.62,172.72,321.35Z" style="fill:#fff;opacity:0.4;isolation:isolate"></path></g></g></svg>