<?xml version="1.0" encoding="utf-8"?>
<svg width="844.6753px" height="595.2616px" viewBox="0 0 844.6753 595.2616" version="1.1" xmlns:xlink="http://www.w3.org/1999/xlink" xmlns="http://www.w3.org/2000/svg">
  <defs>
    <path d="M0 0L844.675 0L844.675 595.262L0 595.262L0 0Z" id="path_1" />
    <clipPath id="mask_1">
      <use xlink:href="#path_1" />
    </clipPath>
  </defs>
  <g id="undraw_questions_re_1fy7-(1)">
    <path d="M0 0L844.675 0L844.675 595.262L0 595.262L0 0Z" id="Background" fill="#FFFFFF" fill-opacity="0" fill-rule="evenodd" stroke="none" />
    <path d="M385.393 548C385.393 522.595 405.988 502 431.393 502C456.798 502 477.393 522.595 477.393 548C477.393 573.405 456.798 594 431.393 594C405.988 594 385.393 573.405 385.393 548Z" id="Circle" fill="#00BFA6" fill-rule="evenodd" stroke="none" />
    <path d="M706.199 591.416C731.934 583.687 759.293 575.628 779.703 557.255C797.94 540.836 810.253 515.766 802.697 491.143C795.157 466.571 772.573 450.187 749.256 442.038C736.031 437.416 722.195 434.852 708.364 432.837C693.329 430.648 678.228 428.854 663.134 427.127C602.016 420.137 540.668 415.867 479.09 414.316C448.705 413.551 418.326 413.569 387.938 414.011C360.798 414.405 332.215 414.395 307.039 402.86C287.46 393.89 269.691 377.571 264.235 356.127C257.938 331.372 269.553 306.163 286.215 288.234C294.998 278.784 305.263 270.831 315.851 263.517C327.339 255.583 339.227 248.211 351.372 241.329C375.294 227.782 400.302 216.252 426.139 206.86C438.885 202.226 451.82 198.228 464.867 194.539C475.884 191.424 486.935 188.305 497.583 184.062C518.166 175.858 537.744 161.962 542.977 139.18C547.937 117.589 539.574 94.1494 524.912 78.1095C507.949 59.5525 482.373 51.4177 457.852 50.1015C430.324 48.6239 403.43 55.5135 377.555 64.2574C349.959 73.5834 322.957 84.3066 294.777 91.8606C266.833 99.344 238.348 104.639 209.581 107.697C195.499 109.197 180.991 110.89 166.825 109.742C154.953 108.78 143.141 105.288 134.391 96.8623C126.888 89.6375 122.419 79.7083 123.956 69.2299C124.235 67.3267 127.126 68.1358 126.849 70.0274C124.978 82.7825 133.648 94.536 144.333 100.557C156.681 107.515 171.707 107.524 185.455 106.729C215.263 104.928 244.871 100.648 273.969 93.9331C302.562 87.4025 330.133 78.0667 357.673 68.094C383.829 58.6225 410.57 49.3782 438.513 47.3267C462.759 45.5466 488.265 49.0789 509.387 61.7498C527.951 72.8858 541.602 91.457 545.952 112.768C550.202 133.593 544.316 154.553 528.552 169.085C512.23 184.131 489.851 190.564 468.995 196.489C442.543 204.003 416.658 212.787 391.603 224.192C366.206 235.72 341.85 249.413 318.803 265.12C296.556 280.322 274.602 299.451 267.566 326.571C264.289 339.204 264.894 352.603 270.378 364.536C275.254 375.146 283.284 384.07 292.639 390.954C314.96 407.379 343.092 410.751 370.054 411.086C400.335 411.463 430.617 410.441 460.909 410.938C522.641 411.952 584.247 415.709 645.727 422.211C661.133 423.842 676.519 425.644 691.885 427.618C705.707 429.394 719.575 431.159 733.163 434.313C757.326 439.921 780.837 450.705 795.855 471.191C802.521 480.071 806.65 490.594 807.802 501.637C808.854 513.161 806.032 524.706 800.822 534.958C789.29 557.648 767.689 572.08 744.749 581.562C732.462 586.641 719.717 590.488 706.997 594.308C705.144 594.865 704.352 591.97 706.2 591.416L706.199 591.416Z" id="Shape" fill="#F2F2F2" stroke="none" />
    <path d="M101.893 69.5C101.893 56.2452 112.638 45.5 125.893 45.5C139.148 45.5 149.893 56.2452 149.893 69.5C149.893 82.7548 139.148 93.5 125.893 93.5C112.638 93.5 101.893 82.7548 101.893 69.5Z" id="Circle" fill="#F2F2F2" fill-rule="evenodd" stroke="none" />
    <path d="M268.393 115C268.393 101.745 279.138 91 292.393 91C305.648 91 316.393 101.745 316.393 115C316.393 128.255 305.648 139 292.393 139C279.138 139 268.393 128.255 268.393 115Z" id="Circle" fill="#F2F2F2" fill-rule="evenodd" stroke="none" />
    <path d="M409.393 24C409.393 10.7452 420.138 0 433.393 0C446.648 0 457.393 10.7452 457.393 24C457.393 37.2548 446.648 48 433.393 48C420.138 48 409.393 37.2548 409.393 24Z" id="Circle" fill="#F2F2F2" fill-rule="evenodd" stroke="none" />
    <path d="M497.393 126C497.393 112.745 508.138 102 521.393 102C534.648 102 545.393 112.745 545.393 126C545.393 139.255 534.648 150 521.393 150C508.138 150 497.393 139.255 497.393 126Z" id="Circle" fill="#F2F2F2" fill-rule="evenodd" stroke="none" />
    <path d="M378.393 244C378.393 230.745 389.138 220 402.393 220C415.648 220 426.393 230.745 426.393 244C426.393 257.255 415.648 268 402.393 268C389.138 268 378.393 257.255 378.393 244Z" id="Circle" fill="#F2F2F2" fill-rule="evenodd" stroke="none" />
    <path d="M227.393 301C227.393 287.745 238.138 277 251.393 277C264.648 277 275.393 287.745 275.393 301C275.393 314.255 264.648 325 251.393 325C238.138 325 227.393 314.255 227.393 301Z" id="Circle" fill="#F2F2F2" fill-rule="evenodd" stroke="none" />
    <path d="M387.393 390C387.393 376.745 398.138 366 411.393 366C424.648 366 435.393 376.745 435.393 390C435.393 403.255 424.648 414 411.393 414C398.138 414 387.393 403.255 387.393 390Z" id="Circle" fill="#F2F2F2" fill-rule="evenodd" stroke="none" />
    <path d="M559.393 440C559.393 426.745 570.138 416 583.393 416C596.648 416 607.393 426.745 607.393 440C607.393 453.255 596.648 464 583.393 464C570.138 464 559.393 453.255 559.393 440Z" id="Circle" fill="#F2F2F2" fill-rule="evenodd" stroke="none" />
    <path d="M760.393 429C760.393 415.745 771.138 405 784.393 405C797.648 405 808.393 415.745 808.393 429C808.393 442.255 797.648 453 784.393 453C771.138 453 760.393 442.255 760.393 429Z" id="Circle" fill="#F2F2F2" fill-rule="evenodd" stroke="none" />
    <path d="M426.465 68.0034C354.573 68.5112 295.709 126.933 294.688 198.82C294.679 199.483 294.674 204.15 294.675 210.254C294.675 228.888 309.781 243.997 328.417 244L328.419 244C337.378 243.998 345.97 240.435 352.302 234.096C358.634 227.758 362.188 219.162 362.18 210.202C362.176 206.05 362.174 203.176 362.174 203C362.174 172.297 383.96 145.927 414.098 140.136C444.237 134.345 474.244 150.763 485.618 179.268C496.991 207.772 486.53 240.338 460.684 256.886L460.706 256.894C460.706 256.894 412.678 287.813 398.035 330.229L398.048 330.232C395.473 338.921 394.168 347.937 394.174 357C394.174 360.725 394.393 393.321 394.817 419.778C395.125 438.77 410.612 454.005 429.607 454L429.607 454C438.872 454 447.755 450.304 454.286 443.732C460.818 437.16 464.458 428.255 464.401 418.989C464.254 394.76 464.174 366.548 464.174 364.5C464.174 338.455 489.3 312.505 509.938 295.583C533.704 276.096 550.806 249.54 557.675 219.583C559.195 213.416 560.033 207.1 560.174 200.75C560.174 165.376 546.056 131.466 520.953 106.543C495.85 81.6206 461.838 67.7479 426.465 68.0034L426.465 68.0034Z" id="Shape" fill="#00BFA6" stroke="none" />
    <path d="M843.485 595.262L1.19069 595.262C0.535522 595.258 0.00622559 594.726 0.00622559 594.071C0.00622559 593.416 0.535538 592.884 1.1907 592.88L843.485 592.88C844.141 592.882 844.671 593.415 844.671 594.071C844.671 594.727 844.141 595.259 843.485 595.262L843.485 595.262Z" id="Shape" fill="#3F3D56" stroke="none" />
    <path d="M598.449 242.996C598.449 226.427 611.88 212.996 628.449 212.996C645.017 212.996 658.449 226.427 658.449 242.996C658.449 259.564 645.017 272.996 628.449 272.996C611.88 272.996 598.449 259.564 598.449 242.996Z" id="Circle" fill="#2F2E41" fill-rule="evenodd" stroke="none" />
    <path d="M573.012 582.129L560.753 582.129L554.92 534.841L573.015 534.841L573.012 582.129L573.012 582.129Z" id="Polygon" fill="#A0616A" fill-rule="evenodd" stroke="none" />
    <path d="M551.996 578.626L575.639 578.626L575.639 593.512L537.109 593.512L537.109 593.512C537.109 585.291 543.774 578.626 551.995 578.626L551.996 578.626Z" id="Shape" fill="#2F2E41" stroke="none" />
    <path d="M668.012 582.129L655.753 582.129L649.92 534.841L668.015 534.841L668.012 582.129L668.012 582.129Z" id="Polygon" fill="#A0616A" fill-rule="evenodd" stroke="none" />
    <path d="M646.996 578.626L670.639 578.626L670.639 593.512L632.109 593.512L632.109 593.512C632.109 585.291 638.774 578.626 646.995 578.626L646.996 578.626Z" id="Shape" fill="#2F2E41" stroke="none" />
    <path d="M599.329 248.61C599.329 235.045 610.325 224.049 623.89 224.049C637.454 224.049 648.451 235.045 648.451 248.61C648.451 262.175 637.454 273.171 623.89 273.171C610.325 273.171 599.329 262.175 599.329 248.61Z" id="Circle" fill="#A0616A" fill-rule="evenodd" stroke="none" />
    <path d="M638.529 352.406L649.519 327.156C654.989 315.016 652.203 300.747 642.569 291.556C641.604 290.601 640.578 289.71 639.499 288.886C634.076 284.644 627.394 282.332 620.509 282.316C615.88 282.334 611.309 283.35 607.109 285.296C606.749 285.456 606.399 285.626 606.039 285.796C605.349 286.126 604.669 286.486 604.009 286.856C595.278 291.869 589.45 300.733 588.309 310.736L583.459 351.376C582.239 354.566 538.719 469.766 553.939 557.716C554.271 559.644 555.819 561.131 557.759 561.386L573.189 563.486C575.526 563.806 577.714 562.264 578.199 559.956L604.089 436.546C604.421 434.968 605.787 433.82 607.399 433.766C609.01 433.711 610.451 434.764 610.889 436.316L647.469 566.096C648.005 568.034 649.768 569.376 651.779 569.376C652.071 569.374 652.362 569.347 652.649 569.296L671.499 565.666C673.77 565.241 675.344 563.156 675.129 560.856C672.359 529.966 657.639 375.236 638.529 352.406L638.529 352.406Z" id="Shape" fill="#2F2E41" stroke="none" />
    <path d="M528.439 269.05C528.094 272.006 529.076 274.963 531.121 277.125C533.166 279.287 536.063 280.433 539.034 280.253L552.763 313.246L563.148 297.851L548.518 268.881C547.872 263.799 543.527 260.004 538.404 260.047C533.281 260.09 529 263.958 528.439 269.05L528.439 269.05Z" id="Shape" fill="#A0616A" stroke="none" />
    <path d="M622.528 385.626C625.483 385.273 628.13 383.629 629.756 381.137C631.382 378.645 631.821 375.56 630.954 372.713L659.84 351.675L642.449 345.162L617.686 366.139C612.894 367.952 610.216 373.062 611.451 378.034C612.687 383.005 617.445 386.267 622.528 385.626L622.528 385.626Z" id="Shape" fill="#A0616A" stroke="none" />
    <path d="M575.44 335.241C574.332 335.24 573.227 335.131 572.141 334.916C566.806 333.9 562.326 330.295 560.194 325.3L540.959 301.846C540.137 300.843 539.787 299.534 540 298.254C540.213 296.974 540.967 295.849 542.07 295.166L555.755 286.695C556.775 286.063 558.006 285.865 559.173 286.145C560.34 286.425 561.347 287.159 561.97 288.185L575.526 310.519L601.488 291.333C605.761 289.093 611.03 290.325 613.866 294.227C616.702 298.13 616.248 303.522 612.798 306.894L586.886 330.531C583.841 333.549 579.727 335.242 575.44 335.241L575.44 335.241Z" id="Shape" fill="#2F2E41" stroke="none" />
    <path d="M645.59 370.513C645.555 370.513 645.519 370.513 645.484 370.513C644.208 370.482 643.005 369.911 642.173 368.942L630.007 354.749C629.169 353.771 628.79 352.481 628.966 351.205C629.142 349.93 629.856 348.79 630.927 348.076L653.709 332.888L633.07 308.076C630.589 303.939 631.517 298.608 635.25 295.552C638.984 292.497 644.393 292.642 647.958 295.893L673.041 320.406C677.049 324.067 679.003 329.462 678.269 334.84C677.535 340.218 674.207 344.893 669.366 347.346L648.865 369.1C648.014 370.002 646.829 370.513 645.59 370.513L645.59 370.513Z" id="Shape" fill="#2F2E41" stroke="none" />
    <path d="M617.645 318.214C617.45 318.214 617.254 318.202 617.061 318.177C615.331 317.967 613.881 316.768 613.35 315.108L604.208 287.079C603.734 285.614 604.415 284.024 605.802 283.354L606.099 283.214C606.368 283.086 606.634 282.96 606.906 282.839C611.169 280.862 615.81 279.831 620.509 279.816C626.61 279.827 632.574 281.619 637.67 284.973C639.092 285.919 639.493 287.829 638.572 289.267L621.422 316.135C620.604 317.432 619.178 318.217 617.645 318.214L617.645 318.214Z" id="Shape" fill="#E6E6E6" stroke="none" />
    <path d="M642.284 219.786C642.284 214.365 646.68 209.969 652.101 209.969C657.523 209.969 661.918 214.365 661.918 219.786C661.918 225.208 657.523 229.603 652.101 229.603C646.68 229.603 642.284 225.208 642.284 219.786Z" id="Circle" fill="#2F2E41" fill-rule="evenodd" stroke="none" />
    <path d="M618.449 208.996L618.449 208.996C604.089 208.996 592.449 220.636 592.449 234.996L592.449 245.996L605.978 245.996L612.449 234.996L614.39 245.996L655.449 245.996L644.449 234.996C644.449 220.637 632.808 208.996 618.449 208.996L618.449 208.996Z" id="Shape" fill="#2F2E41" stroke="none" />
    <path d="M657.147 213.062C659.388 206.055 666.338 201.671 673.627 202.666C679.883 203.712 684.83 208.741 687.777 214.357C690.724 219.974 692.085 226.26 694.066 232.285C696.047 238.311 698.857 244.369 703.859 248.269C708.861 252.17 716.536 253.228 721.449 249.215C720.298 257.791 713.793 264.67 705.296 266.298C696.798 267.926 688.211 263.939 683.972 256.397C681.38 251.785 680.711 246.38 679.942 241.146C679.173 235.912 678.174 230.496 675.08 226.205C671.985 221.915 666.192 219.112 661.276 221.067L657.147 213.062Z" id="Shape" fill="#2F2E41" stroke="none" />
    <path d="M337.947 228.038L337.947 228.038C319.31 228.036 304.203 212.929 304.202 194.292C304.202 188.189 304.206 183.522 304.216 182.858C304.5 161.951 309.765 141.413 319.575 122.949C303.458 145.012 294.596 171.538 294.216 198.858C294.206 199.522 294.202 204.189 294.202 210.292C294.202 228.927 309.308 244.035 327.945 244.038L327.947 244.038C343.058 244.033 356.326 233.99 360.434 219.448C354.256 224.989 346.246 228.048 337.947 228.038L337.947 228.038Z" id="Shape" fill="#3F3D56" stroke="none" />
    <path d="M428.753 139.109C449.754 140.112 468.924 151.366 480.036 169.216C491.147 187.066 492.783 209.235 484.412 228.522C500.705 209.387 504.29 182.487 493.577 159.752C482.863 137.018 459.835 122.659 434.706 123.043C409.577 123.428 386.999 138.485 376.986 161.537C389.826 146.432 408.952 138.146 428.753 139.109L428.753 139.109Z" id="Shape" fill="#3F3D56" stroke="none" />
    <path d="M439.135 438.038L439.135 438.038C420.139 438.043 404.653 422.809 404.345 403.816C403.921 377.36 403.702 344.764 403.702 341.038C403.696 331.979 405 322.963 407.574 314.274L407.563 314.267C409.084 309.906 410.92 305.661 413.057 301.567C406.496 310.311 401.274 319.984 397.563 330.267L397.576 330.27C395.001 338.96 393.696 347.976 393.702 357.038C393.702 360.764 393.921 393.36 394.345 419.816C394.653 438.809 410.14 454.043 429.135 454.038L429.135 454.038C444.596 454.036 458.203 443.832 462.536 428.99C456.14 434.823 447.791 438.05 439.135 438.038L439.135 438.038Z" id="Shape" fill="#3F3D56" stroke="none" />
    <path d="M126.541 582.585L138.8 582.584L144.633 535.296L126.538 535.297L126.541 582.585L126.541 582.585Z" id="Polygon" fill="#FFB8B8" fill-rule="evenodd" stroke="none" />
    <path d="M162.444 593.968L123.914 593.969L123.913 579.082L147.557 579.081C155.779 579.081 162.444 585.746 162.444 593.968L162.444 593.967L162.444 593.968Z" id="Shape" fill="#2F2E41" stroke="none" />
    <path d="M82.541 582.585L94.8 582.584L100.633 535.296L82.538 535.297L82.541 582.585L82.541 582.585Z" id="Polygon" fill="#FFB8B8" fill-rule="evenodd" stroke="none" />
    <path d="M118.444 593.967L79.9138 593.969L79.9131 579.082L103.557 579.081C111.779 579.081 118.444 585.746 118.444 593.967L118.444 593.967L118.444 593.967Z" id="Shape" fill="#2F2E41" stroke="none" />
    <path d="M93.2543 568.042L81.2793 567.412C80.032 567.346 78.8629 566.784 78.0328 565.851C77.2027 564.918 76.7806 563.691 76.8608 562.445L91.1734 403.979L157.084 421.764L163.435 420.032L143.576 560.317C143.228 562.491 141.416 564.13 139.218 564.261L126.309 564.863C125.004 564.935 123.729 564.458 122.792 563.547C121.855 562.635 121.342 561.374 121.378 560.067L123.717 475.871C123.739 475.064 123.142 474.373 122.34 474.279C121.538 474.186 120.798 474.72 120.634 475.511L98.0767 564.323C97.6376 566.496 95.7245 568.056 93.5076 568.049C93.4237 568.049 93.3392 568.047 93.2543 568.042L93.2543 568.042Z" id="Shape" fill="#2F2E41" stroke="none" />
    <path d="M104.181 249.759C104.181 236.194 115.177 225.198 128.742 225.198C142.307 225.198 153.303 236.194 153.303 249.759C153.303 263.323 142.307 274.32 128.742 274.32C115.177 274.32 104.181 263.323 104.181 249.759Z" id="Circle" fill="#FFB8B8" fill-rule="evenodd" stroke="none" />
    <path d="M87.8496 321.918L90.5502 380.185L91.5264 401.384C91.606 403.271 92.8217 404.923 94.6007 405.559L157.937 428.503C158.448 428.693 158.99 428.788 159.536 428.783C160.797 428.789 162.006 428.282 162.885 427.379C163.765 426.476 164.239 425.255 164.2 423.995L161.603 319.228C161.252 301.496 148.345 286.518 130.86 283.551C130.247 283.457 129.624 283.364 129.001 283.28C118.361 281.96 107.683 285.417 99.8355 292.722C91.7095 300.196 87.3191 310.89 87.8496 321.918L87.8496 321.918Z" id="Shape" fill="#CCCCCC" stroke="none" />
    <path d="M188.192 416.876C185.155 415.933 182.742 413.61 181.684 410.611C180.626 407.612 181.049 404.289 182.823 401.649L161.345 373.089L179.88 371.942L197.434 399.239C201.313 402.238 202.481 407.588 200.206 411.931C197.93 416.274 192.866 418.359 188.192 416.876L188.192 416.876Z" id="Shape" fill="#FFB8B8" stroke="none" />
    <path d="M173.091 396.481C171.942 396.014 171.027 395.108 170.55 393.962L138.192 316.868C136.464 312.762 137.06 308.046 139.755 304.498C142.45 300.95 146.833 299.11 151.252 299.672C155.672 300.234 159.455 303.112 161.176 307.221L193.534 384.317C194.53 386.697 193.412 389.434 191.034 390.435L176.668 396.464C175.526 396.947 174.238 396.954 173.091 396.481L173.091 396.481Z" id="Shape" fill="#CCCCCC" stroke="none" />
    <path d="M120.845 393.762L151.925 334.253C153.173 331.87 156.114 330.947 158.5 332.189L203.611 355.749C205.994 356.997 206.917 359.939 205.675 362.324L174.595 421.833C173.347 424.216 170.406 425.139 168.02 423.897L122.909 400.337C120.526 399.089 119.603 396.147 120.845 393.762L120.845 393.762Z" id="Shape" fill="#3F3D56" stroke="none" />
    <path d="M141.688 366.574C140.568 363.597 138.107 361.325 135.05 360.447C131.993 359.568 128.701 360.186 126.171 362.113L96.3929 342.359L96.3423 360.929L124.628 376.841C127.851 380.536 133.261 381.386 137.462 378.858C141.663 376.33 143.444 371.152 141.688 366.574L141.688 366.574Z" id="Shape" fill="#FFB8B8" stroke="none" />
    <path d="M104.038 370.75L79.7015 351.472C74.3573 349.677 70.235 345.373 68.6733 339.956C67.1116 334.539 68.3095 328.701 71.8781 324.337L93.9752 295.377C97.1493 291.498 102.688 290.535 106.985 293.115C111.282 295.695 113.036 301.037 111.105 305.661L93.621 334.262L119.315 346.448C120.524 347.022 121.429 348.085 121.801 349.37C122.174 350.654 121.978 352.037 121.263 353.168L110.891 369.582C110.182 370.702 109.032 371.47 107.725 371.693C107.699 371.698 107.673 371.702 107.647 371.705C106.364 371.899 105.057 371.553 104.038 370.75L104.038 370.75Z" id="Shape" fill="#CCCCCC" stroke="none" />
    <path d="M110.183 266.205C109.969 265.58 110.057 264.892 110.42 264.341C110.783 263.789 111.381 263.437 112.039 263.386C113.384 263.459 114.64 264.079 115.515 265.101C116.404 266.126 117.439 267.015 118.587 267.738C119.775 268.337 121.386 268.252 122.063 267.11C122.7 266.038 122.264 264.602 121.879 263.357C120.899 260.188 120.351 256.902 120.249 253.587C120.138 249.886 120.66 246.025 122.708 243.138C125.352 239.414 130.08 238 134.554 238.102C139.028 238.205 143.429 239.586 147.861 240.459C149.391 240.76 151.189 240.914 152.213 239.729C153.301 238.468 152.901 236.427 152.438 234.725C151.237 230.307 149.963 225.74 147.173 222.173C144.156 218.465 139.846 216.039 135.112 215.382C130.567 214.819 125.953 215.343 121.65 216.911C114.639 219.121 108.469 223.418 103.967 229.229C99.3256 235.409 97.3201 243.175 98.3888 250.83C99.4329 257.496 102.966 263.519 108.275 267.684L110.183 266.205Z" id="Shape" fill="#2F2E41" stroke="none" />
    <path d="M421.258 582.78C408.01 577.01 398.244 565.349 394.888 551.294C391.532 537.239 394.976 522.424 404.188 511.291C389.807 521.791 382.778 539.647 386.143 557.132C389.507 574.616 402.661 588.589 419.911 593.002C437.161 597.415 455.409 591.476 466.757 577.755C453.562 587.399 436.239 589.312 421.258 582.78L421.258 582.78Z" id="Shape" fill="#3F3D56" stroke="none" />
  </g>
</svg>