<?xml version="1.0" encoding="utf-8"?>
<svg width="287.59998px" height="204.76001px" viewBox="0 0 287.59998 204.76001" version="1.1" xmlns:xlink="http://www.w3.org/1999/xlink" xmlns="http://www.w3.org/2000/svg">
  <defs>
    <path d="M0 0L287.6 0L287.6 204.76L0 204.76L0 0Z" id="path_1" />
    <clipPath id="mask_1">
      <use xlink:href="#path_1" />
    </clipPath>
  </defs>
  <g id="Unsplash_Logo_Full_Stacked">
    <path d="M0 0L287.6 0L287.6 204.76L0 204.76L0 0Z" id="Background" fill="#FFFFFF" fill-opacity="0" fill-rule="evenodd" stroke="none" />
    <path d="M31.9 137.71L42.19 137.71L42.19 170.6C42.19 183.6 33 191.78 21.06 191.78C9.12 191.78 0 183.57 0 170.6L0 137.71L10.29 137.71L10.29 170.71C10.29 177.64 14.94 181.71 21.06 181.71C27.18 181.71 31.9 177.61 31.9 170.71L31.9 137.71ZM68.62 152.92C64.62 152.92 60.27 154.64 58.03 158.44L58.03 153.89L48.41 153.89L48.41 190.59L58.33 190.59L58.33 169.48C58.33 165.23 60.87 161.87 65.19 161.87C69.97 161.87 71.98 165.08 71.98 169.18L71.98 190.59L81.9 190.59L81.9 167.47C81.9 159.41 77.72 152.92 68.62 152.92L68.62 152.92ZM105 168.36L99.55 167.24C97.48 166.82 96.19 165.75 96.19 163.96C96.19 161.87 98.06 160.31 100.67 160.31C104.33 160.31 105.78 162.2 106.14 164.41L114.69 164.41C114.62 159.41 110.63 152.78 100.82 152.78C92.91 152.78 87.09 158.22 87.09 164.78C87.09 169.93 90.3 174.18 97.39 175.78L102.46 176.9C105.3 177.5 106.46 178.84 106.46 180.48C106.46 182.42 104.66 184.14 101.38 184.14C97.38 184.14 95.27 181.89 94.77 179.28L85.93 179.28C86.42 184.76 90.4 191.74 101.43 191.74C111.05 191.74 115.91 185.63 115.91 179.66C115.91 174.25 112.25 169.85 105 168.36L105 168.36ZM158.09 172.17C158.09 183.28 151.16 191.48 140.79 191.48C135.72 191.48 131.99 189.48 130.2 187.01L130.2 204.76L120.3 204.76L120.3 153.89L129.92 153.89L129.92 158.44C131.56 155.61 135.67 153.07 141.18 153.07C151.92 153.07 158.11 161.28 158.11 172.17L158.09 172.17ZM148.32 172.24C148.32 165.75 144.32 161.95 139.23 161.95C134.14 161.95 130.05 165.75 130.05 172.24C130.05 178.73 134.15 182.61 139.23 182.61C144.31 182.61 148.34 178.8 148.34 172.24L148.32 172.24ZM205.45 153.89L215.07 153.89L215.07 190.59L205.15 190.59L205.15 186.12C203.46 189.07 199.64 191.48 194.56 191.48C184.2 191.48 177.26 183.28 177.26 172.17C177.26 161.28 183.45 153.07 194.19 153.07C199.71 153.07 203.7 155.63 205.45 158.44L205.45 153.89ZM205.3 172.24C205.3 165.75 201.2 161.95 196.13 161.95C191.06 161.95 187.03 165.75 187.03 172.24C187.03 178.73 191.03 182.61 196.13 182.61C201.23 182.61 205.32 178.73 205.32 172.24L205.3 172.24ZM162.72 190.59L172.64 190.59L172.64 137.71L162.72 137.71L162.72 190.59ZM274 152.93C270.49 152.93 266.47 154.11 264.08 156.93L264.08 137.71L254.16 137.71L254.16 190.57L264 190.57L264 169C264.22 165 266.69 161.84 270.86 161.84C275.64 161.84 277.65 165.06 277.65 169.16L277.65 190.56L287.57 190.56L287.57 167.44C287.6 159.42 283.28 152.93 274 152.93L274 152.93ZM238.7 168.36L233.24 167.24C231.17 166.82 229.89 165.75 229.89 163.96C229.89 161.87 231.76 160.31 234.37 160.31C238.03 160.31 239.48 162.2 239.83 164.41L248.39 164.41C248.32 159.41 244.33 152.78 234.51 152.78C226.61 152.78 220.79 158.22 220.79 164.78C220.79 169.93 224 174.18 231.08 175.78L236.16 176.9C238.99 177.5 240.16 178.84 240.16 180.48C240.16 182.42 238.37 184.14 235.08 184.14C231.08 184.14 228.98 181.89 228.47 179.28L219.6 179.28C220.09 184.76 224.07 191.74 235.11 191.74C244.73 191.74 249.58 185.63 249.58 179.66C249.58 174.25 245.93 169.85 238.7 168.36L238.7 168.36ZM205.82 52.15L168.68 52.15L168.68 85L125.06 85L125.06 52.15L87.92 52.15L87.92 117.88L205.82 117.88L205.82 52.15ZM168.68 0L125.06 0L125.06 32.87L168.68 32.87L168.68 0Z" id="Shape" fill="#000000" fill-rule="evenodd" stroke="none" />
  </g>
</svg>