<?xml version="1.0" encoding="utf-8"?>
<svg width="457.30005px" height="104.20001px" viewBox="0 0 457.30005 104.20001" version="1.1" xmlns:xlink="http://www.w3.org/1999/xlink" xmlns="http://www.w3.org/2000/svg">
  <defs>
    <path d="M0 0L457.2 0L457.2 104.2L0 104.2L0 0Z" id="path_1" />
    <clipPath id="mask_1">
      <use xlink:href="#path_1" />
    </clipPath>
  </defs>
  <g id="Unsplash_Logo_Full_White">
    <path d="M0 0L457.2 0L457.2 104.2L0 104.2L0 0Z" id="Background" fill="#FFFFFF" fill-opacity="0" fill-rule="evenodd" stroke="none" />
    <path d="M59.9 38.7L87.4 38.7L87.4 87.5L0 87.5L0 38.7L27.5 38.7L27.5 63L59.8 63L59.9 38.7L59.9 38.7ZM152.9 63.7C152.9 72 147.5 76.8 140 76.8C132.7 76.8 127.2 71.9 127.2 63.7L127.2 24.4L115 24.4L115 63.5C115 78.9 126 88.7 140.1 88.7C154.2 88.7 165.2 78.9 165.2 63.5L165.2 24.4L153 24.4L152.9 63.7L152.9 63.7ZM196.6 42.5C191.9 42.5 186.7 44.5 184 49.1L184 43.7L172.6 43.7L172.6 87.3L184.4 87.3L184.4 62.2C184.4 57.2 187.4 53.2 192.6 53.2C198.3 53.2 200.7 57 200.7 61.9L200.7 87.3L212.5 87.3L212.5 59.8C212.4 50.2 207.4 42.5 196.6 42.5L196.6 42.5ZM239.9 60.9L233.4 59.6C230.9 59.1 229.4 57.8 229.4 55.7C229.4 53.2 231.6 51.4 234.7 51.4C239.1 51.4 240.8 53.6 241.2 56.3L251.4 56.3C251.3 50.3 246.6 42.5 234.9 42.5C225.5 42.5 218.6 49 218.6 56.8C218.6 62.9 222.4 68 230.8 69.8L236.9 71.1C240.3 71.8 241.6 73.4 241.6 75.4C241.6 77.7 239.5 79.7 235.6 79.7C230.9 79.7 228.3 77 227.7 73.9L217.2 73.9C217.8 80.4 222.5 88.7 235.7 88.7C247.1 88.7 252.9 81.4 252.9 74.3C252.9 67.9 248.5 62.7 239.9 60.9L239.9 60.9ZM303.1 65.4C303.1 78.6 294.8 88.4 282.5 88.4C276.5 88.4 272 86 269.9 83.1L269.9 104.2L258.1 104.2L258.1 43.7L269.6 43.7L269.6 49.1C271.6 45.7 276.4 42.7 283 42.7C295.7 42.7 303.1 52.4 303.1 65.4L303.1 65.4ZM291.4 65.5C291.4 57.8 286.6 53.3 280.6 53.3C274.6 53.3 269.7 57.8 269.7 65.5C269.7 73.2 274.6 77.8 280.6 77.8C286.6 77.8 291.5 73.3 291.4 65.5L291.4 65.5ZM359.4 43.7L370.9 43.7L370.9 87.3L359.1 87.3L359.1 82C357.1 85.5 352.5 88.4 346.5 88.4C334.2 88.4 325.9 78.6 325.9 65.4C325.9 52.4 333.3 42.7 346 42.7C352.6 42.7 357.3 45.7 359.4 49.1L359.4 43.7L359.4 43.7ZM359.3 65.5C359.3 57.8 354.4 53.3 348.4 53.3C342.4 53.3 337.6 57.8 337.6 65.5C337.6 73.2 342.4 77.8 348.4 77.8C354.4 77.8 359.3 73.2 359.3 65.5L359.3 65.5ZM308.6 87.3L320.4 87.3L320.4 24.4L308.6 24.4L308.6 87.3L308.6 87.3ZM441 42.5C436.8 42.5 432 43.9 429.2 47.3L429.2 24.4L417.4 24.4L417.4 87.3L429.2 87.3L429.2 61.7C429.5 56.9 432.4 53.2 437.4 53.2C443.1 53.2 445.5 57 445.5 61.9L445.5 87.4L457.3 87.4L457.3 59.8C457.2 50.2 452.1 42.5 441 42.5L441 42.5ZM399 60.9L392.6 59.6C390.1 59.1 388.6 57.8 388.6 55.7C388.6 53.2 390.8 51.4 393.9 51.4C398.3 51.4 400 53.6 400.4 56.3L410.6 56.3C410.5 50.3 405.8 42.5 394.1 42.5C384.7 42.5 377.8 49 377.8 56.8C377.8 62.9 381.6 68 390 69.8L396 71.1C399.4 71.8 400.7 73.4 400.7 75.4C400.7 77.7 398.6 79.7 394.7 79.7C390 79.7 387.4 77 386.8 73.9L376.3 73.9C376.9 80.4 381.6 88.7 394.8 88.7C406.3 88.7 412 81.4 412 74.3C412 67.9 407.6 62.7 399 60.9L399 60.9ZM59.9 0L27.5 0L27.5 24.4L59.8 24.4L59.9 0L59.9 0Z" id="Shape" fill="#FFFFFF" fill-rule="evenodd" stroke="none" />
  </g>
</svg>