<?xml version="1.0" encoding="utf-8"?>
<svg width="457.2px" height="104.22998px" viewBox="0 0 457.2 104.22998" version="1.1" xmlns:xlink="http://www.w3.org/1999/xlink" xmlns="http://www.w3.org/2000/svg">
  <defs>
    <path d="M0 0L457.19 0L457.19 104.19L0 104.19L0 0Z" id="path_1" />
    <clipPath id="mask_1">
      <use xlink:href="#path_1" />
    </clipPath>
  </defs>
  <g id="Unsplash_Logo_Full">
    <path d="M0 0L457.19 0L457.19 104.19L0 104.19L0 0Z" id="Background" fill="#FFFFFF" fill-opacity="0" fill-rule="evenodd" stroke="none" />
    <path d="M59.88 38.66L87.41 38.66L87.41 87.41L0 87.41L0 38.66L27.53 38.66L27.53 63.03L59.88 63.03L59.88 38.66ZM152.88 63.66C152.88 71.91 147.43 76.79 139.98 76.79C132.7 76.79 127.17 71.91 127.17 63.66L127.17 24.41L114.95 24.41L114.95 63.54C114.95 78.99 125.95 88.75 140.01 88.75C154.07 88.75 165.16 78.99 165.16 63.54L165.16 24.41L152.91 24.41L152.88 63.66ZM196.58 42.53C191.88 42.53 186.64 44.53 183.98 49.1L183.98 43.69L172.53 43.69L172.53 87.33L184.34 87.33L184.34 62.23C184.34 57.23 187.34 53.23 192.5 53.23C198.18 53.23 200.58 57.05 200.58 61.93L200.58 87.33L212.38 87.33L212.38 59.82C212.41 50.23 207.44 42.51 196.61 42.51L196.58 42.53ZM239.89 60.9L233.41 59.57C230.94 59.07 229.41 57.8 229.41 55.67C229.41 53.18 231.64 51.32 234.74 51.32C239.1 51.32 240.83 53.57 241.25 56.2L251.43 56.2C251.35 50.2 246.6 42.36 234.92 42.36C225.51 42.36 218.59 48.83 218.59 56.64C218.59 62.77 222.4 67.83 230.83 69.64L236.88 70.97C240.25 71.68 241.58 73.28 241.58 75.23C241.58 77.54 239.44 79.58 235.58 79.58C230.87 79.58 228.31 76.9 227.71 73.79L217.21 73.79C217.8 80.32 222.53 88.63 235.67 88.63C247.12 88.63 252.89 81.35 252.89 74.25C252.88 67.89 248.53 62.66 239.92 60.88L239.89 60.9ZM303.08 65.43C303.08 78.65 294.82 88.43 282.49 88.43C276.49 88.43 272.01 86.03 269.88 83.1L269.88 104.23L258.08 104.23L258.08 43.67L269.53 43.67L269.53 49.08C271.53 45.71 276.36 42.69 282.93 42.69C295.74 42.69 303.11 52.45 303.11 65.41L303.08 65.43ZM291.45 65.52C291.45 57.8 286.66 53.27 280.62 53.27C274.58 53.27 269.71 57.8 269.71 65.52C269.71 73.24 274.59 77.85 280.62 77.85C286.65 77.85 291.53 73.31 291.53 65.5L291.45 65.52ZM359.45 43.69L370.9 43.69L370.9 87.33L359.1 87.33L359.1 82.02C357.1 85.52 352.53 88.4 346.49 88.4C334.16 88.4 325.9 78.63 325.9 65.4C325.9 52.4 333.27 42.68 346.05 42.68C352.62 42.68 357.37 45.73 359.45 49.07L359.45 43.69ZM359.27 65.52C359.27 57.8 354.39 53.27 348.36 53.27C342.33 53.27 337.53 57.78 337.53 65.5C337.53 73.22 342.32 77.83 348.36 77.83C354.4 77.83 359.28 73.23 359.28 65.5L359.27 65.52ZM308.61 87.33L320.41 87.33L320.41 24.41L308.61 24.41L308.61 87.33ZM440.96 42.52C436.79 42.52 431.96 43.93 429.15 47.3L429.15 24.41L417.35 24.41L417.35 87.32L429.15 87.32L429.15 61.68C429.42 56.88 432.35 53.16 437.32 53.16C443 53.16 445.4 56.99 445.39 61.87L445.39 87.34L457.2 87.34L457.2 59.82C457.19 50.23 452.05 42.52 440.96 42.52L440.96 42.52ZM398.96 60.88L392.53 59.55C390.06 59.05 388.53 57.78 388.53 55.65C388.53 53.16 390.75 51.3 393.86 51.3C398.21 51.3 399.94 53.55 400.36 56.18L410.53 56.18C410.45 50.18 405.7 42.34 394.02 42.34C384.61 42.34 377.69 48.81 377.69 56.62C377.69 62.75 381.51 67.81 389.94 69.62L395.94 70.95C399.31 71.66 400.64 73.26 400.64 75.21C400.64 77.52 398.5 79.56 394.64 79.56C389.93 79.56 387.37 76.88 386.77 73.77L376.28 73.77C376.86 80.3 381.59 88.61 394.73 88.61C406.18 88.61 411.95 81.33 411.95 74.23C411.95 67.89 407.6 62.66 399 60.88L398.96 60.88ZM59.88 0L27.53 0L27.53 24.37L59.88 24.37L59.88 0Z" id="Shape" fill="#000000" fill-rule="evenodd" stroke="none" />
  </g>
</svg>