<?xml version="1.0" encoding="utf-8"?>
<svg width="751.1189px" height="669.03px" viewBox="0 0 751.1189 669.03" version="1.1" xmlns:xlink="http://www.w3.org/1999/xlink" xmlns="http://www.w3.org/2000/svg">
  <defs>
    <path d="M0 0L751.119 0L751.119 669.03L0 669.03L0 0Z" id="path_1" />
    <clipPath id="mask_1">
      <use xlink:href="#path_1" />
    </clipPath>
  </defs>
  <g id="undraw_building_blocks_re_5ahy-(1)">
    <path d="M0 0L751.119 0L751.119 669.03L0 669.03L0 0Z" id="Background" fill="#FFFFFF" fill-opacity="0" fill-rule="evenodd" stroke="none" />
    <path d="M86.1518 669.03L85.4982 668.787C63.3553 660.435 46.0072 642.766 38.0626 620.474C35.9101 614.278 34.5462 607.837 34.0032 601.3L33.9498 600.677L34.5658 600.787C41.9194 602.107 49.639 602.836 53.0785 603.121L33.7821 590.353L33.817 589.689C34.1174 583.456 38.1803 578.032 44.0781 575.991C50.0322 573.793 56.725 575.437 60.9818 580.145C62.9002 582.227 64.9284 584.323 66.8895 586.351C73.6291 593.316 80.5983 600.519 85.005 609.022C91.6324 622.123 91.9922 637.516 85.984 650.912L86.1518 669.03L86.1518 669.03Z" id="Shape" fill="#F2F2F2" stroke="none" />
    <path d="M476.589 656.657L476.581 656.588C475.728 637.649 472.253 618.92 466.255 600.936L466.25 600.907C465.9 599.06 466.001 597.155 466.546 595.356C468.221 590.199 473.415 587.042 478.764 587.93C484.29 588.968 490.004 587.993 494.872 585.18C497.964 583.387 501.715 583.138 505.016 584.509C508.129 585.777 510.457 588.444 511.294 591.7C511.36 591.956 511.417 592.214 511.466 592.477C511.641 611.505 515.136 630.356 521.794 648.182L521.798 648.205C522.495 651.886 521.383 655.678 518.81 658.401C516.536 660.709 513.349 661.88 510.121 661.593C504.327 661.199 498.368 662.374 491.903 665.188C489.645 666.193 487.106 666.371 484.729 665.692C480.527 664.46 477.377 660.965 476.589 656.657L476.589 656.657Z" id="Shape" fill="#00BFA6" stroke="none" />
    <path d="M291.366 396.5L291.366 645.2L465.597 645.2L465.597 396.5C465.603 392.828 463.213 389.581 459.704 388.497C458.899 388.231 458.055 388.1 457.207 388.109L299.781 388.109C295.142 388.1 291.375 391.853 291.366 396.491L291.366 396.5L291.366 396.5ZM359.361 481.954C359.456 471.682 367.859 463.431 378.131 463.526C388.27 463.619 396.466 471.815 396.559 481.954L396.559 510.811C396.511 521.083 388.144 529.37 377.872 529.322C367.669 529.274 359.409 521.014 359.361 510.811L359.361 481.954L359.361 481.954Z" id="Shape" fill="#F2F2F2" fill-rule="evenodd" stroke="none" />
    <path d="M290.833 637.246L290.833 661.229C290.841 663.814 292.928 665.912 295.513 665.933L461.45 665.933C464.039 665.92 466.131 663.818 466.131 661.229L466.131 637.246L290.833 637.246L290.833 637.246Z" id="Shape" fill="#E6E6E6" stroke="none" />
    <path d="M17.2767 21.8002L17.2767 475.892C17.2863 487.941 27.0518 497.706 39.1011 497.716L712.018 497.716C724.067 497.706 733.833 487.941 733.842 475.892L733.842 21.8002C733.814 9.76272 724.055 0.0152702 712.018 0L39.1011 0C27.0636 0.01533 17.3054 9.76275 17.2767 21.8002L17.2767 21.8002Z" id="Shape" fill="#E6E6E6" stroke="none" />
    <path d="M706.404 15.762L44.7147 15.762C38.2693 15.776 33.0515 21.0047 33.0509 27.4502L33.0509 470.29C33.062 476.727 38.2776 481.943 44.7147 481.954L706.404 481.954C712.841 481.943 718.057 476.727 718.068 470.29L718.068 27.4502C718.068 21.0047 712.85 15.776 706.404 15.762L706.404 15.762ZM539.491 330.38C537.513 334.287 533.502 336.746 529.122 336.736L529.053 336.731C522.71 335.847 516.343 335.265 509.953 334.983C510.945 335.693 511.818 336.557 512.539 337.541C514.394 340.198 514.964 343.545 514.093 346.667C512.648 352.292 512.716 358.365 514.304 365.235C514.88 367.638 514.592 370.168 513.491 372.38C511.513 376.287 507.502 378.746 503.122 378.736L503.053 378.731C487.905 376.621 472.567 376.213 457.328 377.513C457.268 377.897 457.192 378.282 457.093 378.667C455.648 384.292 455.716 390.365 457.304 397.235C457.88 399.638 457.592 402.168 456.491 404.38C454.513 408.287 450.502 410.746 446.123 410.736L446.053 410.731C430.495 408.565 414.74 408.194 399.098 409.625C398.979 413.532 399.385 417.437 400.304 421.235C400.88 423.638 400.592 426.168 399.491 428.38C397.513 432.288 393.502 434.747 389.122 434.736L389.053 434.731C370.277 432.115 351.228 432.115 332.452 434.731L332.421 434.731C330.542 434.738 328.688 434.291 327.018 433.428C322.253 430.84 320.097 425.157 321.946 420.059C322.513 418.455 322.935 416.802 323.205 415.122C305.998 413.138 288.608 413.343 271.452 415.731L271.421 415.731C269.541 415.738 267.688 415.291 266.018 414.428C261.253 411.84 259.097 406.157 260.946 401.059C262.975 395.816 263.058 390.019 261.18 384.72C260.295 382.235 260.295 379.521 261.18 377.036C248.246 376.377 235.278 376.945 222.452 378.731L222.421 378.731C220.541 378.738 218.688 378.291 217.018 377.427C212.253 374.84 210.097 369.157 211.946 364.059C213.975 358.816 214.058 353.019 212.18 347.72C210.981 344.353 211.421 340.619 213.371 337.624C215.186 334.795 218.233 332.992 221.586 332.763C221.85 332.745 222.115 332.736 222.382 332.736C228.954 333.885 235.589 334.634 242.252 334.981C238.001 332.187 236.221 326.844 237.946 322.059C239.975 316.816 240.058 311.019 238.18 305.72C236.981 302.353 237.421 298.619 239.371 295.624C239.455 295.495 239.553 295.38 239.642 295.256C234.901 295.583 230.171 296.075 225.452 296.731L225.421 296.731C223.541 296.738 221.688 296.291 220.018 295.427C215.253 292.84 213.097 287.157 214.946 282.059C216.975 276.816 217.058 271.019 215.18 265.72C213.981 262.353 214.421 258.619 216.371 255.624C218.186 252.795 221.233 250.992 224.586 250.763C224.85 250.745 225.115 250.736 225.382 250.736C233.284 252.12 241.277 252.924 249.296 253.143C247.25 250.195 246.748 246.442 247.946 243.059C249.975 237.816 250.058 232.019 248.18 226.72C246.981 223.353 247.421 219.619 249.371 216.624C251.186 213.795 254.233 211.992 257.586 211.763C257.85 211.745 258.115 211.736 258.382 211.736C265.069 212.906 271.822 213.662 278.602 214C277.146 211.242 276.908 208.001 277.946 205.059C279.975 199.816 280.058 194.019 278.18 188.72C276.981 185.353 277.421 181.619 279.371 178.624C281.186 175.795 284.233 173.992 287.586 173.763C287.85 173.745 288.115 173.736 288.382 173.736C296.251 175.113 304.209 175.917 312.194 176.14C311.107 173.572 311.018 170.69 311.946 168.059C313.975 162.816 314.058 157.019 312.18 151.72C310.981 148.353 311.421 144.619 313.371 141.624C315.186 138.795 318.233 136.992 321.586 136.763C321.85 136.745 322.115 136.736 322.382 136.736C341.123 140.035 360.295 140.037 379.037 136.743L379.06 136.743C380.506 137.041 381.998 137.041 383.445 136.743L383.468 136.743C402.21 140.037 421.382 140.035 440.122 136.736C440.39 136.736 440.655 136.745 440.918 136.763C444.272 136.992 447.319 138.795 449.134 141.624C451.084 144.619 451.524 148.353 450.325 151.72C448.447 157.019 448.53 162.816 450.559 168.059C451.486 170.69 451.398 173.572 450.311 176.14C458.296 175.917 466.254 175.113 474.122 173.736C474.39 173.736 474.655 173.745 474.918 173.763C478.272 173.992 481.319 175.795 483.134 178.624C485.084 181.619 485.524 185.353 484.325 188.72C482.447 194.019 482.53 199.816 484.559 205.059C485.597 208.001 485.359 211.242 483.903 214C490.683 213.662 497.435 212.906 504.122 211.736C504.39 211.736 504.655 211.745 504.918 211.763C508.272 211.992 511.319 213.795 513.134 216.624C515.084 219.619 515.524 223.353 514.325 226.72C512.447 232.019 512.53 237.816 514.559 243.059C515.76 246.451 515.252 250.214 513.195 253.165C514.087 253.839 514.877 254.639 515.539 255.541C517.394 258.198 517.964 261.546 517.093 264.667C515.648 270.292 515.716 276.365 517.304 283.235C517.88 285.638 517.592 288.168 516.491 290.38C516.088 291.168 515.597 291.907 515.028 292.585C519.709 292.173 524.379 291.56 529.037 290.743L529.06 290.743C532.806 290.73 536.332 292.515 538.539 295.541C540.394 298.198 540.964 301.546 540.093 304.667C538.648 310.292 538.716 316.365 540.304 323.235C540.88 325.638 540.592 328.168 539.491 330.38L539.491 330.38Z" id="Shape" fill="#FFFFFF" fill-rule="evenodd" stroke="none" />
    <path d="M684.942 76.7652L65.8023 76.7652C64.4425 76.7353 63.3644 75.6086 63.3943 74.2488C63.4234 72.9312 64.4846 71.8699 65.8023 71.8409L684.942 71.8409C686.302 71.8709 687.38 72.9975 687.35 74.3573C687.321 75.6749 686.26 76.7362 684.942 76.7652L684.942 76.7652Z" id="Shape" fill="#E6E6E6" stroke="none" />
    <path d="M382.852 422.94L382.783 422.935C364.007 420.319 344.958 420.319 326.181 422.935L326.151 422.935C324.271 422.942 322.418 422.495 320.748 421.631C315.983 419.044 313.827 413.36 315.676 408.263C317.704 403.02 317.788 397.223 315.91 391.924C314.711 388.557 315.151 384.823 317.1 381.828C318.916 378.999 321.963 377.196 325.316 376.967C325.58 376.949 325.845 376.94 326.112 376.94C344.853 380.238 364.025 380.241 382.766 376.947L382.79 376.947C386.536 376.934 390.062 378.718 392.269 381.745C394.124 384.402 394.694 387.749 393.823 390.871C392.378 396.496 392.446 402.569 394.034 409.439C394.61 411.842 394.322 414.372 393.221 416.584C391.243 420.491 387.232 422.95 382.852 422.94L382.852 422.94Z" id="Shape" fill="#00BFA6" stroke="none" />
    <path d="M440.595 324.893L425.49 312.393C414.162 318.33 396.925 342.034 396.925 342.034L357.161 370.633C352.386 370.86 348.699 374.916 348.927 379.691C349.154 384.467 353.21 388.154 357.985 387.926C361.084 387.779 363.867 385.984 365.28 383.222L419.308 354.672L440.595 324.893L440.595 324.893Z" id="Shape" fill="#FFB8B8" stroke="none" />
    <path d="M466.08 277.317L466.08 277.317C474.799 284.701 475.881 297.754 468.497 306.472C467.67 307.449 466.754 308.347 465.76 309.155L456.154 316.964C456.154 316.964 432.193 351.457 419.721 355.459L387.702 372.187L373.265 357.711L402.284 334.062C402.284 334.062 415.631 321.438 416.967 312.196C417.785 306.537 427.364 291.12 436.965 279.685C444.334 270.993 457.354 269.92 466.047 277.289L466.08 277.317L466.08 277.317Z" id="Shape" fill="#3F3D56" stroke="none" />
    <path d="M435.037 651.672L421.39 651.671L414.898 599.031L435.04 599.032L435.037 651.672L435.037 651.672Z" id="Polygon" fill="#FFB6B6" fill-rule="evenodd" stroke="none" />
    <path d="M435.517 665.908L393.551 665.907L393.551 665.376C393.551 656.355 400.864 649.042 409.885 649.042L409.886 649.042L417.552 643.226L431.855 649.043L435.518 649.043L435.517 665.908L435.517 665.908Z" id="Shape" fill="#2F2E41" stroke="none" />
    <path d="M539.021 579.842L532.558 591.861L483.12 572.653L492.659 554.913L539.021 579.842L539.021 579.842Z" id="Polygon" fill="#FFB6B6" fill-rule="evenodd" stroke="none" />
    <path d="M551.788 586.16L531.914 623.122L531.446 622.871C523.501 618.599 520.523 608.695 524.794 600.749L524.795 600.748L523.302 591.242L535.198 581.399L536.933 578.173L551.788 586.16L551.788 586.16Z" id="Shape" fill="#2F2E41" stroke="none" />
    <path d="M409.235 410.61L397.19 506.97L403.213 539.276L511.617 586.768L517.64 567.195C489.93 550.239 460.309 524.578 441.645 522.691C441.645 522.691 440.096 505.591 453.468 495.038C456.165 492.909 455.575 490.028 456.666 487.417C457.417 485.621 460.401 483.751 461.165 481.909C462.156 479.521 460.93 477.149 461.926 474.723C462.486 473.359 464.609 473.274 465.165 471.909C466.115 469.58 465.493 465.975 466.418 463.674C468.395 458.758 470.295 453.951 472.03 449.444C477.431 435.417 481.232 424.303 480.752 421.903C479.246 414.374 409.235 410.61 409.235 410.61L409.235 410.61Z" id="Shape" fill="#2F2E41" stroke="none" />
    <path d="M407.16 506.691L400.859 547.385L416.763 630.431L437.842 630.431C445.415 602.527 445.805 565.852 438.595 534.824L407.16 506.691L407.16 506.691Z" id="Shape" fill="#2F2E41" stroke="none" />
    <path d="M420.703 292.878L430.42 275.946L440.853 267.577L460.426 264.565L465.864 268.747L465.864 268.747C485.434 298.657 492.732 334.956 486.242 370.105L484.715 378.379L483.745 383.631L484.165 389.908L480.899 399.048L481.348 405.74L481.588 409.314L481.829 412.901L482.165 417.908C482.767 420.766 479.736 420.389 480.165 422.908C480.918 427.332 484.293 433.887 479.165 433.908L426.165 422.908C412.701 422.964 400.165 406.908 413.165 393.908L420.703 292.878L420.703 292.878Z" id="Shape" fill="#3F3D56" stroke="none" />
    <path d="M419.775 234.112C419.775 219.898 431.297 208.375 445.511 208.375C459.725 208.375 471.248 219.898 471.248 234.112C471.248 248.326 459.725 259.848 445.511 259.848C431.297 259.848 419.775 248.326 419.775 234.112Z" id="Circle" fill="#FFB8B8" fill-rule="evenodd" stroke="none" />
    <path d="M445.947 259.117C449.713 259.176 453.477 258.913 457.198 258.331C460.886 257.581 469.137 251.535 471.437 247.896L471.437 247.896C473.146 245.193 474.239 240.972 474.855 237.906C476.532 229.704 474.653 221.175 469.684 214.436C468.739 213.042 467.436 211.93 465.911 211.216C465.776 211.163 465.637 211.117 465.496 211.077C463.275 210.492 461.278 209.257 459.764 207.529C459.47 207.18 459.151 206.852 458.811 206.548C457.099 205.104 455.069 204.085 452.888 203.575C449.367 202.632 444.272 203.568 437.744 206.357C434.465 207.759 430.878 207.251 428.119 206.653C427.804 206.592 427.48 206.703 427.269 206.944C426.095 208.046 424.548 208.663 422.937 208.671C421.951 208.714 420.916 210.08 419.666 211.86C419.382 212.265 419.051 212.736 418.812 213.023L418.78 212.472L418.222 213.087C415.352 216.251 415.59 221.142 418.754 224.012C419.604 224.783 420.615 225.355 421.714 225.687C422.706 225.951 423.722 226.113 424.747 226.171C425.368 226.226 426.01 226.284 426.626 226.391C430.644 227.214 433.934 230.087 435.29 233.958C435.859 235.543 437.605 236.367 439.19 235.799C439.439 235.709 439.675 235.588 439.893 235.438C441.194 234.425 442.909 234.112 444.484 234.602C445.154 234.975 445.676 235.567 445.962 236.279C446.31 237.072 446.885 237.744 447.616 238.208C450.115 239.497 450.288 245.206 449.39 249.965C448.525 254.552 446.814 257.87 445.231 258.034C444.012 258.16 443.872 258.247 443.784 258.462L443.705 258.655L443.842 258.836C444.515 259.08 445.233 259.176 445.947 259.117L445.947 259.117Z" id="Shape" fill="#2F2E41" stroke="none" />
    <path d="M393.852 243.94L393.783 243.935C375.007 241.319 355.958 241.319 337.181 243.935L337.151 243.935C335.271 243.942 333.418 243.495 331.748 242.631C326.983 240.044 324.827 234.36 326.676 229.263C328.704 224.02 328.788 218.223 326.91 212.924C325.711 209.557 326.151 205.823 328.1 202.828C329.916 199.999 332.963 198.196 336.316 197.967C336.58 197.949 336.845 197.94 337.112 197.94C355.853 201.238 375.025 201.241 393.766 197.947L393.79 197.947C397.536 197.934 401.062 199.718 403.269 202.745C405.124 205.402 405.694 208.749 404.823 211.871C403.378 217.496 403.446 223.569 405.034 230.439C405.61 232.842 405.322 235.372 404.221 237.584C402.243 241.491 398.232 243.95 393.852 243.94L393.852 243.94Z" id="Shape" fill="#00BFA6" stroke="none" />
    <path d="M417.919 304.556L428.569 288.093C421.349 277.537 395.792 263.188 395.792 263.188L362.743 227.039C361.959 222.323 357.5 219.135 352.784 219.919C348.068 220.703 344.88 225.162 345.664 229.878C346.173 232.938 348.281 235.493 351.189 236.573L385.857 286.894L417.919 304.556L417.919 304.556Z" id="Shape" fill="#FFB8B8" stroke="none" />
    <path d="M468.148 324.307L468.148 324.307C461.834 333.828 448.996 336.428 439.475 330.114C438.408 329.406 437.409 328.601 436.491 327.709L427.613 319.082C427.613 319.082 390.398 299.649 384.966 287.731L360.581 253.144L376.931 238.394L405.35 264.228C405.35 264.228 418.434 279.359 427.768 279.606C433.485 279.757 449.915 287.469 462.393 295.667C471.887 301.97 474.475 314.776 468.172 324.27L468.148 324.307L468.148 324.307Z" id="Shape" fill="#3F3D56" stroke="none" />
    <path d="M220.238 665.759L220.169 665.754C201.392 663.138 182.344 663.138 163.567 665.754L163.537 665.754C161.657 665.761 159.803 665.314 158.134 664.45C153.369 661.862 151.212 656.179 153.061 651.082C155.09 645.839 155.173 640.042 153.296 634.743C152.096 631.376 152.537 627.642 154.486 624.647C156.301 621.818 159.349 620.015 162.702 619.786C162.966 619.768 163.23 619.759 163.498 619.759C182.238 623.057 201.411 623.06 220.152 619.766L220.176 619.766C223.922 619.753 227.447 621.537 229.655 624.564C231.51 627.221 232.08 630.568 231.209 633.69C229.764 639.315 229.832 645.388 231.42 652.258C231.996 654.661 231.708 657.191 230.606 659.403C228.629 663.31 224.618 665.769 220.238 665.759L220.238 665.759Z" id="Shape" fill="#00BFA6" stroke="none" />
    <path d="M236.238 623.759L236.169 623.754C217.392 621.138 198.344 621.138 179.567 623.754L179.537 623.754C177.657 623.761 175.803 623.314 174.134 622.45C169.369 619.862 167.212 614.179 169.061 609.082C171.09 603.839 171.173 598.042 169.296 592.743C168.096 589.376 168.537 585.642 170.486 582.647C172.301 579.818 175.349 578.015 178.702 577.786C178.966 577.768 179.23 577.759 179.498 577.759C198.238 581.057 217.411 581.06 236.152 577.766L236.176 577.766C239.922 577.753 243.447 579.537 245.655 582.564C247.51 585.221 248.08 588.568 247.209 591.69C245.764 597.315 245.832 603.388 247.42 610.258C247.996 612.661 247.708 615.191 246.606 617.403C244.629 621.31 240.618 623.769 236.238 623.759L236.238 623.759Z" id="Shape" fill="#00BFA6" stroke="none" />
    <path d="M96.2253 635.208L96.2682 635.154C108.956 621.068 119.629 605.29 127.983 588.272L128 588.247C129.048 586.686 130.457 585.401 132.108 584.502C136.921 582.005 142.836 583.404 146.022 587.791C149.228 592.41 153.983 595.726 159.424 597.141C162.885 598.034 165.731 600.49 167.12 603.784C168.446 606.872 168.232 610.406 166.542 613.312C166.409 613.541 166.269 613.765 166.119 613.987C152.886 627.661 142.141 643.539 134.368 660.908L134.355 660.927C132.267 664.038 128.813 665.958 125.069 666.091C121.829 666.138 118.738 664.734 116.64 662.264C112.791 657.915 107.722 654.569 101.143 652.035C98.8292 651.165 96.8956 649.509 95.6804 647.357C93.5521 643.53 93.7629 638.83 96.2253 635.208L96.2253 635.208Z" id="Shape" fill="#00BFA6" stroke="none" />
    <path d="M749.935 667.284L1.18451 667.591C0.526919 667.588 -0.00339067 667.052 4.92334e-05 666.394C0.00344923 665.742 0.531769 665.213 1.18451 665.21L749.935 664.903C750.592 664.906 751.122 665.442 751.119 666.1C751.116 666.752 750.587 667.281 749.935 667.284L749.935 667.284Z" id="Shape" fill="#CACACA" stroke="none" />
    <path d="M151.795 45.2631C151.795 40.4885 155.581 36.618 160.251 36.618C164.922 36.618 168.708 40.4885 168.708 45.2631C168.708 50.0376 164.922 53.9081 160.251 53.9081C155.581 53.9081 151.795 50.0376 151.795 45.2631ZM181.009 45.2631C181.009 40.4885 184.795 36.618 189.465 36.618C194.136 36.618 197.922 40.4885 197.922 45.2631C197.922 50.0376 194.136 53.9081 189.465 53.9081C184.795 53.9081 181.009 50.0376 181.009 45.2631ZM210.222 45.2631C210.222 40.4885 214.009 36.618 218.679 36.618C223.349 36.618 227.136 40.4885 227.136 45.2631C227.136 50.0376 223.349 53.9081 218.679 53.9081C214.009 53.9081 210.222 50.0376 210.222 45.2631ZM251.99 52.0958C251.731 52.0958 251.471 51.9953 251.276 51.7951L245.57 45.962C245.189 45.5734 245.189 44.9523 245.57 44.5636L251.276 38.7311C251.663 38.3366 252.297 38.3302 252.69 38.7155C253.085 39.1017 253.091 39.735 252.705 40.1295L247.683 45.2628L252.705 50.3966C253.091 50.7911 253.085 51.4244 252.69 51.8107C252.495 52.0011 252.243 52.0958 251.99 52.0958L251.99 52.0958ZM261.579 52.0958C261.326 52.0958 261.074 52.0011 260.88 51.8107C260.485 51.4244 260.478 50.7916 260.864 50.3966L265.885 45.2628L260.864 40.1295C260.478 39.735 260.485 39.1017 260.88 38.7155C261.274 38.3288 261.907 38.3361 262.294 38.7311L267.999 44.5636C268.38 44.9523 268.38 45.5734 267.999 45.9621L262.294 51.7951C262.098 51.9953 261.839 52.0958 261.579 52.0958L261.579 52.0958ZM560.089 37.6189L549.479 37.6189C548.269 37.6189 547.289 38.5989 547.289 39.8089L547.289 50.4289C547.289 51.6389 548.269 52.6189 549.479 52.6189L560.089 52.6189C561.299 52.6189 562.289 51.6389 562.289 50.4289L562.289 39.8089C562.289 38.5989 561.299 37.6189 560.089 37.6189L560.089 37.6189ZM534.089 37.6189L523.479 37.6189C522.269 37.6189 521.289 38.5989 521.289 39.8089L521.289 50.4289C521.289 51.6389 522.269 52.6189 523.479 52.6189L534.089 52.6189C535.299 52.6189 536.289 51.6389 536.289 50.4289L536.289 39.8089C536.289 38.5989 535.299 37.6189 534.089 37.6189L534.089 37.6189ZM584.589 38.1189L573.979 38.1189C572.769 38.1189 571.789 39.0989 571.789 40.3089L571.789 50.9289C571.789 52.1389 572.769 53.1189 573.979 53.1189L584.589 53.1189C585.799 53.1189 586.789 52.1389 586.789 50.9289L586.789 40.3089C586.789 39.0989 585.799 38.1189 584.589 38.1189L584.589 38.1189ZM424.667 42.1589L339.857 42.1589C338.377 42.1589 337.187 43.3589 337.187 44.8289C337.187 46.2989 338.377 47.4989 339.857 47.4989L424.667 47.4989C426.137 47.4989 427.337 46.2989 427.337 44.8289C427.337 43.3589 426.137 42.1589 424.667 42.1589L424.667 42.1589Z" id="Group" fill="#3F3D56" stroke="none" />
  </g>
</svg>